SplineFontDB: 3.0
FontName: FiraCode-Regular
FullName: Fira Code Regular
FamilyName: Fira Code
Weight: Normal
Copyright: Copyright 2012-2015 The Fira Code Project Authors https:github.comtonskyFiraCode
Version: 1.208
ItalicAngle: 0
UnderlinePosition: -125
UnderlineWidth: 50
Ascent: 1600
Descent: 400
InvalidEm: 0
sfntRevision: 0x0001353f
LayerCount: 2
Layer: 0 0 "Back" 1
Layer: 1 0 "Fore" 0
XUID: [1021 647 -312734098 3253]
StyleMap: 0x0040
FSType: 0
OS2Version: 4
OS2_WeightWidthSlopeOnly: 0
OS2_UseTypoMetrics: 1
CreationTime: 1564760079
ModificationTime: 1564968393
PfmFamily: 17
TTFWeight: 400
TTFWidth: 5
LineGap: 0
VLineGap: 0
Panose: 2 11 8 9 5 0 0 2 0 4
OS2TypoAscent: 1870
OS2TypoAOffset: 0
OS2TypoDescent: -530
OS2TypoDOffset: 0
OS2TypoLinegap: 0
OS2WinAscent: 1870
OS2WinAOffset: 0
OS2WinDescent: 530
OS2WinDOffset: 0
HheadAscent: 1870
HheadAOffset: 0
HheadDescent: -530
HheadDOffset: 0
OS2SubXSize: 1300
OS2SubYSize: 1200
OS2SubXOff: 0
OS2SubYOff: 150
OS2SupXSize: 1300
OS2SupYSize: 1200
OS2SupXOff: 0
OS2SupYOff: 700
OS2StrikeYSize: 50
OS2StrikeYPos: 632
OS2CapHeight: 1377
OS2XHeight: 1053
OS2Vendor: 'CTDB'
OS2CodePages: 6000009f.dfd70000
OS2UnicodeRanges: e00002ef.1200f8fb.00000008.00000000
Lookup: 1 0 0 "'aalt' Access All Alternates lookup 0" { "'aalt' Access All Alternates lookup 0 subtable"  } ['aalt' ('DFLT' <'dflt' > 'cyrl' <'dflt' > 'grek' <'dflt' > 'latn' <'AFK ' 'AZE ' 'CAT ' 'CRT ' 'KAZ ' 'MOL ' 'PLK ' 'ROM ' 'TAT ' 'TRK ' 'dflt' > 'zinh' <'dflt' > 'zyyy' <'dflt' > ) ]
Lookup: 3 0 0 "'aalt' Access All Alternates lookup 1" { "'aalt' Access All Alternates lookup 1 subtable"  } ['aalt' ('DFLT' <'dflt' > 'cyrl' <'dflt' > 'grek' <'dflt' > 'latn' <'AFK ' 'AZE ' 'CAT ' 'CRT ' 'KAZ ' 'MOL ' 'PLK ' 'ROM ' 'TAT ' 'TRK ' 'dflt' > 'zinh' <'dflt' > 'zyyy' <'dflt' > ) ]

StartChar: .notdef
Encoding: 1114112 -1 0
Width: 1200
Flags: W
HStem: -700 104<290 912> 96 144<499.975 628.025> 298 216<514.156 611.859> 806 96<429.234 673.233> 1996 104<290 912>
VStem: 180 110<-596 1996> 494 140<100.99 235.314> 514 100<298.47 444.583> 696 108<549.917 784.032> 912 108<-596 1996>
LayerCount: 2
Fore
SplineSet
180 2100 m 1xfcc0
 1020 2100 l 1
 1020 -700 l 1
 180 -700 l 1
 180 2100 l 1xfcc0
912 -596 m 1
 912 1996 l 1
 290 1996 l 1
 290 -596 l 1
 912 -596 l 1
614 346 m 2xfdc0
 614 316 588 298 564 298 c 0
 538 298 514 316 514 346 c 2
 514 514 l 1
 658 522 696 562 696 668 c 0
 696 746 674 806 574 806 c 0
 532 806 504 800 470 784 c 0
 460 780 452 778 444 778 c 0
 414 778 396 798 396 824 c 0
 396 878 504 902 582 902 c 0
 754 902 804 792 804 672 c 0
 804 532 748 456 614 436 c 1
 614 346 l 2xfdc0
494 170 m 0xfec0
 494 210 524 240 564 240 c 0
 604 240 634 210 634 170 c 0
 634 128 604 96 564 96 c 0
 524 96 494 128 494 170 c 0xfec0
EndSplineSet
EndChar

StartChar: A
Encoding: 65 65 1
Width: 1200
GlyphClass: 2
Flags: W
HStem: 0 21G<41 218.268 970.732 1159> 351 144<367 822> 1357 20G<482.493 717.507>
AnchorPoint: "Anchor-1" 596 0 basechar 0
AnchorPoint: "Anchor-0" 600 1377 basechar 0
LayerCount: 2
Fore
SplineSet
867 351 m 1
 322 351 l 1
 212 0 l 1
 41 0 l 1
 489 1377 l 1
 711 1377 l 1
 1159 0 l 1
 977 0 l 1
 867 351 l 1
367 495 m 1
 822 495 l 1
 596 1231 l 1
 367 495 l 1
EndSplineSet
Substitution2: "Single Substitution lookup 12 subtable" ordfeminine
Substitution2: "'aalt' Access All Alternates lookup 0 subtable" ordfeminine
Position2: "'cpsp' Capital Spacing lookup 0 subtable" dx=5 dy=0 dh=10 dv=0
EndChar

StartChar: Aacute
Encoding: 193 193 2
Width: 1200
GlyphClass: 2
Flags: W
HStem: 0 21G<41 218.268 970.732 1159> 351 144<367 822> 1357 20G<482.493 717.507>
AnchorPoint: "Anchor-1" 596 0 basechar 0
AnchorPoint: "Anchor-0" 600 1377 basechar 0
LayerCount: 2
Fore
SplineSet
764 1812 m 1
 840 1668 l 1
 413 1511 l 1
 368 1601 l 1
 764 1812 l 1
867 351 m 1
 322 351 l 1
 212 0 l 1
 41 0 l 1
 489 1377 l 1
 711 1377 l 1
 1159 0 l 1
 977 0 l 1
 867 351 l 1
367 495 m 1
 822 495 l 1
 596 1231 l 1
 367 495 l 1
EndSplineSet
Position2: "'cpsp' Capital Spacing lookup 0 subtable" dx=5 dy=0 dh=10 dv=0
EndChar

StartChar: Abreve
Encoding: 258 258 3
Width: 1200
GlyphClass: 2
Flags: W
HStem: 0 21G<41 218.268 970.732 1159> 351 144<367 822> 1357 20G<482.493 717.507> 1517 131<473.582 719.863>
VStem: 300 117<1704.2 1758.99> 781 115<1710.31 1759.04>
AnchorPoint: "Anchor-1" 596 0 basechar 0
AnchorPoint: "Anchor-0" 600 1377 basechar 0
LayerCount: 2
Fore
SplineSet
595 1517 m 0
 442 1517 317 1611 300 1756 c 1
 417 1781 l 1
 444 1702 501 1648 595 1648 c 0
 690 1648 752 1702 781 1781 c 1
 896 1756 l 1
 881 1611 751 1517 595 1517 c 0
867 351 m 1
 322 351 l 1
 212 0 l 1
 41 0 l 1
 489 1377 l 1
 711 1377 l 1
 1159 0 l 1
 977 0 l 1
 867 351 l 1
367 495 m 1
 822 495 l 1
 596 1231 l 1
 367 495 l 1
EndSplineSet
Position2: "'cpsp' Capital Spacing lookup 0 subtable" dx=5 dy=0 dh=10 dv=0
EndChar

StartChar: Acircumflex
Encoding: 194 194 4
Width: 1200
GlyphClass: 2
Flags: W
HStem: 0 21G<41 218.268 970.732 1159> 351 144<367 822> 1357 20G<482.493 717.507>
AnchorPoint: "Anchor-1" 596 0 basechar 0
AnchorPoint: "Anchor-0" 600 1377 basechar 0
LayerCount: 2
Fore
SplineSet
658 1821 m 1
 927 1606 l 1
 853 1521 l 1
 600 1681 l 1
 349 1521 l 1
 274 1606 l 1
 545 1821 l 1
 658 1821 l 1
867 351 m 1
 322 351 l 1
 212 0 l 1
 41 0 l 1
 489 1377 l 1
 711 1377 l 1
 1159 0 l 1
 977 0 l 1
 867 351 l 1
367 495 m 1
 822 495 l 1
 596 1231 l 1
 367 495 l 1
EndSplineSet
Position2: "'cpsp' Capital Spacing lookup 0 subtable" dx=5 dy=0 dh=10 dv=0
EndChar

StartChar: Adieresis
Encoding: 196 196 5
Width: 1200
GlyphClass: 2
Flags: W
HStem: 0 21G<41 218.268 970.732 1159> 351 144<367 822> 1357 20G<482.493 717.507> 1536 214<303.898 479.648 718.058 893.808>
VStem: 283 218<1556.34 1729.53> 697 218<1556.34 1729.53>
AnchorPoint: "Anchor-1" 596 0 basechar 0
AnchorPoint: "Anchor-0" 600 1377 basechar 0
LayerCount: 2
Fore
SplineSet
393 1536 m 0
 329 1536 283 1581 283 1642 c 0
 283 1705 329 1750 393 1750 c 0
 453 1750 501 1705 501 1642 c 0
 501 1581 453 1536 393 1536 c 0
805 1536 m 0
 744 1536 697 1581 697 1642 c 0
 697 1705 744 1750 805 1750 c 0
 868 1750 915 1705 915 1642 c 0
 915 1581 868 1536 805 1536 c 0
867 351 m 1
 322 351 l 1
 212 0 l 1
 41 0 l 1
 489 1377 l 1
 711 1377 l 1
 1159 0 l 1
 977 0 l 1
 867 351 l 1
367 495 m 1
 822 495 l 1
 596 1231 l 1
 367 495 l 1
EndSplineSet
Position2: "'cpsp' Capital Spacing lookup 0 subtable" dx=5 dy=0 dh=10 dv=0
EndChar

StartChar: Agrave
Encoding: 192 192 6
Width: 1200
GlyphClass: 2
Flags: W
HStem: 0 21G<41 218.268 970.732 1159> 351 144<367 822> 1357 20G<482.493 717.507>
AnchorPoint: "Anchor-1" 596 0 basechar 0
AnchorPoint: "Anchor-0" 600 1377 basechar 0
LayerCount: 2
Fore
SplineSet
462 1819 m 1
 831 1601 l 1
 780 1511 l 1
 368 1675 l 1
 462 1819 l 1
867 351 m 1
 322 351 l 1
 212 0 l 1
 41 0 l 1
 489 1377 l 1
 711 1377 l 1
 1159 0 l 1
 977 0 l 1
 867 351 l 1
367 495 m 1
 822 495 l 1
 596 1231 l 1
 367 495 l 1
EndSplineSet
Position2: "'cpsp' Capital Spacing lookup 0 subtable" dx=5 dy=0 dh=10 dv=0
EndChar

StartChar: Amacron
Encoding: 256 256 7
Width: 1200
GlyphClass: 2
Flags: W
HStem: 0 21G<41 218.268 970.732 1159> 351 144<367 822> 1357 20G<482.493 717.507> 1591 128<330 868>
AnchorPoint: "Anchor-1" 596 0 basechar 0
AnchorPoint: "Anchor-0" 600 1377 basechar 0
LayerCount: 2
Fore
SplineSet
868 1591 m 1
 330 1591 l 1
 330 1719 l 1
 868 1719 l 1
 868 1591 l 1
867 351 m 1
 322 351 l 1
 212 0 l 1
 41 0 l 1
 489 1377 l 1
 711 1377 l 1
 1159 0 l 1
 977 0 l 1
 867 351 l 1
367 495 m 1
 822 495 l 1
 596 1231 l 1
 367 495 l 1
EndSplineSet
Position2: "'cpsp' Capital Spacing lookup 0 subtable" dx=5 dy=0 dh=10 dv=0
EndChar

StartChar: Aogonek
Encoding: 260 260 8
Width: 1200
GlyphClass: 2
Flags: W
HStem: -459 134<840.577 1047.02> 0 21G<41 218.268> 351 144<367 822> 1357 20G<482.493 717.507>
VStem: 677 152<-312.23 -126.966>
AnchorPoint: "Anchor-1" 596 0 basechar 0
AnchorPoint: "Anchor-0" 600 1377 basechar 0
LayerCount: 2
Fore
SplineSet
867 351 m 1
 322 351 l 1
 212 0 l 1
 41 0 l 1
 489 1377 l 1
 711 1377 l 1
 1159 0 l 1
 1077 0 l 1
 871 -91 829 -158 829 -229 c 0
 829 -288 857 -325 940 -325 c 0
 982 -325 1014 -321 1065 -311 c 1
 1047 -445 l 1
 1007 -453 972 -459 920 -459 c 0
 768 -459 677 -373 677 -262 c 0
 677 -138 765 -40 966 34 c 1
 867 351 l 1
367 495 m 1
 822 495 l 1
 596 1231 l 1
 367 495 l 1
EndSplineSet
Position2: "'cpsp' Capital Spacing lookup 0 subtable" dx=5 dy=0 dh=10 dv=0
EndChar

StartChar: Aring
Encoding: 197 197 9
Width: 1200
GlyphClass: 2
Flags: W
HStem: 0 21G<41 218.268 970.732 1159> 351 144<367 822> 1357 20G<482.493 717.507> 1477 90<511.386 688.908> 1794 92<511.386 688.908>
VStem: 378 114<1586.68 1774.99> 708 114<1586.68 1774.99>
AnchorPoint: "Anchor-1" 596 0 basechar 0
AnchorPoint: "Anchor-0" 600 1377 basechar 0
LayerCount: 2
Fore
SplineSet
600 1886 m 0
 729 1886 822 1796 822 1680 c 0
 822 1568 729 1477 600 1477 c 0
 471 1477 378 1568 378 1680 c 0
 378 1796 471 1886 600 1886 c 0
600 1794 m 0
 535 1794 492 1751 492 1680 c 0
 492 1610 535 1567 600 1567 c 0
 667 1567 708 1610 708 1680 c 0
 708 1751 667 1794 600 1794 c 0
867 351 m 1
 322 351 l 1
 212 0 l 1
 41 0 l 1
 489 1377 l 1
 711 1377 l 1
 1159 0 l 1
 977 0 l 1
 867 351 l 1
367 495 m 1
 822 495 l 1
 596 1231 l 1
 367 495 l 1
EndSplineSet
Position2: "'cpsp' Capital Spacing lookup 0 subtable" dx=5 dy=0 dh=10 dv=0
EndChar

StartChar: Atilde
Encoding: 195 195 10
Width: 1200
GlyphClass: 2
Flags: W
HStem: 0 21G<41 218.268 970.732 1159> 351 144<367 822> 1357 20G<482.493 717.507> 1556 130<621.926 791.039> 1653 130<409.035 580.623>
AnchorPoint: "Anchor-1" 596 0 basechar 0
AnchorPoint: "Anchor-0" 600 1377 basechar 0
LayerCount: 2
Fore
SplineSet
717 1556 m 0xf0
 611 1556 557 1653 484 1653 c 0
 439 1653 410 1621 378 1560 c 1
 271 1614 l 1
 317 1708 387 1783 485 1783 c 0xe8
 595 1783 642 1686 717 1686 c 0
 756 1686 787 1714 823 1774 c 1
 929 1721 l 1
 877 1609 803 1556 717 1556 c 0xf0
867 351 m 1
 322 351 l 1
 212 0 l 1
 41 0 l 1
 489 1377 l 1
 711 1377 l 1
 1159 0 l 1
 977 0 l 1
 867 351 l 1
367 495 m 1
 822 495 l 1
 596 1231 l 1
 367 495 l 1
EndSplineSet
Position2: "'cpsp' Capital Spacing lookup 0 subtable" dx=5 dy=0 dh=10 dv=0
EndChar

StartChar: AE
Encoding: 198 198 11
Width: 1200
GlyphClass: 2
Flags: W
HStem: 0 141<872 1215> 351 146<297 628> 628 141<769 1114> 1236 141<640 1111>
AnchorPoint: "Anchor-1" 600 0 basechar 0
AnchorPoint: "Anchor-0" 723 1377 basechar 0
LayerCount: 2
Fore
SplineSet
659 351 m 1
 252 351 l 1
 153 0 l 1
 -24 0 l 1
 380 1377 l 1
 1132 1377 l 1
 1111 1236 l 1
 640 1236 l 1
 742 769 l 1
 1114 769 l 1
 1114 628 l 1
 769 628 l 1
 872 141 l 1
 1215 141 l 1
 1215 0 l 1
 732 0 l 1
 659 351 l 1
297 497 m 1
 628 497 l 1
 481 1240 l 1
 297 497 l 1
EndSplineSet
Position2: "'cpsp' Capital Spacing lookup 0 subtable" dx=5 dy=0 dh=10 dv=0
EndChar

StartChar: AEacute
Encoding: 508 508 12
Width: 1200
GlyphClass: 2
Flags: W
HStem: 0 141<872 1215> 351 146<297 628> 628 141<769 1114> 1236 141<640 1111>
AnchorPoint: "Anchor-1" 600 0 basechar 0
AnchorPoint: "Anchor-0" 723 1377 basechar 0
LayerCount: 2
Fore
SplineSet
887 1812 m 1
 963 1668 l 1
 536 1511 l 1
 491 1601 l 1
 887 1812 l 1
659 351 m 1
 252 351 l 1
 153 0 l 1
 -24 0 l 1
 380 1377 l 1
 1132 1377 l 1
 1111 1236 l 1
 640 1236 l 1
 742 769 l 1
 1114 769 l 1
 1114 628 l 1
 769 628 l 1
 872 141 l 1
 1215 141 l 1
 1215 0 l 1
 732 0 l 1
 659 351 l 1
297 497 m 1
 628 497 l 1
 481 1240 l 1
 297 497 l 1
EndSplineSet
Position2: "'cpsp' Capital Spacing lookup 0 subtable" dx=5 dy=0 dh=10 dv=0
EndChar

StartChar: B
Encoding: 66 66 13
Width: 1200
GlyphClass: 2
Flags: W
HStem: 0 143<366 783.829> 648 143<366 758.596> 1237 140<366 751.742>
VStem: 193 173<143 648 791 1237> 841 178<869.404 1155.3> 896 183<242.672 549.158>
AnchorPoint: "Anchor-1" 600 0 basechar 0
AnchorPoint: "Anchor-0" 600 1377 basechar 0
LayerCount: 2
Fore
SplineSet
1079 393 m 0xf4
 1079 93 816 0 563 0 c 2
 193 0 l 1
 193 1377 l 1
 532 1377 l 2
 773 1377 1019 1300 1019 1030 c 0xf8
 1019 853 895 759 763 729 c 1
 915 703 1079 626 1079 393 c 0xf4
841 1021 m 0
 841 1177 737 1237 571 1237 c 2
 366 1237 l 1
 366 791 l 1
 588 791 l 2
 751 791 841 859 841 1021 c 0
896 387 m 0xf4
 896 595 761 648 601 648 c 2
 366 648 l 1
 366 143 l 1
 593 143 l 2
 728 143 896 183 896 387 c 0xf4
EndSplineSet
Position2: "'cpsp' Capital Spacing lookup 0 subtable" dx=5 dy=0 dh=10 dv=0
EndChar

StartChar: C
Encoding: 67 67 14
Width: 1200
GlyphClass: 2
Flags: W
HStem: -23 149<538.274 932.765> 1254 145<541.591 926.595>
VStem: 127 180<400.659 980.204>
AnchorPoint: "Anchor-1" 699 0 basechar 0
AnchorPoint: "Anchor-0" 731 1377 basechar 0
LayerCount: 2
Fore
SplineSet
716 1399 m 0
 896 1399 1006 1353 1115 1265 c 1
 1018 1152 l 1
 931 1225 834 1254 729 1254 c 0
 503 1254 307 1110 307 689 c 0
 307 279 491 126 725 126 c 0
 879 126 972 181 1045 241 c 1
 1135 127 l 1
 1051 45 919 -23 723 -23 c 0
 387 -23 127 227 127 689 c 0
 127 1153 397 1399 716 1399 c 0
EndSplineSet
Position2: "'cpsp' Capital Spacing lookup 0 subtable" dx=5 dy=0 dh=10 dv=0
EndChar

StartChar: Cacute
Encoding: 262 262 15
Width: 1200
GlyphClass: 2
Flags: W
HStem: -23 149<538.274 932.765> 1254 145<541.591 926.595>
VStem: 127 180<400.659 980.204>
AnchorPoint: "Anchor-1" 699 0 basechar 0
AnchorPoint: "Anchor-0" 731 1377 basechar 0
LayerCount: 2
Fore
SplineSet
896 1812 m 1
 972 1668 l 1
 544 1511 l 1
 499 1601 l 1
 896 1812 l 1
716 1399 m 0
 896 1399 1006 1353 1115 1265 c 1
 1018 1152 l 1
 931 1225 834 1254 729 1254 c 0
 503 1254 307 1110 307 689 c 0
 307 279 491 126 725 126 c 0
 879 126 972 181 1045 241 c 1
 1135 127 l 1
 1051 45 919 -23 723 -23 c 0
 387 -23 127 227 127 689 c 0
 127 1153 397 1399 716 1399 c 0
EndSplineSet
Substitution2: "'locl' Localized Forms in Latin lookup 22 subtable" Cacute.loclPLK
Substitution2: "'aalt' Access All Alternates lookup 0 subtable" Cacute.loclPLK
Position2: "'cpsp' Capital Spacing lookup 0 subtable" dx=5 dy=0 dh=10 dv=0
EndChar

StartChar: Ccaron
Encoding: 268 268 16
Width: 1200
GlyphClass: 2
Flags: W
HStem: -23 149<538.274 932.765> 1254 145<541.591 926.595>
VStem: 127 180<400.659 980.204>
AnchorPoint: "Anchor-1" 699 0 basechar 0
AnchorPoint: "Anchor-0" 731 1377 basechar 0
LayerCount: 2
Fore
SplineSet
984 1809 m 1
 1058 1724 l 1
 789 1509 l 1
 676 1509 l 1
 405 1724 l 1
 481 1809 l 1
 731 1648 l 1
 984 1809 l 1
716 1399 m 0
 896 1399 1006 1353 1115 1265 c 1
 1018 1152 l 1
 931 1225 834 1254 729 1254 c 0
 503 1254 307 1110 307 689 c 0
 307 279 491 126 725 126 c 0
 879 126 972 181 1045 241 c 1
 1135 127 l 1
 1051 45 919 -23 723 -23 c 0
 387 -23 127 227 127 689 c 0
 127 1153 397 1399 716 1399 c 0
EndSplineSet
Position2: "'cpsp' Capital Spacing lookup 0 subtable" dx=5 dy=0 dh=10 dv=0
EndChar

StartChar: Ccedilla
Encoding: 199 199 17
Width: 1200
GlyphClass: 2
Flags: W
HStem: -477 114<506.082 769.242> -15 141<542.213 620 739 931.569> 1254 145<541.591 926.595>
VStem: 127 180<398.669 980.204> 780 145<-348.893 -212.301>
AnchorPoint: "Anchor-1" 699 0 basechar 0
AnchorPoint: "Anchor-0" 731 1377 basechar 0
LayerCount: 2
Fore
SplineSet
780 -281 m 0
 780 -209 713 -195 607 -195 c 1
 620 -15 l 1
 336 31 127 275 127 689 c 0
 127 1153 397 1399 716 1399 c 0
 896 1399 1006 1353 1115 1265 c 1
 1018 1152 l 1
 931 1225 834 1254 729 1254 c 0
 503 1254 307 1110 307 689 c 0
 307 279 491 126 725 126 c 0
 879 126 972 181 1045 241 c 1
 1135 127 l 1
 1053 48 926 -19 739 -23 c 1
 739 -114 l 1
 871 -125 925 -201 925 -281 c 0
 925 -412 809 -477 680 -477 c 0
 600 -477 523 -458 472 -428 c 1
 526 -331 l 1
 563 -351 617 -363 661 -363 c 0
 731 -363 780 -341 780 -281 c 0
EndSplineSet
Position2: "'cpsp' Capital Spacing lookup 0 subtable" dx=5 dy=0 dh=10 dv=0
EndChar

StartChar: Ccircumflex
Encoding: 264 264 18
Width: 1200
GlyphClass: 2
Flags: W
HStem: -23 149<538.274 932.765> 1254 145<541.591 926.595>
VStem: 127 180<400.659 980.204>
AnchorPoint: "Anchor-1" 699 0 basechar 0
AnchorPoint: "Anchor-0" 731 1377 basechar 0
LayerCount: 2
Fore
SplineSet
789 1821 m 1
 1058 1606 l 1
 984 1521 l 1
 731 1681 l 1
 481 1521 l 1
 405 1606 l 1
 676 1821 l 1
 789 1821 l 1
716 1399 m 0
 896 1399 1006 1353 1115 1265 c 1
 1018 1152 l 1
 931 1225 834 1254 729 1254 c 0
 503 1254 307 1110 307 689 c 0
 307 279 491 126 725 126 c 0
 879 126 972 181 1045 241 c 1
 1135 127 l 1
 1051 45 919 -23 723 -23 c 0
 387 -23 127 227 127 689 c 0
 127 1153 397 1399 716 1399 c 0
EndSplineSet
Position2: "'cpsp' Capital Spacing lookup 0 subtable" dx=5 dy=0 dh=10 dv=0
EndChar

StartChar: Cdotaccent
Encoding: 266 266 19
Width: 1200
GlyphClass: 2
Flags: W
HStem: -23 149<538.274 932.765> 1254 145<541.591 926.595> 1548 238<633.959 826.466>
VStem: 127 180<400.659 980.204> 608 245<1574.84 1759.32>
AnchorPoint: "Anchor-1" 699 0 basechar 0
AnchorPoint: "Anchor-0" 731 1377 basechar 0
LayerCount: 2
Fore
SplineSet
729 1786 m 0
 803 1786 853 1734 853 1668 c 0
 853 1600 803 1548 729 1548 c 0
 657 1548 608 1600 608 1668 c 0
 608 1734 657 1786 729 1786 c 0
716 1399 m 0
 896 1399 1006 1353 1115 1265 c 1
 1018 1152 l 1
 931 1225 834 1254 729 1254 c 0
 503 1254 307 1110 307 689 c 0
 307 279 491 126 725 126 c 0
 879 126 972 181 1045 241 c 1
 1135 127 l 1
 1051 45 919 -23 723 -23 c 0
 387 -23 127 227 127 689 c 0
 127 1153 397 1399 716 1399 c 0
EndSplineSet
Position2: "'cpsp' Capital Spacing lookup 0 subtable" dx=5 dy=0 dh=10 dv=0
EndChar

StartChar: D
Encoding: 68 68 20
Width: 1200
GlyphClass: 2
Flags: W
HStem: 0 139<340 696.958> 1235 142<340 708.778>
VStem: 167 173<139 1235> 920 185<399.765 992.336>
AnchorPoint: "Anchor-1" 600 0 basechar 0
AnchorPoint: "Anchor-0" 567 1377 basechar 0
LayerCount: 2
Fore
SplineSet
1105 695 m 0
 1105 118 768 0 483 0 c 2
 167 0 l 1
 167 1377 l 1
 461 1377 l 2
 783 1377 1105 1267 1105 695 c 0
920 695 m 0
 920 1175 691 1235 502 1235 c 2
 340 1235 l 1
 340 139 l 1
 504 139 l 2
 702 139 920 239 920 695 c 0
EndSplineSet
Position2: "'cpsp' Capital Spacing lookup 0 subtable" dx=5 dy=0 dh=10 dv=0
EndChar

StartChar: Eth
Encoding: 208 208 21
Width: 1200
GlyphClass: 2
Flags: W
HStem: 0 139<359 715.958> 639 134<41 186 359 675> 1235 142<359 727.778>
VStem: 186 173<139 639 773 1235> 939 185<399.765 992.336>
AnchorPoint: "Anchor-1" 619 0 basechar 0
AnchorPoint: "Anchor-0" 586 1377 basechar 0
LayerCount: 2
Fore
SplineSet
1124 695 m 0
 1124 118 787 0 502 0 c 2
 186 0 l 1
 186 639 l 1
 41 639 l 1
 41 773 l 1
 186 773 l 1
 186 1377 l 1
 480 1377 l 2
 802 1377 1124 1267 1124 695 c 0
675 773 m 1
 675 639 l 1
 359 639 l 1
 359 139 l 1
 523 139 l 2
 721 139 939 239 939 695 c 0
 939 1175 710 1235 521 1235 c 2
 359 1235 l 1
 359 773 l 1
 675 773 l 1
EndSplineSet
Position2: "'cpsp' Capital Spacing lookup 0 subtable" dx=5 dy=0 dh=10 dv=0
EndChar

StartChar: Dcaron
Encoding: 270 270 22
Width: 1200
GlyphClass: 2
Flags: W
HStem: 0 139<340 696.958> 1235 142<340 708.778>
VStem: 167 173<139 1235> 920 185<399.765 992.336>
AnchorPoint: "Anchor-1" 600 0 basechar 0
AnchorPoint: "Anchor-0" 567 1377 basechar 0
LayerCount: 2
Fore
SplineSet
820 1809 m 1
 894 1724 l 1
 625 1509 l 1
 512 1509 l 1
 241 1724 l 1
 316 1809 l 1
 567 1648 l 1
 820 1809 l 1
1105 695 m 0
 1105 118 768 0 483 0 c 2
 167 0 l 1
 167 1377 l 1
 461 1377 l 2
 783 1377 1105 1267 1105 695 c 0
920 695 m 0
 920 1175 691 1235 502 1235 c 2
 340 1235 l 1
 340 139 l 1
 504 139 l 2
 702 139 920 239 920 695 c 0
EndSplineSet
Position2: "'cpsp' Capital Spacing lookup 0 subtable" dx=5 dy=0 dh=10 dv=0
EndChar

StartChar: Dcroat
Encoding: 272 272 23
Width: 1200
GlyphClass: 2
Flags: W
HStem: 0 139<359 715.958> 639 134<41 186 359 675> 1235 142<359 727.778>
VStem: 186 173<139 639 773 1235> 939 185<399.765 992.336>
AnchorPoint: "Anchor-1" 619 0 basechar 0
AnchorPoint: "Anchor-0" 586 1377 basechar 0
LayerCount: 2
Fore
SplineSet
1124 695 m 0
 1124 118 787 0 502 0 c 2
 186 0 l 1
 186 639 l 1
 41 639 l 1
 41 773 l 1
 186 773 l 1
 186 1377 l 1
 480 1377 l 2
 802 1377 1124 1267 1124 695 c 0
675 773 m 1
 675 639 l 1
 359 639 l 1
 359 139 l 1
 523 139 l 2
 721 139 939 239 939 695 c 0
 939 1175 710 1235 521 1235 c 2
 359 1235 l 1
 359 773 l 1
 675 773 l 1
EndSplineSet
Position2: "'cpsp' Capital Spacing lookup 0 subtable" dx=5 dy=0 dh=10 dv=0
EndChar

StartChar: E
Encoding: 69 69 24
Width: 1200
GlyphClass: 2
Flags: W
HStem: 0 139<425 1051> 628 143<425 935> 1235 142<425 1013>
VStem: 251 174<139 628 771 1235>
AnchorPoint: "Anchor-1" 651 0 basechar 0
AnchorPoint: "Anchor-0" 642 1377 basechar 0
LayerCount: 2
Fore
SplineSet
425 1235 m 1
 425 771 l 1
 935 771 l 1
 935 628 l 1
 425 628 l 1
 425 139 l 1
 1051 139 l 1
 1051 0 l 1
 251 0 l 1
 251 1377 l 1
 1033 1377 l 1
 1013 1235 l 1
 425 1235 l 1
EndSplineSet
Position2: "'cpsp' Capital Spacing lookup 0 subtable" dx=5 dy=0 dh=10 dv=0
EndChar

StartChar: Eacute
Encoding: 201 201 25
Width: 1200
GlyphClass: 2
Flags: W
HStem: 0 139<425 1051> 628 143<425 935> 1235 142<425 1013>
VStem: 251 174<139 628 771 1235>
AnchorPoint: "Anchor-1" 651 0 basechar 0
AnchorPoint: "Anchor-0" 642 1377 basechar 0
LayerCount: 2
Fore
SplineSet
807 1812 m 1
 883 1668 l 1
 455 1511 l 1
 410 1601 l 1
 807 1812 l 1
425 1235 m 1
 425 771 l 1
 935 771 l 1
 935 628 l 1
 425 628 l 1
 425 139 l 1
 1051 139 l 1
 1051 0 l 1
 251 0 l 1
 251 1377 l 1
 1033 1377 l 1
 1013 1235 l 1
 425 1235 l 1
EndSplineSet
Position2: "'cpsp' Capital Spacing lookup 0 subtable" dx=5 dy=0 dh=10 dv=0
EndChar

StartChar: Ebreve
Encoding: 276 276 26
Width: 1200
GlyphClass: 2
Flags: W
HStem: 0 139<425 1051> 628 143<425 935> 1235 142<425 1013> 1517 131<516.246 762.31>
VStem: 251 174<139 628 771 1235> 343 116<1704.2 1759.02> 823 116<1710.31 1759.02>
AnchorPoint: "Anchor-1" 651 0 basechar 0
AnchorPoint: "Anchor-0" 642 1377 basechar 0
LayerCount: 2
Fore
SplineSet
638 1517 m 0xf6
 485 1517 359 1611 343 1756 c 1
 459 1781 l 1
 487 1702 543 1648 638 1648 c 0
 732 1648 795 1702 823 1781 c 1
 939 1756 l 1
 923 1611 793 1517 638 1517 c 0xf6
425 1235 m 1xfa
 425 771 l 1
 935 771 l 1
 935 628 l 1
 425 628 l 1
 425 139 l 1
 1051 139 l 1
 1051 0 l 1
 251 0 l 1
 251 1377 l 1
 1033 1377 l 1
 1013 1235 l 1
 425 1235 l 1xfa
EndSplineSet
Position2: "'cpsp' Capital Spacing lookup 0 subtable" dx=5 dy=0 dh=10 dv=0
EndChar

StartChar: Ecaron
Encoding: 282 282 27
Width: 1200
GlyphClass: 2
Flags: W
HStem: 0 139<425 1051> 628 143<425 935> 1235 142<425 1013>
VStem: 251 174<139 628 771 1235>
AnchorPoint: "Anchor-1" 651 0 basechar 0
AnchorPoint: "Anchor-0" 642 1377 basechar 0
LayerCount: 2
Fore
SplineSet
895 1809 m 1
 969 1724 l 1
 700 1509 l 1
 587 1509 l 1
 316 1724 l 1
 392 1809 l 1
 642 1648 l 1
 895 1809 l 1
425 1235 m 1
 425 771 l 1
 935 771 l 1
 935 628 l 1
 425 628 l 1
 425 139 l 1
 1051 139 l 1
 1051 0 l 1
 251 0 l 1
 251 1377 l 1
 1033 1377 l 1
 1013 1235 l 1
 425 1235 l 1
EndSplineSet
Position2: "'cpsp' Capital Spacing lookup 0 subtable" dx=5 dy=0 dh=10 dv=0
EndChar

StartChar: Ecircumflex
Encoding: 202 202 28
Width: 1200
GlyphClass: 2
Flags: W
HStem: 0 139<425 1051> 628 143<425 935> 1235 142<425 1013>
VStem: 251 174<139 628 771 1235>
AnchorPoint: "Anchor-1" 651 0 basechar 0
AnchorPoint: "Anchor-0" 642 1377 basechar 0
LayerCount: 2
Fore
SplineSet
700 1821 m 1
 969 1606 l 1
 895 1521 l 1
 642 1681 l 1
 392 1521 l 1
 316 1606 l 1
 587 1821 l 1
 700 1821 l 1
425 1235 m 1
 425 771 l 1
 935 771 l 1
 935 628 l 1
 425 628 l 1
 425 139 l 1
 1051 139 l 1
 1051 0 l 1
 251 0 l 1
 251 1377 l 1
 1033 1377 l 1
 1013 1235 l 1
 425 1235 l 1
EndSplineSet
Position2: "'cpsp' Capital Spacing lookup 0 subtable" dx=5 dy=0 dh=10 dv=0
EndChar

StartChar: Edieresis
Encoding: 203 203 29
Width: 1200
GlyphClass: 2
Flags: W
HStem: 0 139<425 1051> 628 143<425 935> 1235 142<425 1013> 1536 214<346.192 521.648 760.352 935.808>
VStem: 251 174<139 628 771 1235> 325 218<1556.34 1729.53> 739 218<1556.34 1729.53>
AnchorPoint: "Anchor-1" 651 0 basechar 0
AnchorPoint: "Anchor-0" 642 1377 basechar 0
LayerCount: 2
Fore
SplineSet
435 1536 m 0xf6
 372 1536 325 1581 325 1642 c 0
 325 1705 372 1750 435 1750 c 0
 495 1750 543 1705 543 1642 c 0
 543 1581 495 1536 435 1536 c 0xf6
847 1536 m 0
 787 1536 739 1581 739 1642 c 0
 739 1705 787 1750 847 1750 c 0
 910 1750 957 1705 957 1642 c 0
 957 1581 910 1536 847 1536 c 0
425 1235 m 1xfa
 425 771 l 1
 935 771 l 1
 935 628 l 1
 425 628 l 1
 425 139 l 1
 1051 139 l 1
 1051 0 l 1
 251 0 l 1
 251 1377 l 1
 1033 1377 l 1
 1013 1235 l 1
 425 1235 l 1xfa
EndSplineSet
Position2: "'cpsp' Capital Spacing lookup 0 subtable" dx=5 dy=0 dh=10 dv=0
EndChar

StartChar: Edotaccent
Encoding: 278 278 30
Width: 1200
GlyphClass: 2
Flags: W
HStem: 0 139<425 1051> 628 143<425 935> 1235 142<425 1013> 1548 238<544.959 737.466>
VStem: 251 174<139 628 771 1235> 519 245<1574.84 1759.32>
AnchorPoint: "Anchor-1" 651 0 basechar 0
AnchorPoint: "Anchor-0" 642 1377 basechar 0
LayerCount: 2
Fore
SplineSet
640 1786 m 0
 714 1786 764 1734 764 1668 c 0
 764 1600 714 1548 640 1548 c 0
 568 1548 519 1600 519 1668 c 0
 519 1734 568 1786 640 1786 c 0
425 1235 m 1
 425 771 l 1
 935 771 l 1
 935 628 l 1
 425 628 l 1
 425 139 l 1
 1051 139 l 1
 1051 0 l 1
 251 0 l 1
 251 1377 l 1
 1033 1377 l 1
 1013 1235 l 1
 425 1235 l 1
EndSplineSet
Position2: "'cpsp' Capital Spacing lookup 0 subtable" dx=5 dy=0 dh=10 dv=0
EndChar

StartChar: Egrave
Encoding: 200 200 31
Width: 1200
GlyphClass: 2
Flags: W
HStem: 0 139<425 1051> 628 143<425 935> 1235 142<425 1013>
VStem: 251 174<139 628 771 1235>
AnchorPoint: "Anchor-1" 651 0 basechar 0
AnchorPoint: "Anchor-0" 642 1377 basechar 0
LayerCount: 2
Fore
SplineSet
504 1819 m 1
 873 1601 l 1
 822 1511 l 1
 410 1675 l 1
 504 1819 l 1
425 1235 m 1
 425 771 l 1
 935 771 l 1
 935 628 l 1
 425 628 l 1
 425 139 l 1
 1051 139 l 1
 1051 0 l 1
 251 0 l 1
 251 1377 l 1
 1033 1377 l 1
 1013 1235 l 1
 425 1235 l 1
EndSplineSet
Position2: "'cpsp' Capital Spacing lookup 0 subtable" dx=5 dy=0 dh=10 dv=0
EndChar

StartChar: Emacron
Encoding: 274 274 32
Width: 1200
GlyphClass: 2
Flags: W
HStem: 0 139<425 1051> 628 143<425 935> 1235 142<425 1013> 1591 128<372 910>
VStem: 251 174<139 628 771 1235>
AnchorPoint: "Anchor-1" 651 0 basechar 0
AnchorPoint: "Anchor-0" 642 1377 basechar 0
LayerCount: 2
Fore
SplineSet
910 1591 m 1
 372 1591 l 1
 372 1719 l 1
 910 1719 l 1
 910 1591 l 1
425 1235 m 1
 425 771 l 1
 935 771 l 1
 935 628 l 1
 425 628 l 1
 425 139 l 1
 1051 139 l 1
 1051 0 l 1
 251 0 l 1
 251 1377 l 1
 1033 1377 l 1
 1013 1235 l 1
 425 1235 l 1
EndSplineSet
Position2: "'cpsp' Capital Spacing lookup 0 subtable" dx=5 dy=0 dh=10 dv=0
EndChar

StartChar: Eogonek
Encoding: 280 280 33
Width: 1200
GlyphClass: 2
Flags: W
HStem: -459 134<700.531 906.166> 0 139<425 744 851.049 1051> 628 143<425 935> 1235 142<425 1013>
VStem: 251 174<139 628 771 1235> 536 153<-312.23 -125.41>
AnchorPoint: "Anchor-1" 651 0 basechar 0
AnchorPoint: "Anchor-0" 642 1377 basechar 0
LayerCount: 2
Fore
SplineSet
425 1235 m 1
 425 771 l 1
 935 771 l 1
 935 628 l 1
 425 628 l 1
 425 139 l 1
 1051 139 l 1
 1051 0 l 1
 936 0 l 1
 730 -91 689 -158 689 -229 c 0
 689 -288 717 -325 800 -325 c 0
 842 -325 874 -321 924 -311 c 1
 906 -445 l 1
 866 -453 832 -459 780 -459 c 0
 628 -459 536 -373 536 -262 c 0
 536 -156 600 -69 744 0 c 1
 251 0 l 1
 251 1377 l 1
 1033 1377 l 1
 1013 1235 l 1
 425 1235 l 1
EndSplineSet
Position2: "'cpsp' Capital Spacing lookup 0 subtable" dx=5 dy=0 dh=10 dv=0
EndChar

StartChar: F
Encoding: 70 70 34
Width: 1200
GlyphClass: 2
Flags: W
HStem: 0 21G<277 449> 613 140<449 989> 1235 142<449 1067>
VStem: 277 172<0 613 753 1235>
AnchorPoint: "Anchor-1" 600 0 basechar 0
AnchorPoint: "Anchor-0" 600 1377 basechar 0
LayerCount: 2
Fore
SplineSet
449 1235 m 1
 449 753 l 1
 989 753 l 1
 989 613 l 1
 449 613 l 1
 449 0 l 1
 277 0 l 1
 277 1377 l 1
 1088 1377 l 1
 1067 1235 l 1
 449 1235 l 1
EndSplineSet
Position2: "'cpsp' Capital Spacing lookup 0 subtable" dx=5 dy=0 dh=10 dv=0
EndChar

StartChar: G
Encoding: 71 71 35
Width: 1200
GlyphClass: 2
Flags: W
HStem: -23 146<468.742 858.607> 609 144<634 905> 1254 145<500.692 856.294>
VStem: 91 186<364.421 983.137> 905 172<168.616 609>
AnchorPoint: "Anchor-1" 661 0 basechar 0
AnchorPoint: "Anchor-0" 660 1377 basechar 0
LayerCount: 2
Fore
SplineSet
627 -23 m 0
 301 -23 91 213 91 689 c 0
 91 1163 371 1399 667 1399 c 0
 847 1399 953 1347 1061 1248 c 1
 956 1139 l 1
 872 1218 781 1254 668 1254 c 0
 469 1254 277 1114 277 689 c 0
 277 289 403 123 643 123 c 0
 738 123 825 146 905 189 c 1
 905 609 l 1
 634 609 l 1
 613 753 l 1
 1077 753 l 1
 1077 97 l 1
 953 29 822 -23 627 -23 c 0
EndSplineSet
Position2: "'cpsp' Capital Spacing lookup 0 subtable" dx=5 dy=0 dh=10 dv=0
EndChar

StartChar: Gbreve
Encoding: 286 286 36
Width: 1200
GlyphClass: 2
Flags: W
HStem: -23 146<468.742 858.607> 609 144<634 905> 1254 145<500.692 856.294> 1517 131<533.582 779.863>
VStem: 91 186<364.421 983.137> 360 117<1704.2 1758.99> 841 115<1710.31 1759.04> 905 172<168.616 609>
AnchorPoint: "Anchor-1" 661 0 basechar 0
AnchorPoint: "Anchor-0" 660 1377 basechar 0
LayerCount: 2
Fore
SplineSet
655 1517 m 0xfe
 502 1517 377 1611 360 1756 c 1
 477 1781 l 1
 504 1702 561 1648 655 1648 c 0
 750 1648 812 1702 841 1781 c 1
 956 1756 l 1
 941 1611 811 1517 655 1517 c 0xfe
627 -23 m 0
 301 -23 91 213 91 689 c 0
 91 1163 371 1399 667 1399 c 0
 847 1399 953 1347 1061 1248 c 1
 956 1139 l 1xfe
 872 1218 781 1254 668 1254 c 0
 469 1254 277 1114 277 689 c 0
 277 289 403 123 643 123 c 0
 738 123 825 146 905 189 c 1
 905 609 l 1
 634 609 l 1
 613 753 l 1
 1077 753 l 1
 1077 97 l 1xfd
 953 29 822 -23 627 -23 c 0
EndSplineSet
Position2: "'cpsp' Capital Spacing lookup 0 subtable" dx=5 dy=0 dh=10 dv=0
EndChar

StartChar: Gcircumflex
Encoding: 284 284 37
Width: 1200
GlyphClass: 2
Flags: W
HStem: -23 146<468.742 858.607> 609 144<634 905> 1254 145<500.692 856.294>
VStem: 91 186<364.421 983.137> 905 172<168.616 609>
AnchorPoint: "Anchor-1" 661 0 basechar 0
AnchorPoint: "Anchor-0" 660 1377 basechar 0
LayerCount: 2
Fore
SplineSet
718 1821 m 1
 987 1606 l 1
 913 1521 l 1
 660 1681 l 1
 409 1521 l 1
 334 1606 l 1
 605 1821 l 1
 718 1821 l 1
627 -23 m 0
 301 -23 91 213 91 689 c 0
 91 1163 371 1399 667 1399 c 0
 847 1399 953 1347 1061 1248 c 1
 956 1139 l 1
 872 1218 781 1254 668 1254 c 0
 469 1254 277 1114 277 689 c 0
 277 289 403 123 643 123 c 0
 738 123 825 146 905 189 c 1
 905 609 l 1
 634 609 l 1
 613 753 l 1
 1077 753 l 1
 1077 97 l 1
 953 29 822 -23 627 -23 c 0
EndSplineSet
Position2: "'cpsp' Capital Spacing lookup 0 subtable" dx=5 dy=0 dh=10 dv=0
EndChar

StartChar: uni0122
Encoding: 290 290 38
Width: 1200
GlyphClass: 2
Flags: W
HStem: -23 146<468.742 858.607> 609 144<634 905> 1254 145<500.692 856.294>
VStem: 91 186<364.421 983.137> 559 217<-337.006 -161.697> 905 172<168.616 609>
AnchorPoint: "Anchor-1" 661 0 basechar 0
AnchorPoint: "Anchor-0" 660 1377 basechar 0
LayerCount: 2
Fore
SplineSet
627 -23 m 0
 301 -23 91 213 91 689 c 0
 91 1163 371 1399 667 1399 c 0
 847 1399 953 1347 1061 1248 c 1
 956 1139 l 1
 872 1218 781 1254 668 1254 c 0
 469 1254 277 1114 277 689 c 0
 277 289 403 123 643 123 c 0
 738 123 825 146 905 189 c 1
 905 609 l 1
 634 609 l 1
 613 753 l 1
 1077 753 l 1
 1077 97 l 1
 953 29 822 -23 627 -23 c 0
668 -141 m 0
 728 -141 776 -187 776 -248 c 0
 776 -283 768 -311 746 -358 c 2
 647 -572 l 1
 544 -572 l 1
 603 -338 l 1
 576 -317 559 -283 559 -248 c 0
 559 -187 607 -141 668 -141 c 0
EndSplineSet
Position2: "'cpsp' Capital Spacing lookup 0 subtable" dx=5 dy=0 dh=10 dv=0
EndChar

StartChar: Gdotaccent
Encoding: 288 288 39
Width: 1200
GlyphClass: 2
Flags: W
HStem: -23 146<468.742 858.607> 609 144<634 905> 1254 145<500.692 856.294> 1548 238<562.959 754.873>
VStem: 91 186<364.421 983.137> 537 244<1574.84 1759.32> 905 172<168.616 609>
AnchorPoint: "Anchor-1" 661 0 basechar 0
AnchorPoint: "Anchor-0" 660 1377 basechar 0
LayerCount: 2
Fore
SplineSet
658 1786 m 0
 732 1786 781 1734 781 1668 c 0
 781 1600 732 1548 658 1548 c 0
 586 1548 537 1600 537 1668 c 0
 537 1734 586 1786 658 1786 c 0
627 -23 m 0
 301 -23 91 213 91 689 c 0
 91 1163 371 1399 667 1399 c 0
 847 1399 953 1347 1061 1248 c 1
 956 1139 l 1
 872 1218 781 1254 668 1254 c 0
 469 1254 277 1114 277 689 c 0
 277 289 403 123 643 123 c 0
 738 123 825 146 905 189 c 1
 905 609 l 1
 634 609 l 1
 613 753 l 1
 1077 753 l 1
 1077 97 l 1
 953 29 822 -23 627 -23 c 0
EndSplineSet
Position2: "'cpsp' Capital Spacing lookup 0 subtable" dx=5 dy=0 dh=10 dv=0
EndChar

StartChar: H
Encoding: 72 72 40
Width: 1200
GlyphClass: 2
Flags: W
HStem: 0 21G<167 340 860 1033> 653 142<340 860> 1357 20G<167 340 860 1033>
VStem: 167 173<0 653 795 1377> 860 173<0 653 795 1377>
AnchorPoint: "Anchor-1" 600 0 basechar 0
AnchorPoint: "Anchor-0" 600 1377 basechar 0
LayerCount: 2
Fore
SplineSet
860 0 m 1
 860 653 l 1
 340 653 l 1
 340 0 l 1
 167 0 l 1
 167 1377 l 1
 340 1377 l 1
 340 795 l 1
 860 795 l 1
 860 1377 l 1
 1033 1377 l 1
 1033 0 l 1
 860 0 l 1
EndSplineSet
Position2: "'cpsp' Capital Spacing lookup 0 subtable" dx=5 dy=0 dh=10 dv=0
EndChar

StartChar: Hbar
Encoding: 294 294 41
Width: 1200
Flags: W
HStem: 0 21G<165 339 861 1035> 653 144<339 861> 1018 133<4 165 339 861 1035 1196> 1357 20G<165 339 861 1035>
VStem: 165 174<0 653 797 1018 1151 1377> 861 174<0 653 797 1018 1151 1377>
LayerCount: 2
Fore
SplineSet
1196 1151 m 1
 1196 1018 l 1
 1035 1018 l 1
 1035 0 l 1
 861 0 l 1
 861 653 l 1
 339 653 l 1
 339 0 l 1
 165 0 l 1
 165 1018 l 1
 4 1018 l 1
 4 1151 l 1
 165 1151 l 1
 165 1377 l 1
 339 1377 l 1
 339 1151 l 1
 861 1151 l 1
 861 1377 l 1
 1035 1377 l 1
 1035 1151 l 1
 1196 1151 l 1
339 797 m 1
 861 797 l 1
 861 1018 l 1
 339 1018 l 1
 339 797 l 1
EndSplineSet
Position2: "'cpsp' Capital Spacing lookup 0 subtable" dx=5 dy=0 dh=10 dv=0
EndChar

StartChar: Hcircumflex
Encoding: 292 292 42
Width: 1200
GlyphClass: 2
Flags: W
HStem: 0 21G<167 340 860 1033> 653 142<340 860> 1357 20G<167 340 860 1033>
VStem: 167 173<0 653 795 1377> 860 173<0 653 795 1377>
AnchorPoint: "Anchor-1" 600 0 basechar 0
AnchorPoint: "Anchor-0" 600 1377 basechar 0
LayerCount: 2
Fore
SplineSet
658 1821 m 1
 927 1606 l 1
 853 1521 l 1
 600 1681 l 1
 349 1521 l 1
 274 1606 l 1
 545 1821 l 1
 658 1821 l 1
860 0 m 1
 860 653 l 1
 340 653 l 1
 340 0 l 1
 167 0 l 1
 167 1377 l 1
 340 1377 l 1
 340 795 l 1
 860 795 l 1
 860 1377 l 1
 1033 1377 l 1
 1033 0 l 1
 860 0 l 1
EndSplineSet
Position2: "'cpsp' Capital Spacing lookup 0 subtable" dx=5 dy=0 dh=10 dv=0
EndChar

StartChar: I
Encoding: 73 73 43
Width: 1200
GlyphClass: 2
Flags: W
HStem: 0 139<206 512 688 994> 1238 139<206 512 688 994>
VStem: 512 176<139 1238>
AnchorPoint: "Anchor-1" 600 0 basechar 0
AnchorPoint: "Anchor-0" 600 1377 basechar 0
LayerCount: 2
Fore
SplineSet
994 1377 m 1
 994 1238 l 1
 688 1238 l 1
 688 139 l 1
 994 139 l 1
 994 0 l 1
 206 0 l 1
 206 139 l 1
 512 139 l 1
 512 1238 l 1
 206 1238 l 1
 206 1377 l 1
 994 1377 l 1
EndSplineSet
Position2: "'cpsp' Capital Spacing lookup 0 subtable" dx=5 dy=0 dh=10 dv=0
EndChar

StartChar: IJ
Encoding: 306 306 44
Width: 1200
Flags: W
HStem: -272 130<406.846 589.93> 0 143<23 223 401 561> 1233 144<23 223 401 890>
VStem: 223 178<143 1233> 890 175<123.687 1233>
LayerCount: 2
Fore
SplineSet
389 -142 m 1
 795 -103 890 89 890 387 c 2
 890 1233 l 1
 401 1233 l 1
 401 143 l 1
 561 143 l 1
 561 0 l 1
 23 0 l 1
 23 143 l 1
 223 143 l 1
 223 1233 l 1
 23 1233 l 1
 23 1377 l 1
 1065 1377 l 1
 1065 376 l 2
 1065 65 941 -224 409 -272 c 1
 389 -142 l 1
EndSplineSet
Position2: "'cpsp' Capital Spacing lookup 0 subtable" dx=5 dy=0 dh=10 dv=0
EndChar

StartChar: Iacute
Encoding: 205 205 45
Width: 1200
GlyphClass: 2
Flags: W
HStem: 0 139<206 512 688 994> 1238 139<206 512 688 994>
VStem: 512 176<139 1238>
AnchorPoint: "Anchor-1" 600 0 basechar 0
AnchorPoint: "Anchor-0" 600 1377 basechar 0
LayerCount: 2
Fore
SplineSet
764 1812 m 1
 840 1668 l 1
 413 1511 l 1
 368 1601 l 1
 764 1812 l 1
994 1377 m 1
 994 1238 l 1
 688 1238 l 1
 688 139 l 1
 994 139 l 1
 994 0 l 1
 206 0 l 1
 206 139 l 1
 512 139 l 1
 512 1238 l 1
 206 1238 l 1
 206 1377 l 1
 994 1377 l 1
EndSplineSet
Position2: "'cpsp' Capital Spacing lookup 0 subtable" dx=5 dy=0 dh=10 dv=0
EndChar

StartChar: Ibreve
Encoding: 300 300 46
Width: 1200
GlyphClass: 2
Flags: W
HStem: 0 139<206 512 688 994> 1238 139<206 512 688 994> 1517 131<473.582 719.863>
VStem: 300 117<1704.2 1758.99> 512 176<139 1238> 781 115<1710.31 1759.04>
AnchorPoint: "Anchor-1" 600 0 basechar 0
AnchorPoint: "Anchor-0" 600 1377 basechar 0
LayerCount: 2
Fore
SplineSet
595 1517 m 0
 442 1517 317 1611 300 1756 c 1
 417 1781 l 1
 444 1702 501 1648 595 1648 c 0
 690 1648 752 1702 781 1781 c 1
 896 1756 l 1
 881 1611 751 1517 595 1517 c 0
994 1377 m 1
 994 1238 l 1
 688 1238 l 1
 688 139 l 1
 994 139 l 1
 994 0 l 1
 206 0 l 1
 206 139 l 1
 512 139 l 1
 512 1238 l 1
 206 1238 l 1
 206 1377 l 1
 994 1377 l 1
EndSplineSet
Position2: "'cpsp' Capital Spacing lookup 0 subtable" dx=5 dy=0 dh=10 dv=0
EndChar

StartChar: Icircumflex
Encoding: 206 206 47
Width: 1200
GlyphClass: 2
Flags: W
HStem: 0 139<206 512 688 994> 1238 139<206 512 688 994>
VStem: 512 176<139 1238>
AnchorPoint: "Anchor-1" 600 0 basechar 0
AnchorPoint: "Anchor-0" 600 1377 basechar 0
LayerCount: 2
Fore
SplineSet
658 1821 m 1
 927 1606 l 1
 853 1521 l 1
 600 1681 l 1
 349 1521 l 1
 274 1606 l 1
 545 1821 l 1
 658 1821 l 1
994 1377 m 1
 994 1238 l 1
 688 1238 l 1
 688 139 l 1
 994 139 l 1
 994 0 l 1
 206 0 l 1
 206 139 l 1
 512 139 l 1
 512 1238 l 1
 206 1238 l 1
 206 1377 l 1
 994 1377 l 1
EndSplineSet
Position2: "'cpsp' Capital Spacing lookup 0 subtable" dx=5 dy=0 dh=10 dv=0
EndChar

StartChar: Idieresis
Encoding: 207 207 48
Width: 1200
GlyphClass: 2
Flags: W
HStem: 0 139<206 512 688 994> 1238 139<206 512 688 994> 1536 214<303.898 479.648 718.058 893.808>
VStem: 283 218<1556.34 1729.53> 512 176<139 1238> 697 218<1556.34 1729.53>
AnchorPoint: "Anchor-1" 600 0 basechar 0
AnchorPoint: "Anchor-0" 600 1377 basechar 0
LayerCount: 2
Fore
SplineSet
393 1536 m 0
 329 1536 283 1581 283 1642 c 0
 283 1705 329 1750 393 1750 c 0
 453 1750 501 1705 501 1642 c 0
 501 1581 453 1536 393 1536 c 0
805 1536 m 0
 744 1536 697 1581 697 1642 c 0
 697 1705 744 1750 805 1750 c 0
 868 1750 915 1705 915 1642 c 0
 915 1581 868 1536 805 1536 c 0
994 1377 m 1
 994 1238 l 1
 688 1238 l 1
 688 139 l 1
 994 139 l 1
 994 0 l 1
 206 0 l 1
 206 139 l 1
 512 139 l 1
 512 1238 l 1
 206 1238 l 1
 206 1377 l 1
 994 1377 l 1
EndSplineSet
Position2: "'cpsp' Capital Spacing lookup 0 subtable" dx=5 dy=0 dh=10 dv=0
EndChar

StartChar: Idotaccent
Encoding: 304 304 49
Width: 1200
GlyphClass: 2
Flags: W
HStem: 0 139<206 512 688 994> 1238 139<206 512 688 994> 1548 238<502.959 694.873>
VStem: 477 244<1574.84 1759.32> 512 176<139 1238>
AnchorPoint: "Anchor-1" 600 0 basechar 0
AnchorPoint: "Anchor-0" 600 1377 basechar 0
LayerCount: 2
Fore
SplineSet
598 1786 m 0xf0
 672 1786 721 1734 721 1668 c 0
 721 1600 672 1548 598 1548 c 0
 526 1548 477 1600 477 1668 c 0
 477 1734 526 1786 598 1786 c 0xf0
994 1377 m 1
 994 1238 l 1
 688 1238 l 1
 688 139 l 1
 994 139 l 1
 994 0 l 1
 206 0 l 1
 206 139 l 1
 512 139 l 1
 512 1238 l 1xe8
 206 1238 l 1
 206 1377 l 1
 994 1377 l 1
EndSplineSet
Position2: "'cpsp' Capital Spacing lookup 0 subtable" dx=5 dy=0 dh=10 dv=0
EndChar

StartChar: Igrave
Encoding: 204 204 50
Width: 1200
GlyphClass: 2
Flags: W
HStem: 0 139<206 512 688 994> 1238 139<206 512 688 994>
VStem: 512 176<139 1238>
AnchorPoint: "Anchor-1" 600 0 basechar 0
AnchorPoint: "Anchor-0" 600 1377 basechar 0
LayerCount: 2
Fore
SplineSet
462 1819 m 1
 831 1601 l 1
 780 1511 l 1
 368 1675 l 1
 462 1819 l 1
994 1377 m 1
 994 1238 l 1
 688 1238 l 1
 688 139 l 1
 994 139 l 1
 994 0 l 1
 206 0 l 1
 206 139 l 1
 512 139 l 1
 512 1238 l 1
 206 1238 l 1
 206 1377 l 1
 994 1377 l 1
EndSplineSet
Position2: "'cpsp' Capital Spacing lookup 0 subtable" dx=5 dy=0 dh=10 dv=0
EndChar

StartChar: Imacron
Encoding: 298 298 51
Width: 1200
GlyphClass: 2
Flags: W
HStem: 0 139<206 512 688 994> 1238 139<206 512 688 994> 1591 128<330 868>
VStem: 512 176<139 1238>
AnchorPoint: "Anchor-1" 600 0 basechar 0
AnchorPoint: "Anchor-0" 600 1377 basechar 0
LayerCount: 2
Fore
SplineSet
868 1591 m 1
 330 1591 l 1
 330 1719 l 1
 868 1719 l 1
 868 1591 l 1
994 1377 m 1
 994 1238 l 1
 688 1238 l 1
 688 139 l 1
 994 139 l 1
 994 0 l 1
 206 0 l 1
 206 139 l 1
 512 139 l 1
 512 1238 l 1
 206 1238 l 1
 206 1377 l 1
 994 1377 l 1
EndSplineSet
Position2: "'cpsp' Capital Spacing lookup 0 subtable" dx=5 dy=0 dh=10 dv=0
EndChar

StartChar: Iogonek
Encoding: 302 302 52
Width: 1200
GlyphClass: 2
Flags: W
HStem: -459 134<451.577 658.019> 0 139<206 496 688 994> 1238 139<206 512 688 994>
VStem: 288 152<-312.23 -125.41> 512 176<139 1238>
AnchorPoint: "Anchor-1" 600 0 basechar 0
AnchorPoint: "Anchor-0" 600 1377 basechar 0
LayerCount: 2
Fore
SplineSet
994 1377 m 1
 994 1238 l 1
 688 1238 l 1
 688 139 l 1
 994 139 l 1
 994 0 l 1
 688 0 l 1
 482 -91 440 -158 440 -229 c 0
 440 -288 468 -325 551 -325 c 0
 593 -325 625 -321 676 -311 c 1
 658 -445 l 1
 618 -453 583 -459 531 -459 c 0
 379 -459 288 -373 288 -262 c 0
 288 -156 352 -69 496 0 c 1
 206 0 l 1
 206 139 l 1
 512 139 l 1
 512 1238 l 1
 206 1238 l 1
 206 1377 l 1
 994 1377 l 1
EndSplineSet
Position2: "'cpsp' Capital Spacing lookup 0 subtable" dx=5 dy=0 dh=10 dv=0
EndChar

StartChar: Itilde
Encoding: 296 296 53
Width: 1200
GlyphClass: 2
Flags: W
HStem: 0 139<206 512 688 994> 1238 139<206 512 688 994> 1556 130<621.926 791.039> 1653 130<409.035 580.623>
VStem: 512 176<139 1238>
AnchorPoint: "Anchor-1" 600 0 basechar 0
AnchorPoint: "Anchor-0" 600 1377 basechar 0
LayerCount: 2
Fore
SplineSet
717 1556 m 0xe8
 611 1556 557 1653 484 1653 c 0
 439 1653 410 1621 378 1560 c 1
 271 1614 l 1
 317 1708 387 1783 485 1783 c 0xd8
 595 1783 642 1686 717 1686 c 0
 756 1686 787 1714 823 1774 c 1
 929 1721 l 1
 877 1609 803 1556 717 1556 c 0xe8
994 1377 m 1
 994 1238 l 1
 688 1238 l 1
 688 139 l 1
 994 139 l 1
 994 0 l 1
 206 0 l 1
 206 139 l 1
 512 139 l 1
 512 1238 l 1
 206 1238 l 1
 206 1377 l 1
 994 1377 l 1
EndSplineSet
Position2: "'cpsp' Capital Spacing lookup 0 subtable" dx=5 dy=0 dh=10 dv=0
EndChar

StartChar: J
Encoding: 74 74 54
Width: 1200
GlyphClass: 2
Flags: W
HStem: -23 145<317.715 678.149> 1235 142<412 820>
VStem: 820 173<274.546 1235>
AnchorPoint: "Anchor-1" 600 0 basechar 0
AnchorPoint: "Anchor-0" 699 1377 basechar 0
LayerCount: 2
Fore
SplineSet
993 1377 m 1
 993 457 l 2
 993 227 886 -23 523 -23 c 0
 387 -23 254 20 145 102 c 1
 222 217 l 1
 341 141 439 122 521 122 c 0
 712 122 820 253 820 467 c 2
 820 1235 l 1
 412 1235 l 1
 412 1377 l 1
 993 1377 l 1
EndSplineSet
Position2: "'cpsp' Capital Spacing lookup 0 subtable" dx=5 dy=0 dh=10 dv=0
EndChar

StartChar: Jcircumflex
Encoding: 308 308 55
Width: 1200
GlyphClass: 2
Flags: W
HStem: -23 145<317.715 678.149> 1235 142<412 820>
VStem: 820 173<274.546 1235>
AnchorPoint: "Anchor-1" 600 0 basechar 0
AnchorPoint: "Anchor-0" 699 1377 basechar 0
LayerCount: 2
Fore
SplineSet
757 1821 m 1
 1026 1606 l 1
 952 1521 l 1
 699 1681 l 1
 449 1521 l 1
 373 1606 l 1
 644 1821 l 1
 757 1821 l 1
993 1377 m 1
 993 457 l 2
 993 227 886 -23 523 -23 c 0
 387 -23 254 20 145 102 c 1
 222 217 l 1
 341 141 439 122 521 122 c 0
 712 122 820 253 820 467 c 2
 820 1235 l 1
 412 1235 l 1
 412 1377 l 1
 993 1377 l 1
EndSplineSet
Position2: "'cpsp' Capital Spacing lookup 0 subtable" dx=5 dy=0 dh=10 dv=0
EndChar

StartChar: K
Encoding: 75 75 56
Width: 1200
GlyphClass: 2
Flags: W
HStem: 0 21G<210 383 941.653 1173> 1357 20G<210 383 918.115 1135>
VStem: 210 173<0 1377>
AnchorPoint: "Anchor-1" 645 0 basechar 0
AnchorPoint: "Anchor-0" 653 1377 basechar 0
LayerCount: 2
Fore
SplineSet
383 0 m 1
 210 0 l 1
 210 1377 l 1
 383 1377 l 1
 383 0 l 1
393 735 m 1
 935 1377 l 1
 1135 1377 l 1
 597 746 l 1
 1173 0 l 1
 957 0 l 1
 393 735 l 1
EndSplineSet
Position2: "'cpsp' Capital Spacing lookup 0 subtable" dx=5 dy=0 dh=10 dv=0
EndChar

StartChar: uni0136
Encoding: 310 310 57
Width: 1200
GlyphClass: 2
Flags: W
HStem: 0 21G<210 383 941.653 1173> 1357 20G<210 383 918.115 1135>
VStem: 210 173<0 1377> 543 217<-337.006 -161.697>
AnchorPoint: "Anchor-1" 645 0 basechar 0
AnchorPoint: "Anchor-0" 653 1377 basechar 0
LayerCount: 2
Fore
SplineSet
383 0 m 1
 210 0 l 1
 210 1377 l 1
 383 1377 l 1
 383 0 l 1
393 735 m 1
 935 1377 l 1
 1135 1377 l 1
 597 746 l 1
 1173 0 l 1
 957 0 l 1
 393 735 l 1
652 -141 m 0
 712 -141 760 -187 760 -248 c 0
 760 -283 751 -311 730 -358 c 2
 630 -572 l 1
 528 -572 l 1
 586 -338 l 1
 560 -317 543 -283 543 -248 c 0
 543 -187 591 -141 652 -141 c 0
EndSplineSet
Position2: "'cpsp' Capital Spacing lookup 0 subtable" dx=5 dy=0 dh=10 dv=0
EndChar

StartChar: L
Encoding: 76 76 58
Width: 1200
GlyphClass: 2
Flags: W
HStem: 0 155<445 1053> 1357 20G<271 445>
VStem: 271 174<155 1377>
AnchorPoint: "Anchor-1" 663 0 basechar 0
AnchorPoint: "Anchor-0" 359 1377 basechar 0
LayerCount: 2
Fore
SplineSet
271 0 m 1
 271 1377 l 1
 445 1377 l 1
 445 155 l 1
 1073 155 l 1
 1053 0 l 1
 271 0 l 1
EndSplineSet
Position2: "'cpsp' Capital Spacing lookup 0 subtable" dx=5 dy=0 dh=10 dv=0
EndChar

StartChar: Lacute
Encoding: 313 313 59
Width: 1200
GlyphClass: 2
Flags: W
HStem: 0 155<445 1053> 1357 20G<271 445>
VStem: 271 174<155 1377>
AnchorPoint: "Anchor-1" 663 0 basechar 0
AnchorPoint: "Anchor-0" 359 1377 basechar 0
LayerCount: 2
Fore
SplineSet
524 1812 m 1
 600 1668 l 1
 172 1511 l 1
 127 1601 l 1
 524 1812 l 1
271 0 m 1
 271 1377 l 1
 445 1377 l 1
 445 155 l 1
 1073 155 l 1
 1053 0 l 1
 271 0 l 1
EndSplineSet
Position2: "'cpsp' Capital Spacing lookup 0 subtable" dx=5 dy=0 dh=10 dv=0
EndChar

StartChar: Lcaron
Encoding: 317 317 60
Width: 1200
GlyphClass: 2
Flags: W
HStem: 0 155<445 1053> 1374 3G<271 445 611.341 767>
VStem: 271 174<155 1377>
AnchorPoint: "Anchor-1" 663 0 basechar 0
AnchorPoint: "Anchor-0" 359 1377 basechar 0
LayerCount: 2
Fore
SplineSet
614 1394 m 1
 767 1376 l 1
 660 1019 l 1
 566 1033 l 1
 614 1394 l 1
271 0 m 1
 271 1377 l 1
 445 1377 l 1
 445 155 l 1
 1073 155 l 1
 1053 0 l 1
 271 0 l 1
EndSplineSet
Position2: "'cpsp' Capital Spacing lookup 0 subtable" dx=5 dy=0 dh=10 dv=0
EndChar

StartChar: uni013B
Encoding: 315 315 61
Width: 1200
GlyphClass: 2
Flags: W
HStem: 0 155<445 1053> 1357 20G<271 445>
VStem: 271 174<155 1377> 560 218<-337.006 -161.697>
AnchorPoint: "Anchor-1" 663 0 basechar 0
AnchorPoint: "Anchor-0" 359 1377 basechar 0
LayerCount: 2
Fore
SplineSet
271 0 m 1
 271 1377 l 1
 445 1377 l 1
 445 155 l 1
 1073 155 l 1
 1053 0 l 1
 271 0 l 1
669 -141 m 0
 730 -141 778 -187 778 -248 c 0
 778 -283 769 -311 748 -358 c 2
 648 -572 l 1
 546 -572 l 1
 604 -338 l 1
 578 -317 560 -283 560 -248 c 0
 560 -187 608 -141 669 -141 c 0
EndSplineSet
Position2: "'cpsp' Capital Spacing lookup 0 subtable" dx=5 dy=0 dh=10 dv=0
EndChar

StartChar: Ldot
Encoding: 319 319 62
Width: 1200
GlyphClass: 2
Flags: W
HStem: 0 155<445 1053> 637 238<847.959 1039.87> 1357 20G<271 445>
VStem: 271 174<155 1377> 822 244<663.928 848.406>
AnchorPoint: "Anchor-1" 663 0 basechar 0
AnchorPoint: "Anchor-0" 359 1377 basechar 0
LayerCount: 2
Fore
SplineSet
271 0 m 1
 271 1377 l 1
 445 1377 l 1
 445 155 l 1
 1073 155 l 1
 1053 0 l 1
 271 0 l 1
943 875 m 0
 1017 875 1066 823 1066 758 c 0
 1066 689 1017 637 943 637 c 0
 871 637 822 689 822 758 c 0
 822 823 871 875 943 875 c 0
EndSplineSet
Ligature2: "Ligature Substitution lookup 26 subtable" L periodcentered
Position2: "'cpsp' Capital Spacing lookup 0 subtable" dx=5 dy=0 dh=10 dv=0
EndChar

StartChar: Lslash
Encoding: 321 321 63
Width: 1200
GlyphClass: 2
Flags: W
HStem: 0 155<441 1050> 1357 20G<267 441>
VStem: 267 174<155 536 801 1377>
AnchorPoint: "Anchor-1" 659 0 basechar 0
AnchorPoint: "Anchor-0" 356 1377 basechar 0
LayerCount: 2
Fore
SplineSet
267 0 m 1
 267 536 l 1
 153 465 l 1
 81 578 l 1
 267 694 l 1
 267 1377 l 1
 441 1377 l 1
 441 801 l 1
 769 1005 l 1
 844 893 l 1
 441 644 l 1
 441 155 l 1
 1070 155 l 1
 1050 0 l 1
 267 0 l 1
EndSplineSet
Position2: "'cpsp' Capital Spacing lookup 0 subtable" dx=5 dy=0 dh=10 dv=0
EndChar

StartChar: M
Encoding: 77 77 64
Width: 1200
GlyphClass: 2
Flags: W
HStem: 0 21G<61 225.026 970.804 1139> 1357 20G<137.867 385.73 812.483 1062.13>
AnchorPoint: "Anchor-1" 600 0 basechar 0
AnchorPoint: "Anchor-0" 600 1377 basechar 0
LayerCount: 2
Fore
SplineSet
1061 1377 m 1
 1139 0 l 1
 972 0 l 1
 929 719 l 2
 918 911 917 1139 918 1218 c 1
 686 247 l 1
 512 247 l 1
 263 1218 l 1
 266 1141 269 893 261 721 c 2
 224 0 l 1
 61 0 l 1
 139 1377 l 1
 381 1377 l 1
 604 434 l 1
 817 1377 l 1
 1061 1377 l 1
EndSplineSet
Position2: "'cpsp' Capital Spacing lookup 0 subtable" dx=5 dy=0 dh=10 dv=0
EndChar

StartChar: N
Encoding: 78 78 65
Width: 1200
GlyphClass: 2
Flags: W
HStem: 0 21G<167 328 781.99 1033> 1357 20G<167 410.109 872 1033>
VStem: 167 161<0 1180.12> 167 138<740.456 1211> 872 161<194.449 1377> 895 138<161 630.417>
AnchorPoint: "Anchor-1" 600 0 basechar 0
AnchorPoint: "Anchor-0" 597 1377 basechar 0
LayerCount: 2
Fore
SplineSet
790 0 m 1xc4
 305 1211 l 1xd4
 307 1151 328 903 328 690 c 2
 328 0 l 1
 167 0 l 1xe0
 167 1377 l 1
 402 1377 l 1
 895 161 l 1xd4
 893 218 872 440 872 688 c 2
 872 1377 l 1
 1033 1377 l 1xc8
 1033 0 l 1
 790 0 l 1xc4
EndSplineSet
Position2: "'cpsp' Capital Spacing lookup 0 subtable" dx=5 dy=0 dh=10 dv=0
EndChar

StartChar: Nacute
Encoding: 323 323 66
Width: 1200
GlyphClass: 2
Flags: W
HStem: 0 21G<167 328 781.99 1033> 1357 20G<167 410.109 872 1033>
VStem: 167 161<0 1180.12> 167 138<740.456 1211> 872 161<194.449 1377> 895 138<161 630.417>
AnchorPoint: "Anchor-1" 600 0 basechar 0
AnchorPoint: "Anchor-0" 597 1377 basechar 0
LayerCount: 2
Fore
SplineSet
762 1812 m 1xc0
 838 1668 l 1
 411 1511 l 1
 366 1601 l 1
 762 1812 l 1xc0
790 0 m 1
 305 1211 l 1xd4
 307 1151 328 903 328 690 c 2
 328 0 l 1
 167 0 l 1xe0
 167 1377 l 1
 402 1377 l 1
 895 161 l 1xd4
 893 218 872 440 872 688 c 2
 872 1377 l 1
 1033 1377 l 1xc8
 1033 0 l 1xc4
 790 0 l 1
EndSplineSet
Substitution2: "'locl' Localized Forms in Latin lookup 22 subtable" Nacute.loclPLK
Substitution2: "'aalt' Access All Alternates lookup 0 subtable" Nacute.loclPLK
Position2: "'cpsp' Capital Spacing lookup 0 subtable" dx=5 dy=0 dh=10 dv=0
EndChar

StartChar: Ncaron
Encoding: 327 327 67
Width: 1200
GlyphClass: 2
Flags: W
HStem: 0 21G<167 328 781.99 1033> 1357 20G<167 410.109 872 1033>
VStem: 167 161<0 1180.12> 167 138<740.456 1211> 872 161<194.449 1377> 895 138<161 630.417>
AnchorPoint: "Anchor-1" 600 0 basechar 0
AnchorPoint: "Anchor-0" 597 1377 basechar 0
LayerCount: 2
Fore
SplineSet
850 1809 m 1xc0
 924 1724 l 1
 655 1509 l 1
 542 1509 l 1
 271 1724 l 1
 347 1809 l 1
 597 1648 l 1
 850 1809 l 1xc0
790 0 m 1
 305 1211 l 1xd4
 307 1151 328 903 328 690 c 2
 328 0 l 1
 167 0 l 1xe0
 167 1377 l 1
 402 1377 l 1
 895 161 l 1xd4
 893 218 872 440 872 688 c 2
 872 1377 l 1
 1033 1377 l 1xc8
 1033 0 l 1xc4
 790 0 l 1
EndSplineSet
Position2: "'cpsp' Capital Spacing lookup 0 subtable" dx=5 dy=0 dh=10 dv=0
EndChar

StartChar: uni0145
Encoding: 325 325 68
Width: 1200
GlyphClass: 2
Flags: W
HStem: 0 21G<167 328 781.99 1033> 1357 20G<167 410.109 872 1033>
VStem: 167 161<0 1180.12> 167 138<740.456 1211> 498 217<-337.006 -161.697> 872 161<194.449 1377> 895 138<161 630.417>
AnchorPoint: "Anchor-1" 600 0 basechar 0
AnchorPoint: "Anchor-0" 597 1377 basechar 0
LayerCount: 2
Fore
SplineSet
790 0 m 1xca
 305 1211 l 1xda
 307 1151 328 903 328 690 c 2
 328 0 l 1
 167 0 l 1xe8
 167 1377 l 1
 402 1377 l 1
 895 161 l 1xda
 893 218 872 440 872 688 c 2
 872 1377 l 1
 1033 1377 l 1xcc
 1033 0 l 1
 790 0 l 1xca
607 -141 m 0
 667 -141 715 -187 715 -248 c 0
 715 -283 706 -311 685 -358 c 2
 585 -572 l 1
 483 -572 l 1
 541 -338 l 1
 515 -317 498 -283 498 -248 c 0
 498 -187 546 -141 607 -141 c 0
EndSplineSet
Position2: "'cpsp' Capital Spacing lookup 0 subtable" dx=5 dy=0 dh=10 dv=0
EndChar

StartChar: Eng
Encoding: 330 330 69
Width: 1200
GlyphClass: 2
Flags: W
HStem: -425 142<589.914 830.471> 0 21G<167 328> 1357 20G<167 410.109 872 1033>
VStem: 167 161<0 1180.12> 167 138<740.456 1211> 872 161<-240.941 0 194.449 1377> 895 138<161 630.417>
AnchorPoint: "Anchor-1" 600 0 basechar 0
AnchorPoint: "Anchor-0" 597 1377 basechar 0
LayerCount: 2
Fore
SplineSet
790 0 m 1xe4
 305 1211 l 1xec
 307 1151 328 903 328 690 c 2
 328 0 l 1
 167 0 l 1xf0
 167 1377 l 1
 402 1377 l 1
 895 161 l 1xea
 893 218 872 440 872 688 c 2
 872 1377 l 1
 1033 1377 l 1
 1033 -123 l 2
 1033 -325 918 -425 743 -425 c 0
 639 -425 566 -387 518 -351 c 1
 584 -236 l 1
 631 -265 668 -283 736 -283 c 0
 815 -283 860 -236 860 -133 c 2
 860 0 l 1
 790 0 l 1xe4
EndSplineSet
Position2: "'cpsp' Capital Spacing lookup 0 subtable" dx=5 dy=0 dh=10 dv=0
EndChar

StartChar: Ntilde
Encoding: 209 209 70
Width: 1200
GlyphClass: 2
Flags: W
HStem: 0 21G<167 328 781.99 1033> 1357 20G<167 410.109 872 1033> 1556 130<619.324 788.526> 1653 130<406.046 578.02>
VStem: 167 161<0 1180.12> 167 138<740.456 1211> 872 161<194.449 1377> 895 138<161 630.417>
AnchorPoint: "Anchor-1" 600 0 basechar 0
AnchorPoint: "Anchor-0" 597 1377 basechar 0
LayerCount: 2
Fore
SplineSet
714 1556 m 0xe0
 609 1556 554 1653 481 1653 c 0
 436 1653 407 1621 375 1560 c 1
 269 1614 l 1
 314 1708 384 1783 482 1783 c 0xd0
 593 1783 639 1686 714 1686 c 0
 754 1686 784 1714 821 1774 c 1
 926 1721 l 1
 874 1609 801 1556 714 1556 c 0xe0
790 0 m 1
 305 1211 l 1xc5
 307 1151 328 903 328 690 c 2
 328 0 l 1
 167 0 l 1xc8
 167 1377 l 1
 402 1377 l 1
 895 161 l 1xc5
 893 218 872 440 872 688 c 2
 872 1377 l 1
 1033 1377 l 1xc2
 1033 0 l 1xc1
 790 0 l 1
EndSplineSet
Position2: "'cpsp' Capital Spacing lookup 0 subtable" dx=5 dy=0 dh=10 dv=0
EndChar

StartChar: O
Encoding: 79 79 71
Width: 1200
GlyphClass: 2
Flags: W
HStem: -23 146<444.01 757.279> 1254 145<442.721 757.279>
VStem: 93 182<359.921 1009.95> 925 182<363.177 1013.2>
AnchorPoint: "Anchor-1" 600 0 basechar 0
AnchorPoint: "Anchor-0" 600 1377 basechar 0
LayerCount: 2
Fore
SplineSet
1107 687 m 0
 1107 269 935 -23 600 -23 c 0
 265 -23 93 259 93 685 c 0
 93 1103 265 1399 600 1399 c 0
 935 1399 1107 1113 1107 687 c 0
925 687 m 0
 925 1054 832 1254 600 1254 c 0
 368 1254 275 1052 275 685 c 0
 275 318 374 123 600 123 c 0
 832 123 925 320 925 687 c 0
EndSplineSet
Substitution2: "Single Substitution lookup 12 subtable" ordmasculine
Substitution2: "'aalt' Access All Alternates lookup 0 subtable" ordmasculine
Position2: "'cpsp' Capital Spacing lookup 0 subtable" dx=5 dy=0 dh=10 dv=0
EndChar

StartChar: Oacute
Encoding: 211 211 72
Width: 1200
GlyphClass: 2
Flags: W
HStem: -23 146<444.01 757.279> 1254 145<442.721 757.279>
VStem: 93 182<359.921 1009.95> 925 182<363.177 1013.2>
AnchorPoint: "Anchor-1" 600 0 basechar 0
AnchorPoint: "Anchor-0" 600 1377 basechar 0
LayerCount: 2
Fore
SplineSet
764 1812 m 1
 840 1668 l 1
 413 1511 l 1
 368 1601 l 1
 764 1812 l 1
1107 687 m 0
 1107 269 935 -23 600 -23 c 0
 265 -23 93 259 93 685 c 0
 93 1103 265 1399 600 1399 c 0
 935 1399 1107 1113 1107 687 c 0
925 687 m 0
 925 1054 832 1254 600 1254 c 0
 368 1254 275 1052 275 685 c 0
 275 318 374 123 600 123 c 0
 832 123 925 320 925 687 c 0
EndSplineSet
Substitution2: "'locl' Localized Forms in Latin lookup 22 subtable" Oacute.loclPLK
Substitution2: "'aalt' Access All Alternates lookup 0 subtable" Oacute.loclPLK
Position2: "'cpsp' Capital Spacing lookup 0 subtable" dx=5 dy=0 dh=10 dv=0
EndChar

StartChar: Obreve
Encoding: 334 334 73
Width: 1200
GlyphClass: 2
Flags: W
HStem: -23 146<444.01 757.279> 1254 145<442.721 757.279> 1517 131<473.582 719.863>
VStem: 93 182<359.921 1009.95> 300 117<1704.2 1758.99> 781 115<1710.31 1759.04> 925 182<363.177 1013.2>
AnchorPoint: "Anchor-1" 600 0 basechar 0
AnchorPoint: "Anchor-0" 600 1377 basechar 0
LayerCount: 2
Fore
SplineSet
595 1517 m 0
 442 1517 317 1611 300 1756 c 1
 417 1781 l 1
 444 1702 501 1648 595 1648 c 0
 690 1648 752 1702 781 1781 c 1
 896 1756 l 1
 881 1611 751 1517 595 1517 c 0
1107 687 m 0
 1107 269 935 -23 600 -23 c 0
 265 -23 93 259 93 685 c 0
 93 1103 265 1399 600 1399 c 0
 935 1399 1107 1113 1107 687 c 0
925 687 m 0
 925 1054 832 1254 600 1254 c 0
 368 1254 275 1052 275 685 c 0
 275 318 374 123 600 123 c 0
 832 123 925 320 925 687 c 0
EndSplineSet
Position2: "'cpsp' Capital Spacing lookup 0 subtable" dx=5 dy=0 dh=10 dv=0
EndChar

StartChar: Ocircumflex
Encoding: 212 212 74
Width: 1200
GlyphClass: 2
Flags: W
HStem: -23 146<444.01 757.279> 1254 145<442.721 757.279>
VStem: 93 182<359.921 1009.95> 925 182<363.177 1013.2>
AnchorPoint: "Anchor-1" 600 0 basechar 0
AnchorPoint: "Anchor-0" 600 1377 basechar 0
LayerCount: 2
Fore
SplineSet
658 1821 m 1
 927 1606 l 1
 853 1521 l 1
 600 1681 l 1
 349 1521 l 1
 274 1606 l 1
 545 1821 l 1
 658 1821 l 1
1107 687 m 0
 1107 269 935 -23 600 -23 c 0
 265 -23 93 259 93 685 c 0
 93 1103 265 1399 600 1399 c 0
 935 1399 1107 1113 1107 687 c 0
925 687 m 0
 925 1054 832 1254 600 1254 c 0
 368 1254 275 1052 275 685 c 0
 275 318 374 123 600 123 c 0
 832 123 925 320 925 687 c 0
EndSplineSet
Position2: "'cpsp' Capital Spacing lookup 0 subtable" dx=5 dy=0 dh=10 dv=0
EndChar

StartChar: Odieresis
Encoding: 214 214 75
Width: 1200
GlyphClass: 2
Flags: W
HStem: -23 146<444.01 757.279> 1254 145<442.721 757.279> 1536 214<303.898 479.648 718.058 893.808>
VStem: 93 182<359.921 1009.95> 283 218<1556.34 1729.53> 697 218<1556.34 1729.53> 925 182<363.177 1013.2>
AnchorPoint: "Anchor-1" 600 0 basechar 0
AnchorPoint: "Anchor-0" 600 1377 basechar 0
LayerCount: 2
Fore
SplineSet
393 1536 m 0
 329 1536 283 1581 283 1642 c 0
 283 1705 329 1750 393 1750 c 0
 453 1750 501 1705 501 1642 c 0
 501 1581 453 1536 393 1536 c 0
805 1536 m 0
 744 1536 697 1581 697 1642 c 0
 697 1705 744 1750 805 1750 c 0
 868 1750 915 1705 915 1642 c 0
 915 1581 868 1536 805 1536 c 0
1107 687 m 0
 1107 269 935 -23 600 -23 c 0
 265 -23 93 259 93 685 c 0
 93 1103 265 1399 600 1399 c 0
 935 1399 1107 1113 1107 687 c 0
925 687 m 0
 925 1054 832 1254 600 1254 c 0
 368 1254 275 1052 275 685 c 0
 275 318 374 123 600 123 c 0
 832 123 925 320 925 687 c 0
EndSplineSet
Position2: "'cpsp' Capital Spacing lookup 0 subtable" dx=5 dy=0 dh=10 dv=0
EndChar

StartChar: Ograve
Encoding: 210 210 76
Width: 1200
GlyphClass: 2
Flags: W
HStem: -23 146<444.01 757.279> 1254 145<442.721 757.279>
VStem: 93 182<359.921 1009.95> 925 182<363.177 1013.2>
AnchorPoint: "Anchor-1" 600 0 basechar 0
AnchorPoint: "Anchor-0" 600 1377 basechar 0
LayerCount: 2
Fore
SplineSet
462 1819 m 1
 831 1601 l 1
 780 1511 l 1
 368 1675 l 1
 462 1819 l 1
1107 687 m 0
 1107 269 935 -23 600 -23 c 0
 265 -23 93 259 93 685 c 0
 93 1103 265 1399 600 1399 c 0
 935 1399 1107 1113 1107 687 c 0
925 687 m 0
 925 1054 832 1254 600 1254 c 0
 368 1254 275 1052 275 685 c 0
 275 318 374 123 600 123 c 0
 832 123 925 320 925 687 c 0
EndSplineSet
Position2: "'cpsp' Capital Spacing lookup 0 subtable" dx=5 dy=0 dh=10 dv=0
EndChar

StartChar: Ohungarumlaut
Encoding: 336 336 77
Width: 1200
GlyphClass: 2
Flags: W
HStem: -23 146<444.01 757.279> 1254 145<442.721 757.279>
VStem: 93 182<359.921 1009.95> 925 182<363.177 1013.2>
AnchorPoint: "Anchor-1" 600 0 basechar 0
AnchorPoint: "Anchor-0" 600 1377 basechar 0
LayerCount: 2
Fore
SplineSet
366 1564 m 1
 521 1910 l 1
 669 1840 l 1
 475 1512 l 1
 366 1564 l 1
693 1563 m 1
 869 1910 l 1
 1015 1833 l 1
 799 1507 l 1
 693 1563 l 1
1107 687 m 0
 1107 269 935 -23 600 -23 c 0
 265 -23 93 259 93 685 c 0
 93 1103 265 1399 600 1399 c 0
 935 1399 1107 1113 1107 687 c 0
925 687 m 0
 925 1054 832 1254 600 1254 c 0
 368 1254 275 1052 275 685 c 0
 275 318 374 123 600 123 c 0
 832 123 925 320 925 687 c 0
EndSplineSet
Position2: "'cpsp' Capital Spacing lookup 0 subtable" dx=5 dy=0 dh=10 dv=0
EndChar

StartChar: Omacron
Encoding: 332 332 78
Width: 1200
GlyphClass: 2
Flags: W
HStem: -23 146<444.01 757.279> 1254 145<442.721 757.279> 1591 128<330 868>
VStem: 93 182<359.921 1009.95> 925 182<363.177 1013.2>
AnchorPoint: "Anchor-1" 600 0 basechar 0
AnchorPoint: "Anchor-0" 600 1377 basechar 0
LayerCount: 2
Fore
SplineSet
868 1591 m 1
 330 1591 l 1
 330 1719 l 1
 868 1719 l 1
 868 1591 l 1
1107 687 m 0
 1107 269 935 -23 600 -23 c 0
 265 -23 93 259 93 685 c 0
 93 1103 265 1399 600 1399 c 0
 935 1399 1107 1113 1107 687 c 0
925 687 m 0
 925 1054 832 1254 600 1254 c 0
 368 1254 275 1052 275 685 c 0
 275 318 374 123 600 123 c 0
 832 123 925 320 925 687 c 0
EndSplineSet
Position2: "'cpsp' Capital Spacing lookup 0 subtable" dx=5 dy=0 dh=10 dv=0
EndChar

StartChar: Oslash
Encoding: 216 216 79
Width: 1200
GlyphClass: 2
Flags: W
HStem: -23 147<503.399 756.977> 1253 146<443.023 696.064>
VStem: 93 183<354.449 1009.58> 924 183<363.546 1016.5>
AnchorPoint: "Anchor-1" 600 0 basechar 0
AnchorPoint: "Anchor-0" 600 1377 basechar 0
LayerCount: 2
Fore
SplineSet
600 1399 m 0
 646 1399 689 1394 729 1383 c 1
 793 1606 l 1
 944 1567 l 1
 867 1319 l 1
 1026 1205 1107 979 1107 687 c 0
 1107 269 935 -23 600 -23 c 0
 555 -23 513 -18 473 -8 c 1
 409 -220 l 1
 259 -181 l 1
 333 56 l 1
 175 169 93 393 93 685 c 0
 93 1103 265 1399 600 1399 c 0
600 1253 m 0
 369 1253 276 1051 276 685 c 0
 276 432 314 277 395 196 c 1
 697 1241 l 1
 668 1249 636 1253 600 1253 c 0
924 687 m 0
 924 944 888 1100 804 1182 c 1
 502 136 l 1
 532 127 564 124 600 124 c 0
 831 124 924 321 924 687 c 0
EndSplineSet
Position2: "'cpsp' Capital Spacing lookup 0 subtable" dx=5 dy=0 dh=10 dv=0
EndChar

StartChar: Oslashacute
Encoding: 510 510 80
Width: 1200
GlyphClass: 2
Flags: W
HStem: -23 147<503.399 756.977> 1253 146<443.023 696.064>
VStem: 93 183<354.449 1009.58> 924 183<363.546 1016.5>
AnchorPoint: "Anchor-1" 600 0 basechar 0
AnchorPoint: "Anchor-0" 600 1377 basechar 0
LayerCount: 2
Fore
SplineSet
764 1812 m 1
 840 1668 l 1
 413 1511 l 1
 368 1601 l 1
 764 1812 l 1
600 1399 m 0
 646 1399 689 1394 729 1383 c 1
 793 1606 l 1
 944 1567 l 1
 867 1319 l 1
 1026 1205 1107 979 1107 687 c 0
 1107 269 935 -23 600 -23 c 0
 555 -23 513 -18 473 -8 c 1
 409 -220 l 1
 259 -181 l 1
 333 56 l 1
 175 169 93 393 93 685 c 0
 93 1103 265 1399 600 1399 c 0
600 1253 m 0
 369 1253 276 1051 276 685 c 0
 276 432 314 277 395 196 c 1
 697 1241 l 1
 668 1249 636 1253 600 1253 c 0
924 687 m 0
 924 944 888 1100 804 1182 c 1
 502 136 l 1
 532 127 564 124 600 124 c 0
 831 124 924 321 924 687 c 0
EndSplineSet
Position2: "'cpsp' Capital Spacing lookup 0 subtable" dx=5 dy=0 dh=10 dv=0
EndChar

StartChar: Otilde
Encoding: 213 213 81
Width: 1200
GlyphClass: 2
Flags: W
HStem: -23 146<444.01 757.279> 1254 145<442.721 757.279> 1556 130<621.926 791.039> 1653 130<409.035 580.623>
VStem: 93 182<359.921 1009.95> 925 182<363.177 1013.2>
AnchorPoint: "Anchor-1" 600 0 basechar 0
AnchorPoint: "Anchor-0" 600 1377 basechar 0
LayerCount: 2
Fore
SplineSet
717 1556 m 0xec
 611 1556 557 1653 484 1653 c 0
 439 1653 410 1621 378 1560 c 1
 271 1614 l 1
 317 1708 387 1783 485 1783 c 0xdc
 595 1783 642 1686 717 1686 c 0
 756 1686 787 1714 823 1774 c 1
 929 1721 l 1
 877 1609 803 1556 717 1556 c 0xec
1107 687 m 0
 1107 269 935 -23 600 -23 c 0
 265 -23 93 259 93 685 c 0
 93 1103 265 1399 600 1399 c 0
 935 1399 1107 1113 1107 687 c 0
925 687 m 0
 925 1054 832 1254 600 1254 c 0
 368 1254 275 1052 275 685 c 0
 275 318 374 123 600 123 c 0
 832 123 925 320 925 687 c 0
EndSplineSet
Position2: "'cpsp' Capital Spacing lookup 0 subtable" dx=5 dy=0 dh=10 dv=0
EndChar

StartChar: OE
Encoding: 338 338 82
Width: 1200
GlyphClass: 2
Flags: W
HStem: -23 142<309.64 545.344> 0 141<701 1235> 628 141<838 1145> 1236 141<709 1196> 1257 142<308.644 546.571>
VStem: -3 186<309.387 1055.76> 667 171<327.984 628 769 1057.52>
AnchorPoint: "Anchor-1" 600 0 basechar 0
AnchorPoint: "Anchor-0" 600 1377 basechar 0
LayerCount: 2
Fore
SplineSet
423 1399 m 0xae
 473 1399 518 1393 566 1377 c 1
 1217 1377 l 1
 1196 1236 l 1
 709 1236 l 1
 782 1147 828 998 838 769 c 1
 1145 769 l 1
 1145 628 l 1
 838 628 l 1
 832 391 783 236 701 141 c 1
 1235 141 l 1
 1235 0 l 1
 560 0 l 1x76
 515 -13 473 -23 423 -23 c 0
 137 -23 -3 217 -3 685 c 0
 -3 1146 139 1399 423 1399 c 0xae
423 1257 m 0xae
 260 1257 183 1094 183 685 c 0
 183 277 266 119 423 119 c 0
 591 119 667 279 667 687 c 0
 667 1095 595 1257 423 1257 c 0xae
EndSplineSet
Position2: "'cpsp' Capital Spacing lookup 0 subtable" dx=5 dy=0 dh=10 dv=0
EndChar

StartChar: P
Encoding: 80 80 83
Width: 1200
GlyphClass: 2
Flags: W
HStem: 0 21G<231 405> 511 140<405 805.244> 1239 138<405 801.317>
VStem: 231 174<0 511 651 1239> 928 186<770.94 1120.35>
AnchorPoint: "Anchor-1" 600 0 basechar 0
AnchorPoint: "Anchor-0" 600 1377 basechar 0
LayerCount: 2
Fore
SplineSet
1114 954 m 0
 1114 632 892 511 581 511 c 2
 405 511 l 1
 405 0 l 1
 231 0 l 1
 231 1377 l 1
 583 1377 l 2
 911 1377 1114 1243 1114 954 c 0
928 952 m 0
 928 1165 791 1239 604 1239 c 2
 405 1239 l 1
 405 651 l 1
 597 651 l 2
 789 651 928 716 928 952 c 0
EndSplineSet
Position2: "'cpsp' Capital Spacing lookup 0 subtable" dx=5 dy=0 dh=10 dv=0
EndChar

StartChar: Thorn
Encoding: 222 222 84
Width: 1200
GlyphClass: 2
Flags: W
HStem: 0 21G<215 387> 257 139<387 804.455> 1007 137<387 794.563> 1357 20G<215 387>
VStem: 215 172<0 257 396 1007 1144 1377> 929 182<517.696 882.957>
AnchorPoint: "Anchor-1" 600 0 basechar 0
AnchorPoint: "Anchor-0" 600 1377 basechar 0
LayerCount: 2
Fore
SplineSet
387 1377 m 1
 387 1144 l 1
 585 1144 l 2
 916 1144 1111 1007 1111 710 c 0
 1111 389 893 257 584 257 c 2
 387 257 l 1
 387 0 l 1
 215 0 l 1
 215 1377 l 1
 387 1377 l 1
606 1007 m 2
 387 1007 l 1
 387 396 l 1
 607 396 l 2
 796 396 929 465 929 706 c 0
 929 921 798 1007 606 1007 c 2
EndSplineSet
Position2: "'cpsp' Capital Spacing lookup 0 subtable" dx=5 dy=0 dh=10 dv=0
EndChar

StartChar: Q
Encoding: 81 81 85
Width: 1200
GlyphClass: 2
Flags: W
HStem: -19 142<444.741 755.838> 1254 145<441.597 756.58>
VStem: 91 180<360.306 1004.39> 927 180<362.6 1013.42>
AnchorPoint: "Anchor-1" 600 0 basechar 0
AnchorPoint: "Anchor-0" 600 1377 basechar 0
LayerCount: 2
Fore
SplineSet
1107 687 m 0
 1107 395 1033 169 822 53 c 1
 1015 15 1118 -73 1185 -274 c 1
 1002 -346 l 1
 919 -133 817 -19 580 -19 c 0
 263 -19 91 259 91 685 c 0
 91 1103 265 1399 599 1399 c 0
 934 1399 1107 1113 1107 687 c 0
927 687 m 0
 927 1055 831 1254 599 1254 c 0
 367 1254 271 1053 271 685 c 0
 271 318 373 123 599 123 c 0
 831 123 927 320 927 687 c 0
EndSplineSet
Position2: "'cpsp' Capital Spacing lookup 0 subtable" dx=5 dy=0 dh=10 dv=0
EndChar

StartChar: R
Encoding: 82 82 86
Width: 1200
GlyphClass: 2
Flags: W
HStem: 0 21G<203 377 926.276 1147> 591 136<377 563> 1239 138<377 781.375>
VStem: 203 174<0 591 727 1239> 889 186<828.264 1143.44>
AnchorPoint: "Anchor-1" 597 0 basechar 0
AnchorPoint: "Anchor-0" 600 1377 basechar 0
LayerCount: 2
Fore
SplineSet
1075 991 m 0
 1075 784 928 657 739 611 c 1
 1147 0 l 1
 939 0 l 1
 563 591 l 1
 377 591 l 1
 377 0 l 1
 203 0 l 1
 203 1377 l 1
 557 1377 l 2
 897 1377 1075 1245 1075 991 c 0
889 991 m 0
 889 1167 789 1239 577 1239 c 2
 377 1239 l 1
 377 727 l 1
 577 727 l 2
 775 727 889 800 889 991 c 0
EndSplineSet
Position2: "'cpsp' Capital Spacing lookup 0 subtable" dx=5 dy=0 dh=10 dv=0
EndChar

StartChar: Racute
Encoding: 340 340 87
Width: 1200
GlyphClass: 2
Flags: W
HStem: 0 21G<203 377 926.276 1147> 591 136<377 563> 1239 138<377 781.375>
VStem: 203 174<0 591 727 1239> 889 186<828.264 1143.44>
AnchorPoint: "Anchor-1" 597 0 basechar 0
AnchorPoint: "Anchor-0" 600 1377 basechar 0
LayerCount: 2
Fore
SplineSet
764 1812 m 1
 840 1668 l 1
 413 1511 l 1
 368 1601 l 1
 764 1812 l 1
1075 991 m 0
 1075 784 928 657 739 611 c 1
 1147 0 l 1
 939 0 l 1
 563 591 l 1
 377 591 l 1
 377 0 l 1
 203 0 l 1
 203 1377 l 1
 557 1377 l 2
 897 1377 1075 1245 1075 991 c 0
889 991 m 0
 889 1167 789 1239 577 1239 c 2
 377 1239 l 1
 377 727 l 1
 577 727 l 2
 775 727 889 800 889 991 c 0
EndSplineSet
Position2: "'cpsp' Capital Spacing lookup 0 subtable" dx=5 dy=0 dh=10 dv=0
EndChar

StartChar: Rcaron
Encoding: 344 344 88
Width: 1200
GlyphClass: 2
Flags: W
HStem: 0 21G<203 377 926.276 1147> 591 136<377 563> 1239 138<377 781.375>
VStem: 203 174<0 591 727 1239> 889 186<828.264 1143.44>
AnchorPoint: "Anchor-1" 597 0 basechar 0
AnchorPoint: "Anchor-0" 600 1377 basechar 0
LayerCount: 2
Fore
SplineSet
853 1809 m 1
 927 1724 l 1
 658 1509 l 1
 545 1509 l 1
 274 1724 l 1
 349 1809 l 1
 600 1648 l 1
 853 1809 l 1
1075 991 m 0
 1075 784 928 657 739 611 c 1
 1147 0 l 1
 939 0 l 1
 563 591 l 1
 377 591 l 1
 377 0 l 1
 203 0 l 1
 203 1377 l 1
 557 1377 l 2
 897 1377 1075 1245 1075 991 c 0
889 991 m 0
 889 1167 789 1239 577 1239 c 2
 377 1239 l 1
 377 727 l 1
 577 727 l 2
 775 727 889 800 889 991 c 0
EndSplineSet
Position2: "'cpsp' Capital Spacing lookup 0 subtable" dx=5 dy=0 dh=10 dv=0
EndChar

StartChar: uni0156
Encoding: 342 342 89
Width: 1200
GlyphClass: 2
Flags: W
HStem: 0 21G<203 377 926.276 1147> 591 136<377 563> 1239 138<377 781.375>
VStem: 203 174<0 591 727 1239> 495 217<-337.006 -161.697> 889 186<828.264 1143.44>
AnchorPoint: "Anchor-1" 597 0 basechar 0
AnchorPoint: "Anchor-0" 600 1377 basechar 0
LayerCount: 2
Fore
SplineSet
1075 991 m 0
 1075 784 928 657 739 611 c 1
 1147 0 l 1
 939 0 l 1
 563 591 l 1
 377 591 l 1
 377 0 l 1
 203 0 l 1
 203 1377 l 1
 557 1377 l 2
 897 1377 1075 1245 1075 991 c 0
889 991 m 0
 889 1167 789 1239 577 1239 c 2
 377 1239 l 1
 377 727 l 1
 577 727 l 2
 775 727 889 800 889 991 c 0
604 -141 m 0
 665 -141 712 -187 712 -248 c 0
 712 -283 704 -311 682 -358 c 2
 583 -572 l 1
 480 -572 l 1
 539 -338 l 1
 512 -317 495 -283 495 -248 c 0
 495 -187 543 -141 604 -141 c 0
EndSplineSet
Position2: "'cpsp' Capital Spacing lookup 0 subtable" dx=5 dy=0 dh=10 dv=0
EndChar

StartChar: S
Encoding: 83 83 90
Width: 1200
GlyphClass: 2
Flags: W
HStem: -23 146<345.812 760.066> 1254 145<421.192 805.08>
VStem: 147 177<940.042 1171.17> 893 180<244.127 513.952>
AnchorPoint: "Anchor-1" 593 0 basechar 0
AnchorPoint: "Anchor-0" 611 1377 basechar 0
LayerCount: 2
Fore
SplineSet
1073 381 m 0
 1073 144 890 -23 570 -23 c 0
 369 -23 203 41 87 153 c 1
 190 269 l 1
 285 179 405 123 573 123 c 0
 740 123 893 205 893 378 c 0
 893 511 828 577 591 647 c 0
 319 727 147 826 147 1045 c 0
 147 1251 330 1399 593 1399 c 0
 783 1399 918 1343 1033 1242 c 1
 931 1129 l 1
 833 1216 716 1254 599 1254 c 0
 449 1254 324 1188 324 1051 c 0
 324 931 409 873 671 796 c 0
 885 734 1073 645 1073 381 c 0
EndSplineSet
Position2: "'cpsp' Capital Spacing lookup 0 subtable" dx=5 dy=0 dh=10 dv=0
EndChar

StartChar: Sacute
Encoding: 346 346 91
Width: 1200
GlyphClass: 2
Flags: W
HStem: -23 146<345.812 760.066> 1254 145<421.192 805.08>
VStem: 147 177<940.042 1171.17> 893 180<244.127 513.952>
AnchorPoint: "Anchor-1" 593 0 basechar 0
AnchorPoint: "Anchor-0" 611 1377 basechar 0
LayerCount: 2
Fore
SplineSet
775 1812 m 1
 851 1668 l 1
 424 1511 l 1
 379 1601 l 1
 775 1812 l 1
1073 381 m 0
 1073 144 890 -23 570 -23 c 0
 369 -23 203 41 87 153 c 1
 190 269 l 1
 285 179 405 123 573 123 c 0
 740 123 893 205 893 378 c 0
 893 511 828 577 591 647 c 0
 319 727 147 826 147 1045 c 0
 147 1251 330 1399 593 1399 c 0
 783 1399 918 1343 1033 1242 c 1
 931 1129 l 1
 833 1216 716 1254 599 1254 c 0
 449 1254 324 1188 324 1051 c 0
 324 931 409 873 671 796 c 0
 885 734 1073 645 1073 381 c 0
EndSplineSet
Substitution2: "'locl' Localized Forms in Latin lookup 22 subtable" Sacute.loclPLK
Substitution2: "'aalt' Access All Alternates lookup 0 subtable" Sacute.loclPLK
Position2: "'cpsp' Capital Spacing lookup 0 subtable" dx=5 dy=0 dh=10 dv=0
EndChar

StartChar: Scaron
Encoding: 352 352 92
Width: 1200
GlyphClass: 2
Flags: W
HStem: -23 146<345.812 760.066> 1254 145<421.192 805.08>
VStem: 147 177<940.042 1171.17> 893 180<244.127 513.952>
AnchorPoint: "Anchor-1" 593 0 basechar 0
AnchorPoint: "Anchor-0" 611 1377 basechar 0
LayerCount: 2
Fore
SplineSet
864 1809 m 1
 937 1724 l 1
 668 1509 l 1
 555 1509 l 1
 284 1724 l 1
 360 1809 l 1
 611 1648 l 1
 864 1809 l 1
1073 381 m 0
 1073 144 890 -23 570 -23 c 0
 369 -23 203 41 87 153 c 1
 190 269 l 1
 285 179 405 123 573 123 c 0
 740 123 893 205 893 378 c 0
 893 511 828 577 591 647 c 0
 319 727 147 826 147 1045 c 0
 147 1251 330 1399 593 1399 c 0
 783 1399 918 1343 1033 1242 c 1
 931 1129 l 1
 833 1216 716 1254 599 1254 c 0
 449 1254 324 1188 324 1051 c 0
 324 931 409 873 671 796 c 0
 885 734 1073 645 1073 381 c 0
EndSplineSet
Position2: "'cpsp' Capital Spacing lookup 0 subtable" dx=5 dy=0 dh=10 dv=0
EndChar

StartChar: Scedilla
Encoding: 350 350 93
Width: 1200
GlyphClass: 2
Flags: W
HStem: -477 114<399.213 663.095> -21 144<348.257 514 633 755.642> 1254 145<421.192 805.08>
VStem: 147 177<940.042 1171.17> 674 144<-348.38 -212.927> 893 180<243.87 513.952>
AnchorPoint: "Anchor-1" 593 0 basechar 0
AnchorPoint: "Anchor-0" 611 1377 basechar 0
LayerCount: 2
Fore
SplineSet
674 -281 m 0
 674 -209 607 -195 500 -195 c 1
 514 -21 l 1
 338 -11 192 52 87 153 c 1
 190 269 l 1
 285 179 405 123 573 123 c 0
 740 123 893 205 893 378 c 0
 893 511 828 577 591 647 c 0
 319 727 147 826 147 1045 c 0
 147 1251 330 1399 593 1399 c 0
 783 1399 918 1343 1033 1242 c 1
 931 1129 l 1
 833 1216 716 1254 599 1254 c 0
 449 1254 324 1188 324 1051 c 0
 324 931 409 873 671 796 c 0
 885 734 1073 645 1073 381 c 0
 1073 160 914 0 633 -21 c 1
 633 -114 l 1
 764 -125 818 -201 818 -281 c 0
 818 -412 703 -477 574 -477 c 0
 494 -477 417 -458 365 -428 c 1
 419 -331 l 1
 457 -351 510 -363 554 -363 c 0
 624 -363 674 -341 674 -281 c 0
EndSplineSet
Substitution2: "'locl' Localized Forms in Latin lookup 20 subtable" uni0218
Substitution2: "'locl' Localized Forms in Latin lookup 19 subtable" uni0218
Substitution2: "'aalt' Access All Alternates lookup 0 subtable" uni0218
Position2: "'cpsp' Capital Spacing lookup 0 subtable" dx=5 dy=0 dh=10 dv=0
EndChar

StartChar: Scircumflex
Encoding: 348 348 94
Width: 1200
GlyphClass: 2
Flags: W
HStem: -23 146<345.812 760.066> 1254 145<421.192 805.08>
VStem: 147 177<940.042 1171.17> 893 180<244.127 513.952>
AnchorPoint: "Anchor-1" 593 0 basechar 0
AnchorPoint: "Anchor-0" 611 1377 basechar 0
LayerCount: 2
Fore
SplineSet
668 1821 m 1
 937 1606 l 1
 864 1521 l 1
 611 1681 l 1
 360 1521 l 1
 284 1606 l 1
 555 1821 l 1
 668 1821 l 1
1073 381 m 0
 1073 144 890 -23 570 -23 c 0
 369 -23 203 41 87 153 c 1
 190 269 l 1
 285 179 405 123 573 123 c 0
 740 123 893 205 893 378 c 0
 893 511 828 577 591 647 c 0
 319 727 147 826 147 1045 c 0
 147 1251 330 1399 593 1399 c 0
 783 1399 918 1343 1033 1242 c 1
 931 1129 l 1
 833 1216 716 1254 599 1254 c 0
 449 1254 324 1188 324 1051 c 0
 324 931 409 873 671 796 c 0
 885 734 1073 645 1073 381 c 0
EndSplineSet
Position2: "'cpsp' Capital Spacing lookup 0 subtable" dx=5 dy=0 dh=10 dv=0
EndChar

StartChar: uni0218
Encoding: 536 536 95
Width: 1200
GlyphClass: 2
Flags: W
HStem: -23 146<345.812 760.066> 1254 145<421.192 805.08>
VStem: 147 177<940.042 1171.17> 491 217<-337.006 -161.697> 893 180<244.127 513.952>
AnchorPoint: "Anchor-1" 593 0 basechar 0
AnchorPoint: "Anchor-0" 611 1377 basechar 0
LayerCount: 2
Fore
SplineSet
1073 381 m 0
 1073 144 890 -23 570 -23 c 0
 369 -23 203 41 87 153 c 1
 190 269 l 1
 285 179 405 123 573 123 c 0
 740 123 893 205 893 378 c 0
 893 511 828 577 591 647 c 0
 319 727 147 826 147 1045 c 0
 147 1251 330 1399 593 1399 c 0
 783 1399 918 1343 1033 1242 c 1
 931 1129 l 1
 833 1216 716 1254 599 1254 c 0
 449 1254 324 1188 324 1051 c 0
 324 931 409 873 671 796 c 0
 885 734 1073 645 1073 381 c 0
600 -141 m 0
 660 -141 708 -187 708 -248 c 0
 708 -283 699 -311 678 -358 c 2
 578 -572 l 1
 476 -572 l 1
 534 -338 l 1
 508 -317 491 -283 491 -248 c 0
 491 -187 539 -141 600 -141 c 0
EndSplineSet
Position2: "'cpsp' Capital Spacing lookup 0 subtable" dx=5 dy=0 dh=10 dv=0
EndChar

StartChar: uni1E9E
Encoding: 7838 7838 96
Width: 1198
Flags: W
HStem: -12 135<529.593 875.223> 1277 134<417.427 829.52>
VStem: 147 167<12 1170.11> 984 175<227.926 539.219>
LayerCount: 2
Fore
SplineSet
581 1411 m 0
 769 1411 928 1351 1072 1273 c 1
 1072 1176 l 1
 713 786 l 1
 1001 753 1159 626 1159 389 c 0
 1159 135 983 -12 728 -12 c 0
 627 -12 547 7 491 35 c 1
 544 153 l 1
 588 136 638 123 714 123 c 0
 880 123 984 212 984 390 c 0
 984 583 842 669 557 685 c 1
 557 801 l 1
 916 1200 l 1
 818 1244 713 1277 587 1277 c 0
 412 1277 314 1189 314 992 c 2
 314 12 l 1
 147 12 l 1
 147 993 l 2
 147 1258 303 1411 581 1411 c 0
EndSplineSet
EndChar

StartChar: T
Encoding: 84 84 97
Width: 1200
GlyphClass: 2
Flags: W
HStem: 0 21G<510 683> 1228 149<80 510 683 1101>
VStem: 510 173<0 1228>
AnchorPoint: "Anchor-1" 598 0 basechar 0
AnchorPoint: "Anchor-0" 598 1377 basechar 0
LayerCount: 2
Fore
SplineSet
683 1228 m 1
 683 0 l 1
 510 0 l 1
 510 1228 l 1
 80 1228 l 1
 80 1377 l 1
 1119 1377 l 1
 1101 1228 l 1
 683 1228 l 1
EndSplineSet
Position2: "'cpsp' Capital Spacing lookup 0 subtable" dx=5 dy=0 dh=10 dv=0
EndChar

StartChar: Tbar
Encoding: 358 358 98
Width: 1200
GlyphClass: 2
Flags: W
HStem: 0 21G<510 683> 700 135<249 510 683 947> 1228 149<80 510 683 1101>
VStem: 510 173<0 700 835 1228>
AnchorPoint: "Anchor-1" 598 0 basechar 0
AnchorPoint: "Anchor-0" 598 1377 basechar 0
LayerCount: 2
Fore
SplineSet
249 700 m 1
 249 835 l 1
 510 835 l 1
 510 1228 l 1
 80 1228 l 1
 80 1377 l 1
 1119 1377 l 1
 1101 1228 l 1
 683 1228 l 1
 683 835 l 1
 947 835 l 1
 947 700 l 1
 683 700 l 1
 683 0 l 1
 510 0 l 1
 510 700 l 1
 249 700 l 1
EndSplineSet
Position2: "'cpsp' Capital Spacing lookup 0 subtable" dx=5 dy=0 dh=10 dv=0
EndChar

StartChar: Tcaron
Encoding: 356 356 99
Width: 1200
GlyphClass: 2
Flags: W
HStem: 0 21G<510 683> 1228 149<80 510 683 1101>
VStem: 510 173<0 1228>
AnchorPoint: "Anchor-1" 598 0 basechar 0
AnchorPoint: "Anchor-0" 598 1377 basechar 0
LayerCount: 2
Fore
SplineSet
851 1809 m 1
 925 1724 l 1
 656 1509 l 1
 543 1509 l 1
 272 1724 l 1
 347 1809 l 1
 598 1648 l 1
 851 1809 l 1
683 1228 m 1
 683 0 l 1
 510 0 l 1
 510 1228 l 1
 80 1228 l 1
 80 1377 l 1
 1119 1377 l 1
 1101 1228 l 1
 683 1228 l 1
EndSplineSet
Position2: "'cpsp' Capital Spacing lookup 0 subtable" dx=5 dy=0 dh=10 dv=0
EndChar

StartChar: uni0162
Encoding: 354 354 100
Width: 1200
GlyphClass: 2
Flags: W
HStem: -477 114<423.082 686.235> 1228 149<80 510 683 1101>
VStem: 510 173<0 1228> 538 118<-119.862 0> 697 145<-348.893 -212.301>
AnchorPoint: "Anchor-1" 598 0 basechar 0
AnchorPoint: "Anchor-0" 598 1377 basechar 0
LayerCount: 2
Fore
SplineSet
697 -281 m 0xd8
 697 -209 630 -195 524 -195 c 1
 538 0 l 1xd8
 510 0 l 1
 510 1228 l 1
 80 1228 l 1
 80 1377 l 1
 1119 1377 l 1
 1101 1228 l 1
 683 1228 l 1
 683 0 l 1xe8
 656 0 l 1
 656 -114 l 1
 788 -125 842 -201 842 -281 c 0
 842 -412 726 -477 597 -477 c 0
 517 -477 440 -458 389 -428 c 1
 443 -331 l 1
 480 -351 533 -363 577 -363 c 0
 648 -363 697 -341 697 -281 c 0xd8
EndSplineSet
Substitution2: "'locl' Localized Forms in Latin lookup 20 subtable" uni021A
Substitution2: "'locl' Localized Forms in Latin lookup 19 subtable" uni021A
Substitution2: "'aalt' Access All Alternates lookup 0 subtable" uni021A
Position2: "'cpsp' Capital Spacing lookup 0 subtable" dx=5 dy=0 dh=10 dv=0
EndChar

StartChar: uni021A
Encoding: 538 538 101
Width: 1200
GlyphClass: 2
Flags: W
HStem: 0 21G<510 683> 1228 149<80 510 683 1101>
VStem: 496 217<-337.006 -161.697> 510 173<0 1228>
AnchorPoint: "Anchor-1" 598 0 basechar 0
AnchorPoint: "Anchor-0" 598 1377 basechar 0
LayerCount: 2
Fore
SplineSet
683 1228 m 1xd0
 683 0 l 1
 510 0 l 1
 510 1228 l 1
 80 1228 l 1
 80 1377 l 1
 1119 1377 l 1
 1101 1228 l 1
 683 1228 l 1xd0
605 -141 m 0
 665 -141 713 -187 713 -248 c 0xe0
 713 -283 704 -311 683 -358 c 2xd0
 583 -572 l 1
 481 -572 l 1
 539 -338 l 1
 513 -317 496 -283 496 -248 c 0xe0
 496 -187 544 -141 605 -141 c 0
EndSplineSet
Position2: "'cpsp' Capital Spacing lookup 0 subtable" dx=5 dy=0 dh=10 dv=0
EndChar

StartChar: U
Encoding: 85 85 102
Width: 1200
GlyphClass: 2
Flags: W
HStem: -23 150<435.22 766.058> 1357 20G<145 317 880 1055>
VStem: 145 172<255.438 1377> 880 175<255.016 1377>
AnchorPoint: "Anchor-1" 600 0 basechar 0
AnchorPoint: "Anchor-0" 600 1377 basechar 0
LayerCount: 2
Fore
SplineSet
1055 1377 m 1
 1055 446 l 2
 1055 167 877 -23 598 -23 c 0
 315 -23 145 168 145 446 c 2
 145 1377 l 1
 317 1377 l 1
 317 440 l 2
 317 231 419 127 598 127 c 0
 778 127 880 231 880 440 c 2
 880 1377 l 1
 1055 1377 l 1
EndSplineSet
Position2: "'cpsp' Capital Spacing lookup 0 subtable" dx=5 dy=0 dh=10 dv=0
EndChar

StartChar: Uacute
Encoding: 218 218 103
Width: 1200
GlyphClass: 2
Flags: W
HStem: -23 150<435.22 766.058> 1357 20G<145 317 880 1055>
VStem: 145 172<255.438 1377> 880 175<255.016 1377>
AnchorPoint: "Anchor-1" 600 0 basechar 0
AnchorPoint: "Anchor-0" 600 1377 basechar 0
LayerCount: 2
Fore
SplineSet
764 1812 m 1
 840 1668 l 1
 413 1511 l 1
 368 1601 l 1
 764 1812 l 1
1055 1377 m 1
 1055 446 l 2
 1055 167 877 -23 598 -23 c 0
 315 -23 145 168 145 446 c 2
 145 1377 l 1
 317 1377 l 1
 317 440 l 2
 317 231 419 127 598 127 c 0
 778 127 880 231 880 440 c 2
 880 1377 l 1
 1055 1377 l 1
EndSplineSet
Position2: "'cpsp' Capital Spacing lookup 0 subtable" dx=5 dy=0 dh=10 dv=0
EndChar

StartChar: Ubreve
Encoding: 364 364 104
Width: 1200
GlyphClass: 2
Flags: W
HStem: -23 150<435.22 766.058> 1357 20G<145 317 880 1055> 1517 131<473.582 719.863>
VStem: 145 172<255.438 1377> 300 117<1704.2 1758.99> 781 115<1710.31 1759.04> 880 175<255.016 1377>
AnchorPoint: "Anchor-1" 600 0 basechar 0
AnchorPoint: "Anchor-0" 600 1377 basechar 0
LayerCount: 2
Fore
SplineSet
595 1517 m 0xec
 442 1517 317 1611 300 1756 c 1
 417 1781 l 1
 444 1702 501 1648 595 1648 c 0
 690 1648 752 1702 781 1781 c 1
 896 1756 l 1
 881 1611 751 1517 595 1517 c 0xec
1055 1377 m 1xf2
 1055 446 l 2
 1055 167 877 -23 598 -23 c 0
 315 -23 145 168 145 446 c 2
 145 1377 l 1
 317 1377 l 1
 317 440 l 2
 317 231 419 127 598 127 c 0
 778 127 880 231 880 440 c 2
 880 1377 l 1
 1055 1377 l 1xf2
EndSplineSet
Position2: "'cpsp' Capital Spacing lookup 0 subtable" dx=5 dy=0 dh=10 dv=0
EndChar

StartChar: Ucircumflex
Encoding: 219 219 105
Width: 1200
GlyphClass: 2
Flags: W
HStem: -23 150<435.22 766.058> 1357 20G<145 317 880 1055>
VStem: 145 172<255.438 1377> 880 175<255.016 1377>
AnchorPoint: "Anchor-1" 600 0 basechar 0
AnchorPoint: "Anchor-0" 600 1377 basechar 0
LayerCount: 2
Fore
SplineSet
658 1821 m 1
 927 1606 l 1
 853 1521 l 1
 600 1681 l 1
 349 1521 l 1
 274 1606 l 1
 545 1821 l 1
 658 1821 l 1
1055 1377 m 1
 1055 446 l 2
 1055 167 877 -23 598 -23 c 0
 315 -23 145 168 145 446 c 2
 145 1377 l 1
 317 1377 l 1
 317 440 l 2
 317 231 419 127 598 127 c 0
 778 127 880 231 880 440 c 2
 880 1377 l 1
 1055 1377 l 1
EndSplineSet
Position2: "'cpsp' Capital Spacing lookup 0 subtable" dx=5 dy=0 dh=10 dv=0
EndChar

StartChar: Udieresis
Encoding: 220 220 106
Width: 1200
GlyphClass: 2
Flags: W
HStem: -23 150<435.22 766.058> 1357 20G<145 317 880 1055> 1536 214<303.898 479.648 718.058 893.808>
VStem: 145 172<255.438 1377> 283 218<1556.34 1729.53> 697 218<1556.34 1729.53> 880 175<255.016 1377>
AnchorPoint: "Anchor-1" 600 0 basechar 0
AnchorPoint: "Anchor-0" 600 1377 basechar 0
LayerCount: 2
Fore
SplineSet
393 1536 m 0xe8
 329 1536 283 1581 283 1642 c 0
 283 1705 329 1750 393 1750 c 0
 453 1750 501 1705 501 1642 c 0
 501 1581 453 1536 393 1536 c 0xe8
805 1536 m 0
 744 1536 697 1581 697 1642 c 0
 697 1705 744 1750 805 1750 c 0
 868 1750 915 1705 915 1642 c 0xe4
 915 1581 868 1536 805 1536 c 0
1055 1377 m 1xf2
 1055 446 l 2
 1055 167 877 -23 598 -23 c 0
 315 -23 145 168 145 446 c 2
 145 1377 l 1
 317 1377 l 1
 317 440 l 2
 317 231 419 127 598 127 c 0
 778 127 880 231 880 440 c 2
 880 1377 l 1
 1055 1377 l 1xf2
EndSplineSet
Position2: "'cpsp' Capital Spacing lookup 0 subtable" dx=5 dy=0 dh=10 dv=0
EndChar

StartChar: Ugrave
Encoding: 217 217 107
Width: 1200
GlyphClass: 2
Flags: W
HStem: -23 150<435.22 766.058> 1357 20G<145 317 880 1055>
VStem: 145 172<255.438 1377> 880 175<255.016 1377>
AnchorPoint: "Anchor-1" 600 0 basechar 0
AnchorPoint: "Anchor-0" 600 1377 basechar 0
LayerCount: 2
Fore
SplineSet
462 1819 m 1
 831 1601 l 1
 780 1511 l 1
 368 1675 l 1
 462 1819 l 1
1055 1377 m 1
 1055 446 l 2
 1055 167 877 -23 598 -23 c 0
 315 -23 145 168 145 446 c 2
 145 1377 l 1
 317 1377 l 1
 317 440 l 2
 317 231 419 127 598 127 c 0
 778 127 880 231 880 440 c 2
 880 1377 l 1
 1055 1377 l 1
EndSplineSet
Position2: "'cpsp' Capital Spacing lookup 0 subtable" dx=5 dy=0 dh=10 dv=0
EndChar

StartChar: Uhungarumlaut
Encoding: 368 368 108
Width: 1200
GlyphClass: 2
Flags: W
HStem: -23 150<435.22 766.058> 1357 20G<145 317 880 1055>
VStem: 145 172<255.438 1377> 880 175<255.016 1377>
AnchorPoint: "Anchor-1" 600 0 basechar 0
AnchorPoint: "Anchor-0" 600 1377 basechar 0
LayerCount: 2
Fore
SplineSet
366 1564 m 1
 521 1910 l 1
 669 1840 l 1
 475 1512 l 1
 366 1564 l 1
693 1563 m 1
 869 1910 l 1
 1015 1833 l 1
 799 1507 l 1
 693 1563 l 1
1055 1377 m 1
 1055 446 l 2
 1055 167 877 -23 598 -23 c 0
 315 -23 145 168 145 446 c 2
 145 1377 l 1
 317 1377 l 1
 317 440 l 2
 317 231 419 127 598 127 c 0
 778 127 880 231 880 440 c 2
 880 1377 l 1
 1055 1377 l 1
EndSplineSet
Position2: "'cpsp' Capital Spacing lookup 0 subtable" dx=5 dy=0 dh=10 dv=0
EndChar

StartChar: Umacron
Encoding: 362 362 109
Width: 1200
GlyphClass: 2
Flags: W
HStem: -23 150<435.22 766.058> 1357 20G<145 317 880 1055> 1591 128<330 868>
VStem: 145 172<255.438 1377> 880 175<255.016 1377>
AnchorPoint: "Anchor-1" 600 0 basechar 0
AnchorPoint: "Anchor-0" 600 1377 basechar 0
LayerCount: 2
Fore
SplineSet
868 1591 m 1
 330 1591 l 1
 330 1719 l 1
 868 1719 l 1
 868 1591 l 1
1055 1377 m 1
 1055 446 l 2
 1055 167 877 -23 598 -23 c 0
 315 -23 145 168 145 446 c 2
 145 1377 l 1
 317 1377 l 1
 317 440 l 2
 317 231 419 127 598 127 c 0
 778 127 880 231 880 440 c 2
 880 1377 l 1
 1055 1377 l 1
EndSplineSet
Position2: "'cpsp' Capital Spacing lookup 0 subtable" dx=5 dy=0 dh=10 dv=0
EndChar

StartChar: Uogonek
Encoding: 370 370 110
Width: 1200
GlyphClass: 2
Flags: W
HStem: -459 134<515.577 721.189> 1357 20G<145 317 880 1055>
VStem: 145 172<251.352 1377> 352 152<-312.23 -125.872> 880 175<251.919 1377>
AnchorPoint: "Anchor-1" 600 0 basechar 0
AnchorPoint: "Anchor-0" 600 1377 basechar 0
LayerCount: 2
Fore
SplineSet
1055 1377 m 1
 1055 446 l 2
 1055 219 937 50 742 -4 c 1
 544 -93 504 -159 504 -229 c 0
 504 -288 532 -325 615 -325 c 0
 657 -325 689 -321 739 -311 c 1
 721 -445 l 1
 682 -453 647 -459 595 -459 c 0
 443 -459 352 -373 352 -262 c 0
 352 -165 405 -84 523 -19 c 1
 285 12 145 193 145 446 c 2
 145 1377 l 1
 317 1377 l 1
 317 440 l 2
 317 231 419 127 598 127 c 0
 778 127 880 231 880 440 c 2
 880 1377 l 1
 1055 1377 l 1
EndSplineSet
Position2: "'cpsp' Capital Spacing lookup 0 subtable" dx=5 dy=0 dh=10 dv=0
EndChar

StartChar: Uring
Encoding: 366 366 111
Width: 1200
GlyphClass: 2
Flags: W
HStem: -23 150<435.22 766.058> 1357 20G<145 317 880 1055> 1477 90<511.386 688.908> 1794 92<511.386 688.908>
VStem: 145 172<255.438 1377> 378 114<1586.68 1774.99> 708 114<1586.68 1774.99> 880 175<255.016 1377>
AnchorPoint: "Anchor-1" 600 0 basechar 0
AnchorPoint: "Anchor-0" 600 1377 basechar 0
LayerCount: 2
Fore
SplineSet
600 1886 m 0
 729 1886 822 1796 822 1680 c 0
 822 1568 729 1477 600 1477 c 0
 471 1477 378 1568 378 1680 c 0
 378 1796 471 1886 600 1886 c 0
600 1794 m 0
 535 1794 492 1751 492 1680 c 0
 492 1610 535 1567 600 1567 c 0
 667 1567 708 1610 708 1680 c 0
 708 1751 667 1794 600 1794 c 0
1055 1377 m 1
 1055 446 l 2
 1055 167 877 -23 598 -23 c 0
 315 -23 145 168 145 446 c 2
 145 1377 l 1
 317 1377 l 1
 317 440 l 2
 317 231 419 127 598 127 c 0
 778 127 880 231 880 440 c 2
 880 1377 l 1
 1055 1377 l 1
EndSplineSet
Position2: "'cpsp' Capital Spacing lookup 0 subtable" dx=5 dy=0 dh=10 dv=0
EndChar

StartChar: Utilde
Encoding: 360 360 112
Width: 1200
GlyphClass: 2
Flags: W
HStem: -23 150<435.22 766.058> 1357 20G<145 317 880 1055> 1556 130<621.926 791.039> 1653 130<409.035 580.623>
VStem: 145 172<255.438 1377> 880 175<255.016 1377>
AnchorPoint: "Anchor-1" 600 0 basechar 0
AnchorPoint: "Anchor-0" 600 1377 basechar 0
LayerCount: 2
Fore
SplineSet
717 1556 m 0xec
 611 1556 557 1653 484 1653 c 0
 439 1653 410 1621 378 1560 c 1
 271 1614 l 1
 317 1708 387 1783 485 1783 c 0xdc
 595 1783 642 1686 717 1686 c 0
 756 1686 787 1714 823 1774 c 1
 929 1721 l 1
 877 1609 803 1556 717 1556 c 0xec
1055 1377 m 1
 1055 446 l 2
 1055 167 877 -23 598 -23 c 0
 315 -23 145 168 145 446 c 2
 145 1377 l 1
 317 1377 l 1
 317 440 l 2
 317 231 419 127 598 127 c 0
 778 127 880 231 880 440 c 2
 880 1377 l 1
 1055 1377 l 1
EndSplineSet
Position2: "'cpsp' Capital Spacing lookup 0 subtable" dx=5 dy=0 dh=10 dv=0
EndChar

StartChar: V
Encoding: 86 86 113
Width: 1200
GlyphClass: 2
Flags: W
HStem: 0 21G<503.304 696.696> 1357 20G<49 242.237 969.695 1151>
AnchorPoint: "Anchor-1" 600 0 basechar 0
AnchorPoint: "Anchor-0" 600 1377 basechar 0
LayerCount: 2
Fore
SplineSet
604 197 m 1
 976 1377 l 1
 1151 1377 l 1
 690 0 l 1
 510 0 l 1
 49 1377 l 1
 236 1377 l 1
 604 197 l 1
EndSplineSet
Position2: "'cpsp' Capital Spacing lookup 0 subtable" dx=5 dy=0 dh=10 dv=0
EndChar

StartChar: W
Encoding: 87 87 114
Width: 1200
GlyphClass: 2
Flags: W
HStem: 0 21G<200.182 439.061 749.959 984.05> 1357 20G<9 185.479 1027.22 1191>
AnchorPoint: "Anchor-1" 600 0 basechar 0
AnchorPoint: "Anchor-0" 600 1377 basechar 0
LayerCount: 2
Fore
SplineSet
1191 1377 m 1
 981 0 l 1
 753 0 l 1
 595 1039 l 1
 436 0 l 1
 203 0 l 1
 9 1377 l 1
 183 1377 l 1
 330 191 l 1
 495 1217 l 1
 708 1217 l 1
 865 191 l 1
 1030 1377 l 1
 1191 1377 l 1
EndSplineSet
Position2: "'cpsp' Capital Spacing lookup 0 subtable" dx=5 dy=0 dh=10 dv=0
EndChar

StartChar: Wacute
Encoding: 7810 7810 115
Width: 1200
GlyphClass: 2
Flags: W
HStem: 0 21G<200.182 439.061 749.959 984.05> 1357 20G<9 185.479 1027.22 1191>
AnchorPoint: "Anchor-1" 600 0 basechar 0
AnchorPoint: "Anchor-0" 600 1377 basechar 0
LayerCount: 2
Fore
SplineSet
764 1812 m 1
 840 1668 l 1
 413 1511 l 1
 368 1601 l 1
 764 1812 l 1
1191 1377 m 1
 981 0 l 1
 753 0 l 1
 595 1039 l 1
 436 0 l 1
 203 0 l 1
 9 1377 l 1
 183 1377 l 1
 330 191 l 1
 495 1217 l 1
 708 1217 l 1
 865 191 l 1
 1030 1377 l 1
 1191 1377 l 1
EndSplineSet
Position2: "'cpsp' Capital Spacing lookup 0 subtable" dx=5 dy=0 dh=10 dv=0
EndChar

StartChar: Wcircumflex
Encoding: 372 372 116
Width: 1200
GlyphClass: 2
Flags: W
HStem: 0 21G<200.182 439.061 749.959 984.05> 1357 20G<9 185.479 1027.22 1191>
AnchorPoint: "Anchor-1" 600 0 basechar 0
AnchorPoint: "Anchor-0" 600 1377 basechar 0
LayerCount: 2
Fore
SplineSet
658 1821 m 1
 927 1606 l 1
 853 1521 l 1
 600 1681 l 1
 349 1521 l 1
 274 1606 l 1
 545 1821 l 1
 658 1821 l 1
1191 1377 m 1
 981 0 l 1
 753 0 l 1
 595 1039 l 1
 436 0 l 1
 203 0 l 1
 9 1377 l 1
 183 1377 l 1
 330 191 l 1
 495 1217 l 1
 708 1217 l 1
 865 191 l 1
 1030 1377 l 1
 1191 1377 l 1
EndSplineSet
Position2: "'cpsp' Capital Spacing lookup 0 subtable" dx=5 dy=0 dh=10 dv=0
EndChar

StartChar: Wdieresis
Encoding: 7812 7812 117
Width: 1200
GlyphClass: 2
Flags: W
HStem: 0 21G<200.182 439.061 749.959 984.05> 1357 20G<9 185.479 1027.22 1191> 1536 214<303.898 479.648 718.058 893.808>
VStem: 283 218<1556.34 1729.53> 697 218<1556.34 1729.53>
AnchorPoint: "Anchor-1" 600 0 basechar 0
AnchorPoint: "Anchor-0" 600 1377 basechar 0
LayerCount: 2
Fore
SplineSet
393 1536 m 0
 329 1536 283 1581 283 1642 c 0
 283 1705 329 1750 393 1750 c 0
 453 1750 501 1705 501 1642 c 0
 501 1581 453 1536 393 1536 c 0
805 1536 m 0
 744 1536 697 1581 697 1642 c 0
 697 1705 744 1750 805 1750 c 0
 868 1750 915 1705 915 1642 c 0
 915 1581 868 1536 805 1536 c 0
1191 1377 m 1
 981 0 l 1
 753 0 l 1
 595 1039 l 1
 436 0 l 1
 203 0 l 1
 9 1377 l 1
 183 1377 l 1
 330 191 l 1
 495 1217 l 1
 708 1217 l 1
 865 191 l 1
 1030 1377 l 1
 1191 1377 l 1
EndSplineSet
Position2: "'cpsp' Capital Spacing lookup 0 subtable" dx=5 dy=0 dh=10 dv=0
EndChar

StartChar: Wgrave
Encoding: 7808 7808 118
Width: 1200
GlyphClass: 2
Flags: W
HStem: 0 21G<200.182 439.061 749.959 984.05> 1357 20G<9 185.479 1027.22 1191>
AnchorPoint: "Anchor-1" 600 0 basechar 0
AnchorPoint: "Anchor-0" 600 1377 basechar 0
LayerCount: 2
Fore
SplineSet
462 1819 m 1
 831 1601 l 1
 780 1511 l 1
 368 1675 l 1
 462 1819 l 1
1191 1377 m 1
 981 0 l 1
 753 0 l 1
 595 1039 l 1
 436 0 l 1
 203 0 l 1
 9 1377 l 1
 183 1377 l 1
 330 191 l 1
 495 1217 l 1
 708 1217 l 1
 865 191 l 1
 1030 1377 l 1
 1191 1377 l 1
EndSplineSet
Position2: "'cpsp' Capital Spacing lookup 0 subtable" dx=5 dy=0 dh=10 dv=0
EndChar

StartChar: X
Encoding: 88 88 119
Width: 1200
GlyphClass: 2
Flags: W
HStem: 0 21G<62 260.158 927.971 1138> 1357 20G<99 309.418 891.544 1091>
AnchorPoint: "Anchor-1" 600 0 basechar 0
AnchorPoint: "Anchor-0" 600 1377 basechar 0
LayerCount: 2
Fore
SplineSet
99 1377 m 1
 298 1377 l 1
 600 848 l 1
 903 1377 l 1
 1091 1377 l 1
 700 743 l 1
 1138 0 l 1
 939 0 l 1
 596 622 l 1
 249 0 l 1
 62 0 l 1
 494 734 l 1
 99 1377 l 1
EndSplineSet
Position2: "'cpsp' Capital Spacing lookup 0 subtable" dx=5 dy=0 dh=10 dv=0
EndChar

StartChar: Y
Encoding: 89 89 120
Width: 1200
GlyphClass: 2
Flags: W
HStem: 0 21G<512 688> 1357 20G<47 249.58 962.304 1153>
VStem: 512 176<0 529>
AnchorPoint: "Anchor-1" 600 0 basechar 0
AnchorPoint: "Anchor-0" 607 1377 basechar 0
LayerCount: 2
Fore
SplineSet
688 531 m 1
 688 0 l 1
 512 0 l 1
 512 529 l 1
 47 1377 l 1
 239 1377 l 1
 604 687 l 1
 973 1377 l 1
 1153 1377 l 1
 688 531 l 1
EndSplineSet
Position2: "'cpsp' Capital Spacing lookup 0 subtable" dx=5 dy=0 dh=10 dv=0
EndChar

StartChar: Yacute
Encoding: 221 221 121
Width: 1200
GlyphClass: 2
Flags: W
HStem: 0 21G<512 688> 1357 20G<47 249.58 962.304 1153>
VStem: 512 176<0 529>
AnchorPoint: "Anchor-1" 600 0 basechar 0
AnchorPoint: "Anchor-0" 607 1377 basechar 0
LayerCount: 2
Fore
SplineSet
771 1812 m 1
 847 1668 l 1
 420 1511 l 1
 375 1601 l 1
 771 1812 l 1
688 531 m 1
 688 0 l 1
 512 0 l 1
 512 529 l 1
 47 1377 l 1
 239 1377 l 1
 604 687 l 1
 973 1377 l 1
 1153 1377 l 1
 688 531 l 1
EndSplineSet
Position2: "'cpsp' Capital Spacing lookup 0 subtable" dx=5 dy=0 dh=10 dv=0
EndChar

StartChar: Ycircumflex
Encoding: 374 374 122
Width: 1200
GlyphClass: 2
Flags: W
HStem: 0 21G<512 688> 1357 20G<47 249.58 962.304 1153>
VStem: 512 176<0 529>
AnchorPoint: "Anchor-1" 600 0 basechar 0
AnchorPoint: "Anchor-0" 607 1377 basechar 0
LayerCount: 2
Fore
SplineSet
665 1821 m 1
 934 1606 l 1
 860 1521 l 1
 607 1681 l 1
 356 1521 l 1
 281 1606 l 1
 552 1821 l 1
 665 1821 l 1
688 531 m 1
 688 0 l 1
 512 0 l 1
 512 529 l 1
 47 1377 l 1
 239 1377 l 1
 604 687 l 1
 973 1377 l 1
 1153 1377 l 1
 688 531 l 1
EndSplineSet
Position2: "'cpsp' Capital Spacing lookup 0 subtable" dx=5 dy=0 dh=10 dv=0
EndChar

StartChar: Ydieresis
Encoding: 376 376 123
Width: 1200
GlyphClass: 2
Flags: W
HStem: 0 21G<512 688> 1357 20G<47 249.58 962.304 1153> 1536 214<310.898 486.648 725.058 900.808>
VStem: 290 218<1556.34 1729.53> 512 176<0 529> 704 218<1556.34 1729.53>
AnchorPoint: "Anchor-1" 600 0 basechar 0
AnchorPoint: "Anchor-0" 607 1377 basechar 0
LayerCount: 2
Fore
SplineSet
400 1536 m 0
 336 1536 290 1581 290 1642 c 0
 290 1705 336 1750 400 1750 c 0
 460 1750 508 1705 508 1642 c 0
 508 1581 460 1536 400 1536 c 0
812 1536 m 0
 751 1536 704 1581 704 1642 c 0
 704 1705 751 1750 812 1750 c 0
 875 1750 922 1705 922 1642 c 0
 922 1581 875 1536 812 1536 c 0
688 531 m 1
 688 0 l 1
 512 0 l 1
 512 529 l 1
 47 1377 l 1
 239 1377 l 1
 604 687 l 1
 973 1377 l 1
 1153 1377 l 1
 688 531 l 1
EndSplineSet
Position2: "'cpsp' Capital Spacing lookup 0 subtable" dx=5 dy=0 dh=10 dv=0
EndChar

StartChar: Ygrave
Encoding: 7922 7922 124
Width: 1200
GlyphClass: 2
Flags: W
HStem: 0 21G<512 688> 1357 20G<47 249.58 962.304 1153>
VStem: 512 176<0 529>
AnchorPoint: "Anchor-1" 600 0 basechar 0
AnchorPoint: "Anchor-0" 607 1377 basechar 0
LayerCount: 2
Fore
SplineSet
469 1819 m 1
 838 1601 l 1
 787 1511 l 1
 375 1675 l 1
 469 1819 l 1
688 531 m 1
 688 0 l 1
 512 0 l 1
 512 529 l 1
 47 1377 l 1
 239 1377 l 1
 604 687 l 1
 973 1377 l 1
 1153 1377 l 1
 688 531 l 1
EndSplineSet
Position2: "'cpsp' Capital Spacing lookup 0 subtable" dx=5 dy=0 dh=10 dv=0
EndChar

StartChar: Z
Encoding: 90 90 125
Width: 1200
GlyphClass: 2
Flags: W
HStem: 0 150<334 1034> 1229 148<215 871>
AnchorPoint: "Anchor-1" 600 0 basechar 0
AnchorPoint: "Anchor-0" 637 1377 basechar 0
LayerCount: 2
Fore
SplineSet
334 150 m 1
 1055 150 l 1
 1034 0 l 1
 143 0 l 1
 143 141 l 1
 871 1229 l 1
 215 1229 l 1
 215 1377 l 1
 1057 1377 l 1
 1057 1235 l 1
 334 150 l 1
EndSplineSet
Position2: "'cpsp' Capital Spacing lookup 0 subtable" dx=5 dy=0 dh=10 dv=0
EndChar

StartChar: Zacute
Encoding: 377 377 126
Width: 1200
GlyphClass: 2
Flags: W
HStem: 0 150<334 1034> 1229 148<215 871>
AnchorPoint: "Anchor-1" 600 0 basechar 0
AnchorPoint: "Anchor-0" 637 1377 basechar 0
LayerCount: 2
Fore
SplineSet
801 1812 m 1
 877 1668 l 1
 450 1511 l 1
 405 1601 l 1
 801 1812 l 1
334 150 m 1
 1055 150 l 1
 1034 0 l 1
 143 0 l 1
 143 141 l 1
 871 1229 l 1
 215 1229 l 1
 215 1377 l 1
 1057 1377 l 1
 1057 1235 l 1
 334 150 l 1
EndSplineSet
Substitution2: "'locl' Localized Forms in Latin lookup 22 subtable" Zacute.loclPLK
Substitution2: "'aalt' Access All Alternates lookup 0 subtable" Zacute.loclPLK
Position2: "'cpsp' Capital Spacing lookup 0 subtable" dx=5 dy=0 dh=10 dv=0
EndChar

StartChar: Zcaron
Encoding: 381 381 127
Width: 1200
GlyphClass: 2
Flags: W
HStem: 0 150<334 1034> 1229 148<215 871>
AnchorPoint: "Anchor-1" 600 0 basechar 0
AnchorPoint: "Anchor-0" 637 1377 basechar 0
LayerCount: 2
Fore
SplineSet
890 1809 m 1
 963 1724 l 1
 694 1509 l 1
 581 1509 l 1
 311 1724 l 1
 386 1809 l 1
 637 1648 l 1
 890 1809 l 1
334 150 m 1
 1055 150 l 1
 1034 0 l 1
 143 0 l 1
 143 141 l 1
 871 1229 l 1
 215 1229 l 1
 215 1377 l 1
 1057 1377 l 1
 1057 1235 l 1
 334 150 l 1
EndSplineSet
Position2: "'cpsp' Capital Spacing lookup 0 subtable" dx=5 dy=0 dh=10 dv=0
EndChar

StartChar: Zdotaccent
Encoding: 379 379 128
Width: 1200
GlyphClass: 2
Flags: W
HStem: 0 150<334 1034> 1229 148<215 871> 1548 238<539.876 731.789>
VStem: 514 244<1574.84 1759.32>
AnchorPoint: "Anchor-1" 600 0 basechar 0
AnchorPoint: "Anchor-0" 637 1377 basechar 0
LayerCount: 2
Fore
SplineSet
634 1786 m 0
 709 1786 758 1734 758 1668 c 0
 758 1600 709 1548 634 1548 c 0
 563 1548 514 1600 514 1668 c 0
 514 1734 563 1786 634 1786 c 0
334 150 m 1
 1055 150 l 1
 1034 0 l 1
 143 0 l 1
 143 141 l 1
 871 1229 l 1
 215 1229 l 1
 215 1377 l 1
 1057 1377 l 1
 1057 1235 l 1
 334 150 l 1
EndSplineSet
Position2: "'cpsp' Capital Spacing lookup 0 subtable" dx=5 dy=0 dh=10 dv=0
EndChar

StartChar: Cacute.loclPLK
Encoding: 1114113 -1 129
Width: 1200
GlyphClass: 2
Flags: W
HStem: -23 149<538.274 932.765> 1254 145<541.591 926.595>
VStem: 127 180<400.659 980.204>
AnchorPoint: "Anchor-1" 699 0 basechar 0
AnchorPoint: "Anchor-0" 731 1377 basechar 0
LayerCount: 2
Fore
SplineSet
841 1829 m 1
 973 1743 l 1
 713 1455 l 1
 630 1507 l 1
 841 1829 l 1
716 1399 m 0
 896 1399 1006 1353 1115 1265 c 1
 1018 1152 l 1
 931 1225 834 1254 729 1254 c 0
 503 1254 307 1110 307 689 c 0
 307 279 491 126 725 126 c 0
 879 126 972 181 1045 241 c 1
 1135 127 l 1
 1051 45 919 -23 723 -23 c 0
 387 -23 127 227 127 689 c 0
 127 1153 397 1399 716 1399 c 0
EndSplineSet
Position2: "'cpsp' Capital Spacing lookup 0 subtable" dx=5 dy=0 dh=10 dv=0
EndChar

StartChar: Nacute.loclPLK
Encoding: 1114114 -1 130
Width: 1200
GlyphClass: 2
Flags: W
HStem: 0 21G<167 328 781.99 1033> 1357 20G<167 410.109 872 1033>
VStem: 167 161<0 1180.12> 167 138<740.456 1211> 872 161<194.449 1377> 895 138<161 630.417>
AnchorPoint: "Anchor-1" 600 0 basechar 0
AnchorPoint: "Anchor-0" 597 1377 basechar 0
LayerCount: 2
Fore
SplineSet
707 1829 m 1xc0
 839 1743 l 1
 579 1455 l 1
 496 1507 l 1
 707 1829 l 1xc0
790 0 m 1
 305 1211 l 1xd4
 307 1151 328 903 328 690 c 2
 328 0 l 1
 167 0 l 1xe0
 167 1377 l 1
 402 1377 l 1
 895 161 l 1xd4
 893 218 872 440 872 688 c 2
 872 1377 l 1
 1033 1377 l 1xc8
 1033 0 l 1xc4
 790 0 l 1
EndSplineSet
Position2: "'cpsp' Capital Spacing lookup 0 subtable" dx=5 dy=0 dh=10 dv=0
EndChar

StartChar: Oacute.loclPLK
Encoding: 1114115 -1 131
Width: 1200
GlyphClass: 2
Flags: W
HStem: -23 146<444.01 757.279> 1254 145<442.721 757.279>
VStem: 93 182<359.921 1009.95> 925 182<363.177 1013.2>
AnchorPoint: "Anchor-1" 600 0 basechar 0
AnchorPoint: "Anchor-0" 600 1377 basechar 0
LayerCount: 2
Fore
SplineSet
710 1829 m 1
 842 1743 l 1
 581 1455 l 1
 498 1507 l 1
 710 1829 l 1
1107 687 m 0
 1107 269 935 -23 600 -23 c 0
 265 -23 93 259 93 685 c 0
 93 1103 265 1399 600 1399 c 0
 935 1399 1107 1113 1107 687 c 0
925 687 m 0
 925 1054 832 1254 600 1254 c 0
 368 1254 275 1052 275 685 c 0
 275 318 374 123 600 123 c 0
 832 123 925 320 925 687 c 0
EndSplineSet
Position2: "'cpsp' Capital Spacing lookup 0 subtable" dx=5 dy=0 dh=10 dv=0
EndChar

StartChar: Sacute.loclPLK
Encoding: 1114116 -1 132
Width: 1200
GlyphClass: 2
Flags: W
HStem: -23 146<345.812 760.066> 1254 145<421.192 805.08>
VStem: 147 177<940.042 1171.17> 893 180<244.127 513.952>
AnchorPoint: "Anchor-1" 593 0 basechar 0
AnchorPoint: "Anchor-0" 611 1377 basechar 0
LayerCount: 2
Fore
SplineSet
721 1829 m 1
 852 1743 l 1
 592 1455 l 1
 509 1507 l 1
 721 1829 l 1
1073 381 m 0
 1073 144 890 -23 570 -23 c 0
 369 -23 203 41 87 153 c 1
 190 269 l 1
 285 179 405 123 573 123 c 0
 740 123 893 205 893 378 c 0
 893 511 828 577 591 647 c 0
 319 727 147 826 147 1045 c 0
 147 1251 330 1399 593 1399 c 0
 783 1399 918 1343 1033 1242 c 1
 931 1129 l 1
 833 1216 716 1254 599 1254 c 0
 449 1254 324 1188 324 1051 c 0
 324 931 409 873 671 796 c 0
 885 734 1073 645 1073 381 c 0
EndSplineSet
Position2: "'cpsp' Capital Spacing lookup 0 subtable" dx=5 dy=0 dh=10 dv=0
EndChar

StartChar: Zacute.loclPLK
Encoding: 1114117 -1 133
Width: 1200
GlyphClass: 2
Flags: W
HStem: 0 150<334 1034> 1229 148<215 871>
AnchorPoint: "Anchor-1" 600 0 basechar 0
AnchorPoint: "Anchor-0" 637 1377 basechar 0
LayerCount: 2
Fore
SplineSet
747 1829 m 1
 878 1743 l 1
 618 1455 l 1
 535 1507 l 1
 747 1829 l 1
334 150 m 1
 1055 150 l 1
 1034 0 l 1
 143 0 l 1
 143 141 l 1
 871 1229 l 1
 215 1229 l 1
 215 1377 l 1
 1057 1377 l 1
 1057 1235 l 1
 334 150 l 1
EndSplineSet
Position2: "'cpsp' Capital Spacing lookup 0 subtable" dx=5 dy=0 dh=10 dv=0
EndChar

StartChar: a
Encoding: 97 97 134
Width: 1200
GlyphClass: 2
Flags: W
HStem: -23 128<376.371 673.973 970.853 1004.86> 525 114<418.812 786> 936 139<292.281 712.657>
VStem: 137 180<166.862 437.932> 786 169<201.68 525 639 860.004>
AnchorPoint: "Anchor-1" 600 0 basechar 0
AnchorPoint: "Anchor-0" 584 1053 basechar 0
LayerCount: 2
Fore
SplineSet
955 230 m 2
 955 145 982 113 1041 95 c 1
 1000 -23 l 1
 909 -11 837 31 807 125 c 1
 732 27 613 -23 477 -23 c 0
 266 -23 137 106 137 302 c 0
 137 519 311 639 631 639 c 2
 786 639 l 1
 786 727 l 2
 786 879 692 936 535 936 c 0
 465 936 370 920 261 882 c 1
 217 1009 l 1
 345 1057 459 1075 561 1075 c 0
 823 1075 955 943 955 735 c 2
 955 230 l 2
520 105 m 0
 624 105 723 160 786 254 c 1
 786 525 l 1
 634 525 l 2
 402 525 317 439 317 304 c 0
 317 173 383 105 520 105 c 0
EndSplineSet
Substitution2: "Single Substitution lookup 12 subtable" ordfeminine
Substitution2: "'aalt' Access All Alternates lookup 0 subtable" ordfeminine
EndChar

StartChar: aacute
Encoding: 225 225 135
Width: 1200
GlyphClass: 2
Flags: W
HStem: -23 128<376.371 673.973 970.853 1004.86> 525 114<418.812 786> 936 139<292.281 712.657>
VStem: 137 180<166.862 437.932> 786 169<201.68 525 639 860.004>
AnchorPoint: "Anchor-1" 600 0 basechar 0
AnchorPoint: "Anchor-0" 584 1053 basechar 0
LayerCount: 2
Fore
SplineSet
751 1594 m 1
 829 1450 l 1
 411 1280 l 1
 358 1370 l 1
 751 1594 l 1
955 230 m 2
 955 145 982 113 1041 95 c 1
 1000 -23 l 1
 909 -11 837 31 807 125 c 1
 732 27 613 -23 477 -23 c 0
 266 -23 137 106 137 302 c 0
 137 519 311 639 631 639 c 2
 786 639 l 1
 786 727 l 2
 786 879 692 936 535 936 c 0
 465 936 370 920 261 882 c 1
 217 1009 l 1
 345 1057 459 1075 561 1075 c 0
 823 1075 955 943 955 735 c 2
 955 230 l 2
520 105 m 0
 624 105 723 160 786 254 c 1
 786 525 l 1
 634 525 l 2
 402 525 317 439 317 304 c 0
 317 173 383 105 520 105 c 0
EndSplineSet
EndChar

StartChar: abreve
Encoding: 259 259 136
Width: 1200
GlyphClass: 2
Flags: W
HStem: -23 128<376.371 673.973 970.853 1004.86> 525 114<418.812 786> 936 139<292.281 712.657> 1260 129<469.749 694.826>
VStem: 137 180<166.862 437.932> 285 116<1460.69 1534.14> 764 117<1466.59 1534.11> 786 169<201.68 525 639 860.004>
AnchorPoint: "Anchor-1" 600 0 basechar 0
AnchorPoint: "Anchor-0" 584 1053 basechar 0
LayerCount: 2
Fore
SplineSet
579 1260 m 0xf6
 397 1260 301 1409 285 1531 c 1
 401 1557 l 1
 428 1457 485 1389 579 1389 c 0
 676 1389 737 1457 764 1557 c 1
 881 1531 l 1
 865 1409 763 1260 579 1260 c 0xf6
955 230 m 2xf9
 955 145 982 113 1041 95 c 1
 1000 -23 l 1
 909 -11 837 31 807 125 c 1
 732 27 613 -23 477 -23 c 0
 266 -23 137 106 137 302 c 0
 137 519 311 639 631 639 c 2
 786 639 l 1
 786 727 l 2
 786 879 692 936 535 936 c 0
 465 936 370 920 261 882 c 1
 217 1009 l 1
 345 1057 459 1075 561 1075 c 0
 823 1075 955 943 955 735 c 2
 955 230 l 2xf9
520 105 m 0
 624 105 723 160 786 254 c 1
 786 525 l 1
 634 525 l 2
 402 525 317 439 317 304 c 0
 317 173 383 105 520 105 c 0
EndSplineSet
EndChar

StartChar: acircumflex
Encoding: 226 226 137
Width: 1200
GlyphClass: 2
Flags: W
HStem: -23 128<376.371 673.973 970.853 1004.86> 525 114<418.812 786> 936 139<292.281 712.657>
VStem: 137 180<166.862 437.932> 786 169<201.68 525 639 860.004>
AnchorPoint: "Anchor-1" 600 0 basechar 0
AnchorPoint: "Anchor-0" 584 1053 basechar 0
LayerCount: 2
Fore
SplineSet
338 1258 m 1
 257 1341 l 1
 528 1579 l 1
 641 1579 l 1
 910 1341 l 1
 834 1258 l 1
 586 1439 l 1
 338 1258 l 1
955 230 m 2
 955 145 982 113 1041 95 c 1
 1000 -23 l 1
 909 -11 837 31 807 125 c 1
 732 27 613 -23 477 -23 c 0
 266 -23 137 106 137 302 c 0
 137 519 311 639 631 639 c 2
 786 639 l 1
 786 727 l 2
 786 879 692 936 535 936 c 0
 465 936 370 920 261 882 c 1
 217 1009 l 1
 345 1057 459 1075 561 1075 c 0
 823 1075 955 943 955 735 c 2
 955 230 l 2
520 105 m 0
 624 105 723 160 786 254 c 1
 786 525 l 1
 634 525 l 2
 402 525 317 439 317 304 c 0
 317 173 383 105 520 105 c 0
EndSplineSet
EndChar

StartChar: adieresis
Encoding: 228 228 138
Width: 1200
GlyphClass: 2
Flags: W
HStem: -23 128<376.371 673.973 970.853 1004.86> 525 114<418.812 786> 936 139<292.281 712.657> 1297 214<287.259 462.715 701.991 877.447>
VStem: 137 180<166.862 437.932> 266 218<1317.34 1490.24> 681 218<1317.34 1490.24> 786 169<201.68 525 639 860.004>
AnchorPoint: "Anchor-1" 600 0 basechar 0
AnchorPoint: "Anchor-0" 584 1400 basechar 0
LayerCount: 2
Fore
SplineSet
377 1297 m 0xf4
 313 1297 266 1342 266 1403 c 0
 266 1465 313 1511 377 1511 c 0
 436 1511 484 1465 484 1403 c 0
 484 1342 436 1297 377 1297 c 0xf4
788 1297 m 0
 728 1297 681 1342 681 1403 c 0
 681 1465 728 1511 788 1511 c 0
 851 1511 899 1465 899 1403 c 0xf2
 899 1342 851 1297 788 1297 c 0
955 230 m 2xf9
 955 145 982 113 1041 95 c 1
 1000 -23 l 1
 909 -11 837 31 807 125 c 1
 732 27 613 -23 477 -23 c 0
 266 -23 137 106 137 302 c 0
 137 519 311 639 631 639 c 2
 786 639 l 1
 786 727 l 2
 786 879 692 936 535 936 c 0
 465 936 370 920 261 882 c 1
 217 1009 l 1
 345 1057 459 1075 561 1075 c 0
 823 1075 955 943 955 735 c 2
 955 230 l 2xf9
520 105 m 0
 624 105 723 160 786 254 c 1
 786 525 l 1
 634 525 l 2
 402 525 317 439 317 304 c 0
 317 173 383 105 520 105 c 0
EndSplineSet
EndChar

StartChar: agrave
Encoding: 224 224 139
Width: 1200
GlyphClass: 2
Flags: W
HStem: -23 128<376.371 673.973 970.853 1004.86> 525 114<418.812 786> 936 139<292.281 712.657>
VStem: 137 180<166.862 437.932> 786 169<201.68 525 639 860.004>
AnchorPoint: "Anchor-1" 600 0 basechar 0
AnchorPoint: "Anchor-0" 584 1053 basechar 0
LayerCount: 2
Fore
SplineSet
757 1244 m 1
 353 1430 l 1
 442 1573 l 1
 811 1337 l 1
 757 1244 l 1
955 230 m 2
 955 145 982 113 1041 95 c 1
 1000 -23 l 1
 909 -11 837 31 807 125 c 1
 732 27 613 -23 477 -23 c 0
 266 -23 137 106 137 302 c 0
 137 519 311 639 631 639 c 2
 786 639 l 1
 786 727 l 2
 786 879 692 936 535 936 c 0
 465 936 370 920 261 882 c 1
 217 1009 l 1
 345 1057 459 1075 561 1075 c 0
 823 1075 955 943 955 735 c 2
 955 230 l 2
520 105 m 0
 624 105 723 160 786 254 c 1
 786 525 l 1
 634 525 l 2
 402 525 317 439 317 304 c 0
 317 173 383 105 520 105 c 0
EndSplineSet
EndChar

StartChar: amacron
Encoding: 257 257 140
Width: 1200
GlyphClass: 2
Flags: W
HStem: -23 128<376.371 673.973 970.853 1004.86> 525 114<418.812 786> 936 139<292.281 712.657> 1352 128<313 852>
VStem: 137 180<166.862 437.932> 786 169<201.68 525 639 860.004>
AnchorPoint: "Anchor-1" 600 0 basechar 0
AnchorPoint: "Anchor-0" 584 1053 basechar 0
LayerCount: 2
Fore
SplineSet
852 1352 m 1
 313 1352 l 1
 313 1480 l 1
 852 1480 l 1
 852 1352 l 1
955 230 m 2
 955 145 982 113 1041 95 c 1
 1000 -23 l 1
 909 -11 837 31 807 125 c 1
 732 27 613 -23 477 -23 c 0
 266 -23 137 106 137 302 c 0
 137 519 311 639 631 639 c 2
 786 639 l 1
 786 727 l 2
 786 879 692 936 535 936 c 0
 465 936 370 920 261 882 c 1
 217 1009 l 1
 345 1057 459 1075 561 1075 c 0
 823 1075 955 943 955 735 c 2
 955 230 l 2
520 105 m 0
 624 105 723 160 786 254 c 1
 786 525 l 1
 634 525 l 2
 402 525 317 439 317 304 c 0
 317 173 383 105 520 105 c 0
EndSplineSet
EndChar

StartChar: aogonek
Encoding: 261 261 141
Width: 1200
GlyphClass: 2
Flags: W
HStem: -482 134<763.577 970.019> -23 128<376.371 673.973> 525 114<418.812 786> 936 139<292.281 712.657>
VStem: 137 180<166.862 437.932> 600 152<-335.23 -149.579> 786 169<201.68 525 639 860.004>
AnchorPoint: "Anchor-1" 600 0 basechar 0
AnchorPoint: "Anchor-0" 584 1053 basechar 0
LayerCount: 2
Fore
SplineSet
955 230 m 2
 955 145 982 113 1041 95 c 1
 1000 -23 l 1
 794 -114 752 -181 752 -252 c 0
 752 -311 780 -348 863 -348 c 0
 905 -348 937 -344 988 -334 c 1
 970 -468 l 1
 930 -476 895 -482 843 -482 c 0
 691 -482 600 -396 600 -285 c 0
 600 -160 689 -62 893 12 c 1
 854 36 824 73 807 125 c 1
 732 27 613 -23 477 -23 c 0
 266 -23 137 106 137 302 c 0
 137 519 311 639 631 639 c 2
 786 639 l 1
 786 727 l 2
 786 879 692 936 535 936 c 0
 465 936 370 920 261 882 c 1
 217 1009 l 1
 345 1057 459 1075 561 1075 c 0
 823 1075 955 943 955 735 c 2
 955 230 l 2
520 105 m 0
 624 105 723 160 786 254 c 1
 786 525 l 1
 634 525 l 2
 402 525 317 439 317 304 c 0
 317 173 383 105 520 105 c 0
EndSplineSet
EndChar

StartChar: aring
Encoding: 229 229 142
Width: 1200
GlyphClass: 2
Flags: W
HStem: -23 128<376.371 673.973 970.853 1004.86> 525 114<418.812 786> 936 139<292.281 712.657> 1238 90<495.386 672.908> 1555 92<497.923 672.908>
VStem: 137 180<166.862 437.932> 362 114<1347.46 1535.85> 692 114<1347.46 1535.85> 786 169<201.68 525 639 860.004>
AnchorPoint: "Anchor-1" 600 0 basechar 0
AnchorPoint: "Anchor-0" 584 1053 basechar 0
LayerCount: 2
Fore
SplineSet
584 1647 m 0xff
 713 1647 806 1557 806 1441 c 0
 806 1328 713 1238 584 1238 c 0
 455 1238 362 1328 362 1441 c 0
 362 1557 455 1647 584 1647 c 0xff
584 1555 m 0
 519 1555 476 1511 476 1441 c 0
 476 1371 519 1328 584 1328 c 0
 651 1328 692 1371 692 1441 c 0
 692 1511 651 1555 584 1555 c 0
955 230 m 2xfe80
 955 145 982 113 1041 95 c 1
 1000 -23 l 1
 909 -11 837 31 807 125 c 1
 732 27 613 -23 477 -23 c 0
 266 -23 137 106 137 302 c 0
 137 519 311 639 631 639 c 2
 786 639 l 1
 786 727 l 2
 786 879 692 936 535 936 c 0
 465 936 370 920 261 882 c 1
 217 1009 l 1
 345 1057 459 1075 561 1075 c 0
 823 1075 955 943 955 735 c 2
 955 230 l 2xfe80
520 105 m 0
 624 105 723 160 786 254 c 1
 786 525 l 1
 634 525 l 2
 402 525 317 439 317 304 c 0
 317 173 383 105 520 105 c 0
EndSplineSet
EndChar

StartChar: atilde
Encoding: 227 227 143
Width: 1200
GlyphClass: 2
Flags: W
HStem: -23 128<376.371 673.973 970.853 1004.86> 525 114<418.812 786> 936 139<292.281 712.657> 1317 130<605.785 774.866> 1414 129<392.841 564.571>
VStem: 137 180<166.862 437.932> 786 169<201.68 525 639 860.004>
AnchorPoint: "Anchor-1" 600 0 basechar 0
AnchorPoint: "Anchor-0" 584 1053 basechar 0
LayerCount: 2
Fore
SplineSet
700 1317 m 0xf6
 595 1317 541 1414 468 1414 c 0
 422 1414 394 1381 362 1321 c 1
 255 1375 l 1
 300 1469 371 1543 469 1543 c 0xee
 579 1543 626 1447 701 1447 c 0
 740 1447 771 1475 807 1535 c 1
 913 1481 l 1
 861 1370 787 1317 700 1317 c 0xf6
955 230 m 2
 955 145 982 113 1041 95 c 1
 1000 -23 l 1
 909 -11 837 31 807 125 c 1
 732 27 613 -23 477 -23 c 0
 266 -23 137 106 137 302 c 0
 137 519 311 639 631 639 c 2
 786 639 l 1
 786 727 l 2
 786 879 692 936 535 936 c 0
 465 936 370 920 261 882 c 1
 217 1009 l 1
 345 1057 459 1075 561 1075 c 0
 823 1075 955 943 955 735 c 2
 955 230 l 2
520 105 m 0
 624 105 723 160 786 254 c 1
 786 525 l 1
 634 525 l 2
 402 525 317 439 317 304 c 0
 317 173 383 105 520 105 c 0
EndSplineSet
EndChar

StartChar: ae
Encoding: 230 230 144
Width: 1200
GlyphClass: 2
Flags: W
HStem: -23 130<217.922 427.543 786.035 1024.56> 465 132<671 1049> 525 116<251.844 507> 935 140<141.622 453.14 754.259 974.729>
VStem: -12 181<158.372 449.486> 507 164<297.333 465 641 826.801> 1049 164<597 842.118>
AnchorPoint: "Anchor-0" 617 1053 basechar 0
LayerCount: 2
Fore
SplineSet
869 1075 m 0xbe
 1108 1075 1213 879 1213 559 c 0
 1213 523 1212 491 1209 465 c 1
 671 465 l 1xde
 689 226 756 118 897 118 c 0
 975 118 1029 147 1095 197 c 1
 1173 82 l 1
 1093 19 1009 -23 895 -23 c 0
 753 -23 661 39 587 169 c 1
 504 29 427 -23 293 -23 c 0
 107 -23 -12 106 -12 302 c 0
 -12 521 136 641 417 641 c 2
 507 641 l 1
 507 727 l 2
 507 874 441 935 325 935 c 0
 255 935 203 919 117 881 c 1
 71 1008 l 1
 160 1049 255 1075 341 1075 c 0
 495 1075 568 1006 607 900 c 1
 648 1009 738 1075 869 1075 c 0xbe
864 936 m 0
 744 936 689 847 671 597 c 1
 1049 597 l 1
 1045 819 1001 936 864 936 c 0
507 525 m 1xbe
 423 525 l 2
 231 525 169 440 169 311 c 0
 169 177 228 107 317 107 c 0
 407 107 467 171 532 294 c 1
 516 365 507 442 507 525 c 1xbe
EndSplineSet
EndChar

StartChar: aeacute
Encoding: 509 509 145
Width: 1200
GlyphClass: 2
Flags: W
HStem: -23 130<217.922 427.543 786.035 1024.56> 465 132<671 1049> 525 116<251.844 507> 935 140<141.622 453.14 754.259 974.729>
VStem: -12 181<158.372 449.486> 507 164<297.333 465 641 826.801> 1049 164<597 842.118>
AnchorPoint: "Anchor-0" 617 1053 basechar 0
LayerCount: 2
Fore
SplineSet
785 1594 m 1x9e
 862 1450 l 1
 444 1280 l 1
 392 1370 l 1
 785 1594 l 1x9e
869 1075 m 0
 1108 1075 1213 879 1213 559 c 0
 1213 523 1212 491 1209 465 c 1
 671 465 l 1xde
 689 226 756 118 897 118 c 0
 975 118 1029 147 1095 197 c 1
 1173 82 l 1
 1093 19 1009 -23 895 -23 c 0
 753 -23 661 39 587 169 c 1
 504 29 427 -23 293 -23 c 0
 107 -23 -12 106 -12 302 c 0
 -12 521 136 641 417 641 c 2
 507 641 l 1xbe
 507 727 l 2
 507 874 441 935 325 935 c 0
 255 935 203 919 117 881 c 1
 71 1008 l 1
 160 1049 255 1075 341 1075 c 0
 495 1075 568 1006 607 900 c 1
 648 1009 738 1075 869 1075 c 0
864 936 m 0
 744 936 689 847 671 597 c 1
 1049 597 l 1
 1045 819 1001 936 864 936 c 0
507 525 m 1xbe
 423 525 l 2
 231 525 169 440 169 311 c 0
 169 177 228 107 317 107 c 0
 407 107 467 171 532 294 c 1
 516 365 507 442 507 525 c 1xbe
EndSplineSet
EndChar

StartChar: b
Encoding: 98 98 146
Width: 1200
GlyphClass: 2
Flags: W
HStem: -23 136<461.926 754.258> 0 21G<201 350.202> 940 135<500.933 764.621> 1478 20G<209 369>
VStem: 201 168<195.468 825.769 916 1477> 201 147<0 109> 881 183<267.56 791.708>
AnchorPoint: "Anchor-1" 600 0 basechar 0
AnchorPoint: "Anchor-0" 600 1477 basechar 0
LayerCount: 2
Fore
SplineSet
369 916 m 1x7a
 446 1017 548 1075 669 1075 c 0
 951 1075 1064 857 1064 527 c 0
 1064 208 919 -23 647 -23 c 0xba
 525 -23 431 19 360 109 c 1
 348 0 l 1
 201 0 l 1x76
 201 1477 l 1
 369 1498 l 1
 369 916 l 1x7a
607 113 m 0
 783 113 881 247 881 528 c 0
 881 803 795 940 633 940 c 0
 515 940 426 856 369 771 c 1
 369 249 l 1
 424 165 511 113 607 113 c 0
EndSplineSet
EndChar

StartChar: c
Encoding: 99 99 147
Width: 1200
GlyphClass: 2
Flags: W
HStem: -23 145<512.899 866.573> 935 140<522.867 861.476>
VStem: 183 182<292.762 756.225>
AnchorPoint: "Anchor-1" 678 0 basechar 0
AnchorPoint: "Anchor-0" 688 1036 basechar 0
LayerCount: 2
Fore
SplineSet
677 122 m 0
 783 122 873 160 951 214 c 1
 1033 104 l 1
 941 26 801 -23 677 -23 c 0
 362 -23 183 192 183 522 c 0
 183 838 363 1075 679 1075 c 0
 814 1075 931 1034 1031 953 c 1
 949 841 l 1
 859 903 769 935 677 935 c 0
 495 935 365 800 365 522 c 0
 365 241 496 122 677 122 c 0
EndSplineSet
EndChar

StartChar: cacute
Encoding: 263 263 148
Width: 1200
GlyphClass: 2
Flags: W
HStem: -23 145<512.899 866.573> 935 140<522.867 861.476>
VStem: 183 182<292.762 756.225>
AnchorPoint: "Anchor-1" 678 0 basechar 0
AnchorPoint: "Anchor-0" 688 1036 basechar 0
LayerCount: 2
Fore
SplineSet
855 1577 m 1
 933 1433 l 1
 515 1263 l 1
 463 1354 l 1
 855 1577 l 1
677 122 m 0
 783 122 873 160 951 214 c 1
 1033 104 l 1
 941 26 801 -23 677 -23 c 0
 362 -23 183 192 183 522 c 0
 183 838 363 1075 679 1075 c 0
 814 1075 931 1034 1031 953 c 1
 949 841 l 1
 859 903 769 935 677 935 c 0
 495 935 365 800 365 522 c 0
 365 241 496 122 677 122 c 0
EndSplineSet
Substitution2: "'locl' Localized Forms in Latin lookup 22 subtable" cacute.loclPLK
Substitution2: "'aalt' Access All Alternates lookup 0 subtable" cacute.loclPLK
EndChar

StartChar: ccaron
Encoding: 269 269 149
Width: 1200
GlyphClass: 2
Flags: W
HStem: -23 145<512.899 866.573> 935 140<522.867 861.476>
VStem: 183 182<292.762 756.225>
AnchorPoint: "Anchor-1" 678 0 basechar 0
AnchorPoint: "Anchor-0" 688 1036 basechar 0
LayerCount: 2
Fore
SplineSet
939 1562 m 1
 1015 1478 l 1
 746 1241 l 1
 633 1241 l 1
 362 1478 l 1
 442 1562 l 1
 690 1380 l 1
 939 1562 l 1
677 122 m 0
 783 122 873 160 951 214 c 1
 1033 104 l 1
 941 26 801 -23 677 -23 c 0
 362 -23 183 192 183 522 c 0
 183 838 363 1075 679 1075 c 0
 814 1075 931 1034 1031 953 c 1
 949 841 l 1
 859 903 769 935 677 935 c 0
 495 935 365 800 365 522 c 0
 365 241 496 122 677 122 c 0
EndSplineSet
EndChar

StartChar: ccedilla
Encoding: 231 231 150
Width: 1200
GlyphClass: 2
Flags: W
HStem: -477 114<484.213 748.095> -19 141<515.926 599 718 866.146> 935 140<522.867 861.476>
VStem: 183 182<289.876 756.225> 759 144<-348.38 -212.927>
AnchorPoint: "Anchor-1" 678 0 basechar 0
AnchorPoint: "Anchor-0" 688 1036 basechar 0
LayerCount: 2
Fore
SplineSet
677 122 m 0
 783 122 873 160 951 214 c 1
 1033 104 l 1
 951 34 831 -12 718 -21 c 1
 718 -114 l 1
 849 -125 903 -201 903 -281 c 0
 903 -412 788 -477 659 -477 c 0
 579 -477 502 -458 450 -428 c 1
 504 -331 l 1
 542 -351 595 -363 639 -363 c 0
 709 -363 759 -341 759 -281 c 0
 759 -209 692 -195 585 -195 c 1
 599 -19 l 1
 333 15 183 220 183 522 c 0
 183 838 363 1075 679 1075 c 0
 814 1075 931 1034 1031 953 c 1
 949 841 l 1
 859 903 769 935 677 935 c 0
 495 935 365 800 365 522 c 0
 365 241 496 122 677 122 c 0
EndSplineSet
EndChar

StartChar: ccircumflex
Encoding: 265 265 151
Width: 1200
GlyphClass: 2
Flags: W
HStem: -23 145<512.899 866.573> 935 140<522.867 861.476>
VStem: 183 182<292.762 756.225>
AnchorPoint: "Anchor-1" 678 0 basechar 0
AnchorPoint: "Anchor-0" 688 1036 basechar 0
LayerCount: 2
Fore
SplineSet
442 1241 m 1
 362 1324 l 1
 633 1562 l 1
 746 1562 l 1
 1015 1324 l 1
 939 1241 l 1
 690 1422 l 1
 442 1241 l 1
677 122 m 0
 783 122 873 160 951 214 c 1
 1033 104 l 1
 941 26 801 -23 677 -23 c 0
 362 -23 183 192 183 522 c 0
 183 838 363 1075 679 1075 c 0
 814 1075 931 1034 1031 953 c 1
 949 841 l 1
 859 903 769 935 677 935 c 0
 495 935 365 800 365 522 c 0
 365 241 496 122 677 122 c 0
EndSplineSet
EndChar

StartChar: cdotaccent
Encoding: 267 267 152
Width: 1200
GlyphClass: 2
Flags: W
HStem: -23 145<512.899 866.573> 935 140<522.867 861.476> 1292 238<590.959 782.873>
VStem: 183 182<292.762 756.225> 565 244<1318.84 1503.32>
AnchorPoint: "Anchor-1" 678 0 basechar 0
AnchorPoint: "Anchor-0" 688 1036 basechar 0
LayerCount: 2
Fore
SplineSet
686 1530 m 0
 760 1530 809 1478 809 1412 c 0
 809 1344 760 1292 686 1292 c 0
 614 1292 565 1344 565 1412 c 0
 565 1478 614 1530 686 1530 c 0
677 122 m 0
 783 122 873 160 951 214 c 1
 1033 104 l 1
 941 26 801 -23 677 -23 c 0
 362 -23 183 192 183 522 c 0
 183 838 363 1075 679 1075 c 0
 814 1075 931 1034 1031 953 c 1
 949 841 l 1
 859 903 769 935 677 935 c 0
 495 935 365 800 365 522 c 0
 365 241 496 122 677 122 c 0
EndSplineSet
EndChar

StartChar: d
Encoding: 100 100 153
Width: 1200
GlyphClass: 2
Flags: W
HStem: -23 136<440.511 706.719> 0 21G<849.698 999> 940 135<454.034 732.503> 1478 20G<831 991>
VStem: 136 183<262.102 783.847> 831 168<224.198 855.6 951 1477> 852 147<0 121.625>
AnchorPoint: "Anchor-1" 600 0 basechar 0
AnchorPoint: "Anchor-0" 600 1477 basechar 0
LayerCount: 2
Fore
SplineSet
831 1498 m 1xbc
 999 1477 l 1xbc
 999 0 l 1
 852 0 l 1x7a
 836 139 l 1
 757 27 653 -23 537 -23 c 0
 262 -23 136 199 136 525 c 0
 136 842 289 1075 549 1075 c 0
 670 1075 761 1033 831 951 c 1
 831 1498 l 1xbc
593 940 m 0
 417 940 319 803 319 525 c 0
 319 252 407 113 572 113 c 0
 691 113 774 193 831 279 c 1
 831 805 l 1
 774 890 690 940 593 940 c 0
EndSplineSet
EndChar

StartChar: eth
Encoding: 240 240 154
Width: 1200
Flags: W
HStem: -23 136<443.103 741.075> 827 135<435.099 753.302> 1063 21G<419.656 478.259> 1366 132<300.076 428.4>
VStem: 134 171<268.52 682.239> 895 170<297.556 688.259>
LayerCount: 2
Fore
SplineSet
339 1124 m 1
 501 1293 l 1
 435 1325 359 1347 267 1366 c 1
 304 1498 l 1
 421 1473 521 1443 603 1399 c 1
 742 1547 l 1
 843 1459 l 1
 719 1331 l 1
 957 1167 1065 910 1065 527 c 0
 1065 190 877 -23 590 -23 c 0
 338 -23 134 155 134 470 c 0
 134 766 331 962 559 962 c 0
 695 962 798 912 875 824 c 1
 837 993 743 1132 615 1225 c 1
 459 1063 l 1
 339 1124 l 1
895 535 m 0
 895 582 893 623 889 665 c 1
 821 771 710 827 581 827 c 0
 435 827 305 721 305 479 c 0
 305 240 422 113 587 113 c 0
 775 113 895 257 895 535 c 0
EndSplineSet
EndChar

StartChar: dcaron
Encoding: 271 271 155
Width: 1200
GlyphClass: 2
Flags: W
HStem: -23 136<382.838 649.162> 0 21G<791.698 941> 940 135<390.969 674.54> 1478 20G<773 933 1071.33 1227>
VStem: 79 182<262.102 783.847> 773 168<224.198 855.6 951 1477> 794 147<0 121.625>
AnchorPoint: "Anchor-1" 542 0 basechar 0
AnchorPoint: "Anchor-0" 542 1477 basechar 0
LayerCount: 2
Fore
SplineSet
773 1498 m 1xbc
 941 1477 l 1xbc
 941 0 l 1
 794 0 l 1x7a
 778 139 l 1
 700 27 595 -23 479 -23 c 0
 205 -23 79 199 79 525 c 0
 79 842 231 1075 492 1075 c 0
 612 1075 703 1033 773 951 c 1
 773 1498 l 1xbc
1074 1494 m 1
 1227 1476 l 1
 1120 1120 l 1
 1026 1134 l 1
 1074 1494 l 1
535 940 m 0
 359 940 261 803 261 525 c 0
 261 252 349 113 515 113 c 0
 633 113 717 193 773 279 c 1
 773 805 l 1
 716 890 632 940 535 940 c 0
EndSplineSet
EndChar

StartChar: dcroat
Encoding: 273 273 156
Width: 1200
GlyphClass: 2
Flags: W
HStem: -23 136<445.511 711.65> 0 21G<853.698 1004> 940 135<458.728 737.297> 1195 134<493 836 1004 1161> 1478 20G<836 996>
VStem: 141 183<262.102 783.847> 836 168<224.198 855.6 951 1195 1329 1477> 856 148<0 121.625>
AnchorPoint: "Anchor-1" 605 0 basechar 0
AnchorPoint: "Anchor-0" 605 1477 basechar 0
LayerCount: 2
Fore
SplineSet
1004 1329 m 1xbe
 1161 1329 l 1
 1161 1195 l 1
 1004 1195 l 1xbe
 1004 0 l 1
 856 0 l 1x7d
 840 139 l 1
 762 27 658 -23 542 -23 c 0
 267 -23 141 199 141 525 c 0
 141 842 293 1075 554 1075 c 0
 674 1075 766 1033 836 951 c 1
 836 1195 l 1
 493 1195 l 1
 493 1329 l 1
 836 1329 l 1
 836 1498 l 1
 1004 1477 l 1
 1004 1329 l 1xbe
597 940 m 0
 422 940 324 803 324 525 c 0
 324 252 412 113 577 113 c 0
 696 113 779 193 836 279 c 1
 836 805 l 1
 779 890 695 940 597 940 c 0
EndSplineSet
EndChar

StartChar: e
Encoding: 101 101 157
Width: 1200
GlyphClass: 2
Flags: W
HStem: -23 140<480.257 832.681> 467 130<334 883> 937 138<469.807 757.827>
VStem: 157 176<277.703 467 597 770.092> 883 162<597 797.972>
AnchorPoint: "Anchor-1" 600 0 basechar 0
AnchorPoint: "Anchor-0" 621 1053 basechar 0
LayerCount: 2
Fore
SplineSet
333 467 m 1
 342 223 478 117 641 117 c 0
 748 117 829 149 922 212 c 1
 1001 101 l 1
 903 24 770 -23 639 -23 c 0
 331 -23 157 198 157 525 c 0
 157 844 337 1075 617 1075 c 0
 883 1075 1045 879 1045 559 c 0
 1045 523 1043 490 1041 467 c 1
 333 467 l 1
619 937 m 0
 462 937 348 829 334 597 c 1
 883 597 l 1
 879 822 777 937 619 937 c 0
EndSplineSet
EndChar

StartChar: eacute
Encoding: 233 233 158
Width: 1200
GlyphClass: 2
Flags: W
HStem: -23 140<480.257 832.681> 467 130<334 883> 937 138<469.807 757.827>
VStem: 157 176<277.703 467 597 770.092> 883 162<597 797.972>
AnchorPoint: "Anchor-1" 600 0 basechar 0
AnchorPoint: "Anchor-0" 621 1053 basechar 0
LayerCount: 2
Fore
SplineSet
788 1594 m 1
 866 1450 l 1
 448 1280 l 1
 396 1370 l 1
 788 1594 l 1
333 467 m 1
 342 223 478 117 641 117 c 0
 748 117 829 149 922 212 c 1
 1001 101 l 1
 903 24 770 -23 639 -23 c 0
 331 -23 157 198 157 525 c 0
 157 844 337 1075 617 1075 c 0
 883 1075 1045 879 1045 559 c 0
 1045 523 1043 490 1041 467 c 1
 333 467 l 1
619 937 m 0
 462 937 348 829 334 597 c 1
 883 597 l 1
 879 822 777 937 619 937 c 0
EndSplineSet
EndChar

StartChar: ebreve
Encoding: 277 277 159
Width: 1200
GlyphClass: 2
Flags: W
HStem: -23 140<480.257 832.681> 467 130<334 883> 937 138<469.807 757.827> 1260 129<507.131 728.646>
VStem: 157 176<277.703 467 597 770.092> 322 116<1460.69 1534.14> 802 116<1466.59 1534.14> 883 162<597 797.972>
AnchorPoint: "Anchor-1" 600 0 basechar 0
AnchorPoint: "Anchor-0" 621 1053 basechar 0
LayerCount: 2
Fore
SplineSet
616 1260 m 0xf6
 435 1260 338 1409 322 1531 c 1
 438 1557 l 1
 466 1457 522 1389 616 1389 c 0
 713 1389 774 1457 802 1557 c 1
 918 1531 l 1
 902 1409 801 1260 616 1260 c 0xf6
333 467 m 1xf9
 342 223 478 117 641 117 c 0
 748 117 829 149 922 212 c 1
 1001 101 l 1
 903 24 770 -23 639 -23 c 0
 331 -23 157 198 157 525 c 0
 157 844 337 1075 617 1075 c 0
 883 1075 1045 879 1045 559 c 0
 1045 523 1043 490 1041 467 c 1
 333 467 l 1xf9
619 937 m 0
 462 937 348 829 334 597 c 1
 883 597 l 1
 879 822 777 937 619 937 c 0
EndSplineSet
EndChar

StartChar: ecaron
Encoding: 283 283 160
Width: 1200
GlyphClass: 2
Flags: W
HStem: -23 140<480.257 832.681> 467 130<334 883> 937 138<469.807 757.827>
VStem: 157 176<277.703 467 597 770.092> 883 162<597 797.972>
AnchorPoint: "Anchor-1" 600 0 basechar 0
AnchorPoint: "Anchor-0" 621 1053 basechar 0
LayerCount: 2
Fore
SplineSet
872 1579 m 1
 948 1495 l 1
 679 1258 l 1
 566 1258 l 1
 295 1495 l 1
 375 1579 l 1
 623 1397 l 1
 872 1579 l 1
333 467 m 1
 342 223 478 117 641 117 c 0
 748 117 829 149 922 212 c 1
 1001 101 l 1
 903 24 770 -23 639 -23 c 0
 331 -23 157 198 157 525 c 0
 157 844 337 1075 617 1075 c 0
 883 1075 1045 879 1045 559 c 0
 1045 523 1043 490 1041 467 c 1
 333 467 l 1
619 937 m 0
 462 937 348 829 334 597 c 1
 883 597 l 1
 879 822 777 937 619 937 c 0
EndSplineSet
EndChar

StartChar: ecircumflex
Encoding: 234 234 161
Width: 1200
GlyphClass: 2
Flags: W
HStem: -23 140<480.257 832.681> 467 130<334 883> 937 138<469.807 757.827>
VStem: 157 176<277.703 467 597 770.092> 883 162<597 797.972>
AnchorPoint: "Anchor-1" 600 0 basechar 0
AnchorPoint: "Anchor-0" 621 1053 basechar 0
LayerCount: 2
Fore
SplineSet
375 1258 m 1
 295 1341 l 1
 566 1579 l 1
 679 1579 l 1
 948 1341 l 1
 872 1258 l 1
 623 1439 l 1
 375 1258 l 1
333 467 m 1
 342 223 478 117 641 117 c 0
 748 117 829 149 922 212 c 1
 1001 101 l 1
 903 24 770 -23 639 -23 c 0
 331 -23 157 198 157 525 c 0
 157 844 337 1075 617 1075 c 0
 883 1075 1045 879 1045 559 c 0
 1045 523 1043 490 1041 467 c 1
 333 467 l 1
619 937 m 0
 462 937 348 829 334 597 c 1
 883 597 l 1
 879 822 777 937 619 937 c 0
EndSplineSet
EndChar

StartChar: edieresis
Encoding: 235 235 162
Width: 1200
GlyphClass: 2
Flags: W
HStem: -23 140<480.257 832.681> 467 130<334 883> 937 138<469.807 757.827> 1297 214<324.898 500.648 739.058 914.808>
VStem: 157 176<277.703 467 597 770.092> 304 218<1317.34 1490.24> 718 218<1317.34 1490.24> 883 162<597 797.972>
AnchorPoint: "Anchor-1" 600 0 basechar 0
AnchorPoint: "Anchor-0" 621 1400 basechar 0
LayerCount: 2
Fore
SplineSet
414 1297 m 0xf4
 350 1297 304 1342 304 1403 c 0
 304 1465 350 1511 414 1511 c 0
 474 1511 522 1465 522 1403 c 0
 522 1342 474 1297 414 1297 c 0xf4
826 1297 m 0
 765 1297 718 1342 718 1403 c 0
 718 1465 765 1511 826 1511 c 0
 889 1511 936 1465 936 1403 c 0xf2
 936 1342 889 1297 826 1297 c 0
333 467 m 1xf9
 342 223 478 117 641 117 c 0
 748 117 829 149 922 212 c 1
 1001 101 l 1
 903 24 770 -23 639 -23 c 0
 331 -23 157 198 157 525 c 0
 157 844 337 1075 617 1075 c 0
 883 1075 1045 879 1045 559 c 0
 1045 523 1043 490 1041 467 c 1
 333 467 l 1xf9
619 937 m 0
 462 937 348 829 334 597 c 1
 883 597 l 1
 879 822 777 937 619 937 c 0
EndSplineSet
EndChar

StartChar: edotaccent
Encoding: 279 279 163
Width: 1200
GlyphClass: 2
Flags: W
HStem: -23 140<480.257 832.681> 467 130<334 883> 937 138<469.807 757.827> 1309 237<523.959 715.873>
VStem: 157 176<277.703 467 597 770.092> 498 244<1335.84 1519.73> 883 162<597 797.972>
AnchorPoint: "Anchor-1" 600 0 basechar 0
AnchorPoint: "Anchor-0" 621 1053 basechar 0
LayerCount: 2
Fore
SplineSet
619 1546 m 0
 693 1546 742 1495 742 1429 c 0
 742 1361 693 1309 619 1309 c 0
 547 1309 498 1361 498 1429 c 0
 498 1495 547 1546 619 1546 c 0
333 467 m 1
 342 223 478 117 641 117 c 0
 748 117 829 149 922 212 c 1
 1001 101 l 1
 903 24 770 -23 639 -23 c 0
 331 -23 157 198 157 525 c 0
 157 844 337 1075 617 1075 c 0
 883 1075 1045 879 1045 559 c 0
 1045 523 1043 490 1041 467 c 1
 333 467 l 1
619 937 m 0
 462 937 348 829 334 597 c 1
 883 597 l 1
 879 822 777 937 619 937 c 0
EndSplineSet
EndChar

StartChar: egrave
Encoding: 232 232 164
Width: 1200
GlyphClass: 2
Flags: W
HStem: -23 140<480.257 832.681> 467 130<334 883> 937 138<469.807 757.827>
VStem: 157 176<277.703 467 597 770.092> 883 162<597 797.972>
AnchorPoint: "Anchor-1" 600 0 basechar 0
AnchorPoint: "Anchor-0" 621 1053 basechar 0
LayerCount: 2
Fore
SplineSet
794 1244 m 1
 390 1430 l 1
 480 1573 l 1
 849 1337 l 1
 794 1244 l 1
333 467 m 1
 342 223 478 117 641 117 c 0
 748 117 829 149 922 212 c 1
 1001 101 l 1
 903 24 770 -23 639 -23 c 0
 331 -23 157 198 157 525 c 0
 157 844 337 1075 617 1075 c 0
 883 1075 1045 879 1045 559 c 0
 1045 523 1043 490 1041 467 c 1
 333 467 l 1
619 937 m 0
 462 937 348 829 334 597 c 1
 883 597 l 1
 879 822 777 937 619 937 c 0
EndSplineSet
EndChar

StartChar: emacron
Encoding: 275 275 165
Width: 1200
GlyphClass: 2
Flags: W
HStem: -23 140<480.257 832.681> 467 130<334 883> 937 138<469.807 757.827> 1352 128<351 889>
VStem: 157 176<277.703 467 597 770.092> 883 162<597 797.972>
AnchorPoint: "Anchor-1" 600 0 basechar 0
AnchorPoint: "Anchor-0" 621 1053 basechar 0
LayerCount: 2
Fore
SplineSet
889 1352 m 1
 351 1352 l 1
 351 1480 l 1
 889 1480 l 1
 889 1352 l 1
333 467 m 1
 342 223 478 117 641 117 c 0
 748 117 829 149 922 212 c 1
 1001 101 l 1
 903 24 770 -23 639 -23 c 0
 331 -23 157 198 157 525 c 0
 157 844 337 1075 617 1075 c 0
 883 1075 1045 879 1045 559 c 0
 1045 523 1043 490 1041 467 c 1
 333 467 l 1
619 937 m 0
 462 937 348 829 334 597 c 1
 883 597 l 1
 879 822 777 937 619 937 c 0
EndSplineSet
EndChar

StartChar: eogonek
Encoding: 281 281 166
Width: 1200
GlyphClass: 2
Flags: W
HStem: -459 134<562.531 768.166> 467 130<334 883> 937 138<469.807 757.827>
VStem: 157 176<277.703 467 597 770.092> 398 153<-312.23 -132.842> 883 162<597 797.972>
AnchorPoint: "Anchor-1" 600 0 basechar 0
AnchorPoint: "Anchor-0" 621 1053 basechar 0
LayerCount: 2
Fore
SplineSet
333 467 m 1
 342 223 478 117 641 117 c 0
 748 117 829 149 922 212 c 1
 1001 101 l 1
 942 54 870 19 793 -2 c 1
 592 -92 551 -159 551 -229 c 0
 551 -288 579 -325 662 -325 c 0
 704 -325 736 -321 786 -311 c 1
 768 -445 l 1
 728 -453 694 -459 642 -459 c 0
 490 -459 398 -373 398 -262 c 0
 398 -161 465 -77 597 -22 c 1
 316 -2 157 213 157 525 c 0
 157 844 337 1075 617 1075 c 0
 883 1075 1045 879 1045 559 c 0
 1045 523 1043 490 1041 467 c 1
 333 467 l 1
619 937 m 0
 462 937 348 829 334 597 c 1
 883 597 l 1
 879 822 777 937 619 937 c 0
EndSplineSet
EndChar

StartChar: f
Encoding: 102 102 167
Width: 1200
GlyphClass: 2
Flags: W
HStem: 0 21G<439 607> 839 132<188 439 607 946> 1360 138<662.185 1061.71>
VStem: 439 168<0 839 971 1305.18>
AnchorPoint: "Anchor-1" 523 0 basechar 0
AnchorPoint: "Anchor-0" 740 1477 basechar 0
LayerCount: 2
Fore
SplineSet
823 1498 m 0
 936 1498 1025 1477 1108 1441 c 1
 1054 1316 l 1
 987 1346 909 1360 828 1360 c 0
 681 1360 607 1303 607 1185 c 2
 607 971 l 1
 964 971 l 1
 946 839 l 1
 607 839 l 1
 607 0 l 1
 439 0 l 1
 439 839 l 1
 188 839 l 1
 188 971 l 1
 439 971 l 1
 439 1181 l 2
 439 1376 604 1498 823 1498 c 0
EndSplineSet
EndChar

StartChar: g
Encoding: 103 103 168
Width: 1200
GlyphClass: 2
Flags: W
HStem: -424 137<342.121 826.287> 37 146<390.961 846.103> 353 112<426.949 726.998> 953 123<426.165 731.561>
VStem: 131 152<-231.293 -107> 157 172<555.867 859.973> 218 158<200.708 353.661> 810 174<551.169 862.724> 909 170<-216.653 -21.3176>
AnchorPoint: "Anchor-0" 587 1053 basechar 0
LayerCount: 2
Fore
SplineSet
1057 1165 m 1xf4
 1109 1007 l 1
 1019 979 919 976 801 976 c 1
 923 920 984 831 984 711 c 0
 984 503 837 353 588 353 c 0
 517 353 475 359 431 373 c 1
 399 351 376 311 376 271 c 0xf3
 376 221 408 183 517 183 c 2
 707 183 l 2
 919 183 1079 59 1079 -103 c 0
 1079 -310 896 -424 576 -424 c 0
 240 -424 131 -321 131 -107 c 1
 283 -107 l 1xf880
 283 -230 339 -287 575 -287 c 0
 807 -287 909 -229 909 -114 c 0
 909 -14 807 37 671 37 c 2
 483 37 l 2
 301 37 218 131 218 235 c 0xf280
 218 303 258 369 334 419 c 1
 213 483 157 575 157 710 c 0
 157 923 329 1076 577 1076 c 0
 843 1077 933 1111 1057 1165 c 1xf4
577 953 m 0
 407 953 329 851 329 710 c 0xf5
 329 567 409 465 581 465 c 0
 729 465 810 556 810 711 c 0
 810 870 731 953 577 953 c 0
EndSplineSet
EndChar

StartChar: gbreve
Encoding: 287 287 169
Width: 1200
GlyphClass: 2
Flags: W
HStem: -424 137<342.121 826.287> 37 146<390.961 846.103> 353 112<426.949 726.998> 953 123<426.165 731.561> 1260 129<472.693 697.826>
VStem: 131 152<-231.293 -107> 157 172<555.867 859.973> 218 158<200.708 353.661> 288 115<1463.26 1534.17> 767 117<1466.59 1534.11> 810 174<551.169 862.724> 909 170<-216.653 -21.3176>
AnchorPoint: "Anchor-0" 587 1053 basechar 0
LayerCount: 2
Fore
SplineSet
582 1260 m 0xf8c0
 400 1260 304 1409 288 1531 c 1
 403 1557 l 1
 431 1457 488 1389 582 1389 c 0
 679 1389 740 1457 767 1557 c 1
 884 1531 l 1
 868 1409 766 1260 582 1260 c 0xf8c0
1057 1165 m 1
 1109 1007 l 1
 1019 979 919 976 801 976 c 1
 923 920 984 831 984 711 c 0
 984 503 837 353 588 353 c 0
 517 353 475 359 431 373 c 1
 399 351 376 311 376 271 c 0xf920
 376 221 408 183 517 183 c 2
 707 183 l 2
 919 183 1079 59 1079 -103 c 0
 1079 -310 896 -424 576 -424 c 0
 240 -424 131 -321 131 -107 c 1
 283 -107 l 1xfc10
 283 -230 339 -287 575 -287 c 0
 807 -287 909 -229 909 -114 c 0
 909 -14 807 37 671 37 c 2
 483 37 l 2
 301 37 218 131 218 235 c 0xf910
 218 303 258 369 334 419 c 1
 213 483 157 575 157 710 c 0xfa
 157 923 329 1076 577 1076 c 0
 843 1077 933 1111 1057 1165 c 1
577 953 m 0
 407 953 329 851 329 710 c 0xfa20
 329 567 409 465 581 465 c 0
 729 465 810 556 810 711 c 0
 810 870 731 953 577 953 c 0
EndSplineSet
EndChar

StartChar: gcircumflex
Encoding: 285 285 170
Width: 1200
GlyphClass: 2
Flags: W
HStem: -424 137<342.121 826.287> 37 146<390.961 846.103> 353 112<426.949 726.998> 953 123<426.165 731.561>
VStem: 131 152<-231.293 -107> 157 172<555.867 859.973> 218 158<200.708 353.661> 810 174<551.169 862.724> 909 170<-216.653 -21.3176>
AnchorPoint: "Anchor-0" 587 1053 basechar 0
LayerCount: 2
Fore
SplineSet
341 1258 m 1xf0
 260 1341 l 1
 531 1579 l 1
 644 1579 l 1
 913 1341 l 1
 837 1258 l 1
 589 1439 l 1
 341 1258 l 1xf0
1057 1165 m 1
 1109 1007 l 1
 1019 979 919 976 801 976 c 1
 923 920 984 831 984 711 c 0
 984 503 837 353 588 353 c 0
 517 353 475 359 431 373 c 1
 399 351 376 311 376 271 c 0xf3
 376 221 408 183 517 183 c 2
 707 183 l 2
 919 183 1079 59 1079 -103 c 0
 1079 -310 896 -424 576 -424 c 0
 240 -424 131 -321 131 -107 c 1
 283 -107 l 1xf880
 283 -230 339 -287 575 -287 c 0
 807 -287 909 -229 909 -114 c 0
 909 -14 807 37 671 37 c 2
 483 37 l 2
 301 37 218 131 218 235 c 0xf280
 218 303 258 369 334 419 c 1
 213 483 157 575 157 710 c 0xf4
 157 923 329 1076 577 1076 c 0
 843 1077 933 1111 1057 1165 c 1
577 953 m 0
 407 953 329 851 329 710 c 0xf5
 329 567 409 465 581 465 c 0
 729 465 810 556 810 711 c 0
 810 870 731 953 577 953 c 0
EndSplineSet
EndChar

StartChar: uni0123
Encoding: 291 291 171
Width: 1200
GlyphClass: 2
Flags: W
HStem: -424 137<342.121 826.287> 37 146<390.961 846.103> 353 112<426.949 726.998> 953 123<426.165 731.561>
VStem: 131 152<-231.293 -107> 157 172<555.867 859.973> 218 158<200.708 353.661> 471 218<1214.7 1389.05> 810 174<551.169 862.724> 909 170<-216.653 -21.3176>
AnchorPoint: "Anchor-0" 587 1053 basechar 0
LayerCount: 2
Fore
SplineSet
580 1194 m 0xf1
 519 1194 471 1240 471 1301 c 0
 471 1336 480 1364 501 1411 c 2
 601 1625 l 1
 704 1625 l 1
 645 1390 l 1
 671 1370 689 1336 689 1301 c 0
 689 1240 641 1194 580 1194 c 0xf1
1057 1165 m 1
 1109 1007 l 1
 1019 979 919 976 801 976 c 1
 923 920 984 831 984 711 c 0
 984 503 837 353 588 353 c 0
 517 353 475 359 431 373 c 1
 399 351 376 311 376 271 c 0xf380
 376 221 408 183 517 183 c 2
 707 183 l 2
 919 183 1079 59 1079 -103 c 0
 1079 -310 896 -424 576 -424 c 0
 240 -424 131 -321 131 -107 c 1
 283 -107 l 1xf940
 283 -230 339 -287 575 -287 c 0
 807 -287 909 -229 909 -114 c 0
 909 -14 807 37 671 37 c 2
 483 37 l 2
 301 37 218 131 218 235 c 0xf340
 218 303 258 369 334 419 c 1
 213 483 157 575 157 710 c 0xf5
 157 923 329 1076 577 1076 c 0
 843 1077 933 1111 1057 1165 c 1
577 953 m 0
 407 953 329 851 329 710 c 0xf580
 329 567 409 465 581 465 c 0
 729 465 810 556 810 711 c 0
 810 870 731 953 577 953 c 0
EndSplineSet
EndChar

StartChar: gdotaccent
Encoding: 289 289 172
Width: 1200
GlyphClass: 2
Flags: W
HStem: -424 137<342.121 826.287> 37 146<390.961 846.103> 353 112<426.949 726.998> 953 123<426.165 731.561> 1309 237<489.282 681.789>
VStem: 131 152<-231.293 -107> 157 172<555.867 859.973> 218 158<200.708 353.661> 463 245<1335.84 1519.73> 810 174<551.169 862.724> 909 170<-216.653 -21.3176>
AnchorPoint: "Anchor-0" 587 1053 basechar 0
LayerCount: 2
Fore
SplineSet
584 1546 m 0xf880
 659 1546 708 1495 708 1429 c 0
 708 1361 659 1309 584 1309 c 0
 513 1309 463 1361 463 1429 c 0
 463 1495 513 1546 584 1546 c 0xf880
1057 1165 m 1
 1109 1007 l 1
 1019 979 919 976 801 976 c 1
 923 920 984 831 984 711 c 0
 984 503 837 353 588 353 c 0
 517 353 475 359 431 373 c 1
 399 351 376 311 376 271 c 0xf9c0
 376 221 408 183 517 183 c 2
 707 183 l 2
 919 183 1079 59 1079 -103 c 0
 1079 -310 896 -424 576 -424 c 0
 240 -424 131 -321 131 -107 c 1
 283 -107 l 1xfca0
 283 -230 339 -287 575 -287 c 0
 807 -287 909 -229 909 -114 c 0
 909 -14 807 37 671 37 c 2
 483 37 l 2
 301 37 218 131 218 235 c 0xf9a0
 218 303 258 369 334 419 c 1
 213 483 157 575 157 710 c 0xfa80
 157 923 329 1076 577 1076 c 0
 843 1077 933 1111 1057 1165 c 1
577 953 m 0
 407 953 329 851 329 710 c 0xfac0
 329 567 409 465 581 465 c 0
 729 465 810 556 810 711 c 0
 810 870 731 953 577 953 c 0
EndSplineSet
EndChar

StartChar: h
Encoding: 104 104 173
Width: 1200
GlyphClass: 2
Flags: W
HStem: 0 21G<201 369 833 1001> 943 132<520.138 786.986> 1473 20G<201 369>
VStem: 201 168<0 821.826 909 1475> 833 168<0 895.281>
AnchorPoint: "Anchor-1" 600 0 basechar 0
AnchorPoint: "Anchor-0" 600 1477 basechar 0
LayerCount: 2
Fore
SplineSet
369 1493 m 1
 369 909 l 1
 452 1019 581 1075 705 1075 c 0
 911 1075 1001 959 1001 765 c 2
 1001 0 l 1
 833 0 l 1
 833 761 l 2
 833 887 776 943 651 943 c 0
 531 943 424 850 369 767 c 1
 369 0 l 1
 201 0 l 1
 201 1475 l 1
 369 1493 l 1
EndSplineSet
EndChar

StartChar: hbar
Encoding: 295 295 174
Width: 1200
GlyphClass: 2
Flags: W
HStem: 0 21G<201 369 833 1001> 943 132<520.138 786.986> 1195 134<39 201 369 707> 1473 20G<201 369>
VStem: 201 168<0 821.826 909 1195 1329 1475> 833 168<0 895.281>
AnchorPoint: "Anchor-1" 600 0 basechar 0
AnchorPoint: "Anchor-0" 600 1477 basechar 0
LayerCount: 2
Fore
SplineSet
707 1329 m 1
 707 1195 l 1
 369 1195 l 1
 369 909 l 1
 452 1019 581 1075 705 1075 c 0
 911 1075 1001 959 1001 765 c 2
 1001 0 l 1
 833 0 l 1
 833 761 l 2
 833 887 776 943 651 943 c 0
 531 943 424 850 369 767 c 1
 369 0 l 1
 201 0 l 1
 201 1195 l 1
 39 1195 l 1
 39 1329 l 1
 201 1329 l 1
 201 1475 l 1
 369 1493 l 1
 369 1329 l 1
 707 1329 l 1
EndSplineSet
EndChar

StartChar: hcircumflex
Encoding: 293 293 175
Width: 1200
GlyphClass: 2
Flags: W
HStem: 0 21G<201 369 833 1001> 943 132<520.138 786.986> 1473 20G<201 369>
VStem: 201 168<0 821.826 909 1475> 833 168<0 895.281>
AnchorPoint: "Anchor-1" 600 0 basechar 0
AnchorPoint: "Anchor-0" 600 1477 basechar 0
LayerCount: 2
Fore
SplineSet
658 1922 m 1
 927 1706 l 1
 853 1621 l 1
 600 1782 l 1
 349 1621 l 1
 274 1706 l 1
 545 1922 l 1
 658 1922 l 1
369 1493 m 1
 369 909 l 1
 452 1019 581 1075 705 1075 c 0
 911 1075 1001 959 1001 765 c 2
 1001 0 l 1
 833 0 l 1
 833 761 l 2
 833 887 776 943 651 943 c 0
 531 943 424 850 369 767 c 1
 369 0 l 1
 201 0 l 1
 201 1475 l 1
 369 1493 l 1
EndSplineSet
EndChar

StartChar: i
Encoding: 105 105 176
Width: 1200
GlyphClass: 2
Flags: W
HStem: 0 133<241 566 734 1031> 920 133<251 566> 1309 237<505.282 697.196>
VStem: 479 244<1335.84 1519.73> 566 168<133 920>
AnchorPoint: "Anchor-1" 600 0 basechar 0
LayerCount: 2
Fore
SplineSet
600 1546 m 0xf0
 675 1546 723 1495 723 1429 c 0
 723 1361 675 1309 600 1309 c 0
 529 1309 479 1361 479 1429 c 0
 479 1495 529 1546 600 1546 c 0xf0
734 1053 m 1xe8
 734 133 l 1
 1031 133 l 1
 1031 0 l 1
 241 0 l 1
 241 133 l 1
 566 133 l 1
 566 920 l 1
 251 920 l 1
 251 1053 l 1
 734 1053 l 1xe8
EndSplineSet
Substitution2: "'locl' Localized Forms in Latin lookup 27 subtable" i.loclTRK
Substitution2: "'locl' Localized Forms in Latin lookup 23 subtable" i.loclTRK
Substitution2: "'locl' Localized Forms in Latin lookup 21 subtable" i.loclTRK
Substitution2: "'locl' Localized Forms in Latin lookup 18 subtable" i.loclTRK
Substitution2: "'locl' Localized Forms in Latin lookup 17 subtable" i.loclTRK
Substitution2: "'aalt' Access All Alternates lookup 0 subtable" i.loclTRK
EndChar

StartChar: dotlessi
Encoding: 305 305 177
Width: 1200
GlyphClass: 2
Flags: W
HStem: 0 133<241 566 734 1031> 920 133<251 566>
VStem: 566 168<133 920>
AnchorPoint: "Anchor-0" 603 1053 basechar 0
LayerCount: 2
Fore
SplineSet
734 1053 m 1
 734 133 l 1
 1031 133 l 1
 1031 0 l 1
 241 0 l 1
 241 133 l 1
 566 133 l 1
 566 920 l 1
 251 920 l 1
 251 1053 l 1
 734 1053 l 1
EndSplineSet
EndChar

StartChar: iacute
Encoding: 237 237 178
Width: 1200
GlyphClass: 2
Flags: W
HStem: 0 133<241 566 734 1031> 920 133<251 566>
VStem: 566 168<133 920>
AnchorPoint: "Anchor-0" 603 1053 basechar 0
LayerCount: 2
Fore
SplineSet
770 1594 m 1
 848 1450 l 1
 430 1280 l 1
 377 1370 l 1
 770 1594 l 1
734 1053 m 1
 734 133 l 1
 1031 133 l 1
 1031 0 l 1
 241 0 l 1
 241 133 l 1
 566 133 l 1
 566 920 l 1
 251 920 l 1
 251 1053 l 1
 734 1053 l 1
EndSplineSet
EndChar

StartChar: ibreve
Encoding: 301 301 179
Width: 1200
GlyphClass: 2
Flags: W
HStem: 0 133<241 566 734 1031> 920 133<251 566> 1260 129<488.749 713.826>
VStem: 304 116<1460.69 1534.14> 566 168<133 920> 783 117<1466.59 1534.11>
AnchorPoint: "Anchor-0" 603 1053 basechar 0
LayerCount: 2
Fore
SplineSet
598 1260 m 0
 416 1260 320 1409 304 1531 c 1
 420 1557 l 1
 447 1457 504 1389 598 1389 c 0
 695 1389 756 1457 783 1557 c 1
 900 1531 l 1
 884 1409 782 1260 598 1260 c 0
734 1053 m 1
 734 133 l 1
 1031 133 l 1
 1031 0 l 1
 241 0 l 1
 241 133 l 1
 566 133 l 1
 566 920 l 1
 251 920 l 1
 251 1053 l 1
 734 1053 l 1
EndSplineSet
EndChar

StartChar: icircumflex
Encoding: 238 238 180
Width: 1200
GlyphClass: 2
Flags: W
HStem: 0 133<241 566 734 1031> 920 133<251 566>
VStem: 566 168<133 920>
AnchorPoint: "Anchor-0" 603 1053 basechar 0
LayerCount: 2
Fore
SplineSet
357 1258 m 1
 276 1341 l 1
 547 1579 l 1
 660 1579 l 1
 929 1341 l 1
 853 1258 l 1
 605 1439 l 1
 357 1258 l 1
734 1053 m 1
 734 133 l 1
 1031 133 l 1
 1031 0 l 1
 241 0 l 1
 241 133 l 1
 566 133 l 1
 566 920 l 1
 251 920 l 1
 251 1053 l 1
 734 1053 l 1
EndSplineSet
EndChar

StartChar: idieresis
Encoding: 239 239 181
Width: 1200
GlyphClass: 2
Flags: W
HStem: 0 133<241 566 734 1031> 920 133<251 566> 1297 214<306.259 481.715 720.991 896.447>
VStem: 285 218<1317.34 1490.24> 566 168<133 920> 700 218<1317.34 1490.24>
AnchorPoint: "Anchor-0" 603 1400 basechar 0
LayerCount: 2
Fore
SplineSet
396 1297 m 0xf0
 332 1297 285 1342 285 1403 c 0
 285 1465 332 1511 396 1511 c 0
 455 1511 503 1465 503 1403 c 0
 503 1342 455 1297 396 1297 c 0xf0
807 1297 m 0
 747 1297 700 1342 700 1403 c 0
 700 1465 747 1511 807 1511 c 0
 870 1511 918 1465 918 1403 c 0xf4
 918 1342 870 1297 807 1297 c 0
734 1053 m 1xf8
 734 133 l 1
 1031 133 l 1
 1031 0 l 1
 241 0 l 1
 241 133 l 1
 566 133 l 1
 566 920 l 1
 251 920 l 1
 251 1053 l 1
 734 1053 l 1xf8
EndSplineSet
EndChar

StartChar: i.loclTRK
Encoding: 1114118 -1 182
Width: 1200
GlyphClass: 2
Flags: W
HStem: 0 133<241 566 734 1031> 920 133<251 566> 1309 237<505.282 697.789>
VStem: 479 245<1335.84 1519.73> 566 168<133 920>
AnchorPoint: "Anchor-0" 603 1053 basechar 0
LayerCount: 2
Fore
SplineSet
600 1546 m 0xf0
 675 1546 724 1495 724 1429 c 0
 724 1361 675 1309 600 1309 c 0
 529 1309 479 1361 479 1429 c 0
 479 1495 529 1546 600 1546 c 0xf0
734 1053 m 1xe8
 734 133 l 1
 1031 133 l 1
 1031 0 l 1
 241 0 l 1
 241 133 l 1
 566 133 l 1
 566 920 l 1
 251 920 l 1
 251 1053 l 1
 734 1053 l 1xe8
EndSplineSet
EndChar

StartChar: igrave
Encoding: 236 236 183
Width: 1200
GlyphClass: 2
Flags: W
HStem: 0 133<241 566 734 1031> 920 133<251 566>
VStem: 566 168<133 920>
AnchorPoint: "Anchor-0" 603 1053 basechar 0
LayerCount: 2
Fore
SplineSet
776 1244 m 1
 372 1430 l 1
 461 1573 l 1
 830 1337 l 1
 776 1244 l 1
734 1053 m 1
 734 133 l 1
 1031 133 l 1
 1031 0 l 1
 241 0 l 1
 241 133 l 1
 566 133 l 1
 566 920 l 1
 251 920 l 1
 251 1053 l 1
 734 1053 l 1
EndSplineSet
EndChar

StartChar: ij
Encoding: 307 307 184
Width: 1200
Flags: W
HStem: -424 131<484.656 538.692> 0 133<97 284 446 637> 924 129<107 284 446 837> 1309 237<273.366 464.311 801.366 992.634>
VStem: 247 244<1335.84 1519.73> 284 162<133 924> 775 244<1335.84 1519.73> 837 164<-51.2825 924>
LayerCount: 2
Fore
SplineSet
369 1546 m 0xf8
 440 1546 491 1495 491 1429 c 0
 491 1361 440 1309 369 1309 c 0
 297 1309 247 1361 247 1429 c 0
 247 1495 297 1546 369 1546 c 0xf8
897 1546 m 0
 969 1546 1019 1495 1019 1429 c 0
 1019 1361 969 1309 897 1309 c 0
 825 1309 775 1361 775 1429 c 0xf2
 775 1495 825 1546 897 1546 c 0
1001 1053 m 1xf5
 1001 109 l 2
 1001 -181 771 -333 490 -424 c 1
 440 -293 l 1
 631 -219 837 -122 837 99 c 2
 837 924 l 1
 446 924 l 1
 446 133 l 1
 637 133 l 1
 637 0 l 1
 97 0 l 1
 97 133 l 1
 284 133 l 1
 284 924 l 1
 107 924 l 1
 107 1053 l 1
 1001 1053 l 1xf5
EndSplineSet
EndChar

StartChar: imacron
Encoding: 299 299 185
Width: 1200
GlyphClass: 2
Flags: W
HStem: 0 133<241 566 734 1031> 920 133<251 566> 1352 128<332 871>
VStem: 566 168<133 920>
AnchorPoint: "Anchor-0" 603 1053 basechar 0
LayerCount: 2
Fore
SplineSet
871 1352 m 1
 332 1352 l 1
 332 1480 l 1
 871 1480 l 1
 871 1352 l 1
734 1053 m 1
 734 133 l 1
 1031 133 l 1
 1031 0 l 1
 241 0 l 1
 241 133 l 1
 566 133 l 1
 566 920 l 1
 251 920 l 1
 251 1053 l 1
 734 1053 l 1
EndSplineSet
EndChar

StartChar: iogonek
Encoding: 303 303 186
Width: 1200
GlyphClass: 2
Flags: W
HStem: -459 134<498.531 704.166> 0 133<241 542 734 1031> 920 133<251 566> 1309 237<505.282 697.789>
VStem: 334 153<-312.23 -125.41> 479 245<1335.84 1519.73> 566 168<133 920>
AnchorPoint: "Anchor-0" 603 1053 basechar 0
LayerCount: 2
Fore
SplineSet
600 1546 m 0xf4
 675 1546 724 1495 724 1429 c 0
 724 1361 675 1309 600 1309 c 0
 529 1309 479 1361 479 1429 c 0
 479 1495 529 1546 600 1546 c 0xf4
734 1053 m 1xfa
 734 133 l 1
 1031 133 l 1
 1031 0 l 1
 734 0 l 1
 528 -91 487 -158 487 -229 c 0
 487 -288 515 -325 598 -325 c 0
 640 -325 672 -321 722 -311 c 1
 704 -445 l 1
 664 -453 630 -459 578 -459 c 0
 426 -459 334 -373 334 -262 c 0
 334 -156 398 -69 542 0 c 1
 241 0 l 1
 241 133 l 1
 566 133 l 1
 566 920 l 1
 251 920 l 1
 251 1053 l 1
 734 1053 l 1xfa
EndSplineSet
EndChar

StartChar: itilde
Encoding: 297 297 187
Width: 1200
GlyphClass: 2
Flags: W
HStem: 0 133<241 566 734 1031> 920 133<251 566> 1317 130<624.785 793.866> 1414 129<411.841 583.571>
VStem: 566 168<133 920>
AnchorPoint: "Anchor-0" 603 1053 basechar 0
LayerCount: 2
Fore
SplineSet
719 1317 m 0xe8
 614 1317 560 1414 487 1414 c 0
 441 1414 413 1381 381 1321 c 1
 274 1375 l 1
 319 1469 390 1543 488 1543 c 0xd8
 598 1543 645 1447 720 1447 c 0
 759 1447 790 1475 826 1535 c 1
 932 1481 l 1
 880 1370 806 1317 719 1317 c 0xe8
734 1053 m 1
 734 133 l 1
 1031 133 l 1
 1031 0 l 1
 241 0 l 1
 241 133 l 1
 566 133 l 1
 566 920 l 1
 251 920 l 1
 251 1053 l 1
 734 1053 l 1
EndSplineSet
EndChar

StartChar: j
Encoding: 106 106 188
Width: 1200
GlyphClass: 2
Flags: W
HStem: -424 130<215.985 368.558> 920 133<284 722> 1309 237<638.553 830.466>
VStem: 613 244<1335.84 1519.73> 722 168<-23.6678 920>
AnchorPoint: "Anchor-0" 735 1053 basechar 0
LayerCount: 2
Fore
SplineSet
733 1546 m 0xf0
 807 1546 857 1495 857 1429 c 0
 857 1361 807 1309 733 1309 c 0
 661 1309 613 1361 613 1429 c 0
 613 1495 661 1546 733 1546 c 0xf0
890 1053 m 1xe8
 890 169 l 2
 890 -183 643 -353 219 -424 c 1
 191 -294 l 1
 503 -242 722 -125 722 158 c 2
 722 920 l 1
 284 920 l 1
 284 1053 l 1
 890 1053 l 1xe8
EndSplineSet
EndChar

StartChar: uni0237
Encoding: 567 567 189
Width: 1200
GlyphClass: 2
Flags: W
HStem: -424 130<215.985 368.558> 920 133<284 722>
VStem: 722 168<-23.6678 920>
AnchorPoint: "Anchor-0" 735 1053 basechar 0
LayerCount: 2
Fore
SplineSet
890 1053 m 1
 890 169 l 2
 890 -183 643 -353 219 -424 c 1
 191 -294 l 1
 503 -242 722 -125 722 158 c 2
 722 920 l 1
 284 920 l 1
 284 1053 l 1
 890 1053 l 1
EndSplineSet
EndChar

StartChar: jcircumflex
Encoding: 309 309 190
Width: 1200
GlyphClass: 2
Flags: W
HStem: -424 130<215.985 368.558> 920 133<284 722>
VStem: 722 168<-23.6678 920>
AnchorPoint: "Anchor-0" 735 1053 basechar 0
LayerCount: 2
Fore
SplineSet
490 1258 m 1
 409 1341 l 1
 680 1579 l 1
 793 1579 l 1
 1062 1341 l 1
 986 1258 l 1
 738 1439 l 1
 490 1258 l 1
890 1053 m 1
 890 169 l 2
 890 -183 643 -353 219 -424 c 1
 191 -294 l 1
 503 -242 722 -125 722 158 c 2
 722 920 l 1
 284 920 l 1
 284 1053 l 1
 890 1053 l 1
EndSplineSet
EndChar

StartChar: k
Encoding: 107 107 191
Width: 1200
GlyphClass: 2
Flags: W
HStem: 0 21G<212 380 898.983 1138> 1033 20G<845.502 1083> 1478 20G<220 380>
VStem: 212 168<0 1477>
AnchorPoint: "Anchor-1" 611 0 basechar 0
AnchorPoint: "Anchor-0" 600 1477 basechar 0
LayerCount: 2
Fore
SplineSet
380 1498 m 1
 380 0 l 1
 212 0 l 1
 212 1477 l 1
 380 1498 l 1
1083 1053 m 1
 609 579 l 1
 1138 0 l 1
 917 0 l 1
 399 575 l 1
 865 1053 l 1
 1083 1053 l 1
EndSplineSet
EndChar

StartChar: uni0137
Encoding: 311 311 192
Width: 1200
GlyphClass: 2
Flags: W
HStem: 0 21G<212 380 898.983 1138> 1033 20G<845.502 1083> 1478 20G<220 380>
VStem: 212 168<0 1477> 509 217<-337.006 -161.697>
AnchorPoint: "Anchor-1" 611 0 basechar 0
AnchorPoint: "Anchor-0" 600 1477 basechar 0
LayerCount: 2
Fore
SplineSet
380 1498 m 1
 380 0 l 1
 212 0 l 1
 212 1477 l 1
 380 1498 l 1
1083 1053 m 1
 609 579 l 1
 1138 0 l 1
 917 0 l 1
 399 575 l 1
 865 1053 l 1
 1083 1053 l 1
618 -141 m 0
 678 -141 726 -187 726 -248 c 0
 726 -283 717 -311 696 -358 c 2
 596 -572 l 1
 494 -572 l 1
 552 -338 l 1
 526 -317 509 -283 509 -248 c 0
 509 -187 557 -141 618 -141 c 0
EndSplineSet
EndChar

StartChar: kgreenlandic
Encoding: 312 312 193
Width: 1200
GlyphClass: 2
Flags: W
HStem: 0 21G<201 369 886.664 1127> 1033 20G<201 369 834.861 1072>
VStem: 201 168<0 1053>
AnchorPoint: "Anchor-1" 600 0 basechar 0
AnchorPoint: "Anchor-0" 600 1053 basechar 0
LayerCount: 2
Fore
SplineSet
1072 1053 m 1
 594 576 l 1
 1127 0 l 1
 905 0 l 1
 387 565 l 1
 854 1053 l 1
 1072 1053 l 1
369 1053 m 1
 369 0 l 1
 201 0 l 1
 201 1053 l 1
 369 1053 l 1
EndSplineSet
EndChar

StartChar: l
Encoding: 108 108 194
Width: 1200
GlyphClass: 2
Flags: W
HStem: -23 140<649.931 971.784> 1344 133<120 443>
VStem: 443 168<159.896 1344>
AnchorPoint: "Anchor-1" 721 0 basechar 0
AnchorPoint: "Anchor-0" 530 1477 basechar 0
LayerCount: 2
Fore
SplineSet
611 1477 m 1
 611 260 l 2
 611 156 683 117 785 117 c 0
 848 117 905 131 962 154 c 1
 1007 31 l 1
 950 3 863 -23 757 -23 c 0
 570 -23 443 86 443 269 c 2
 443 1344 l 1
 120 1344 l 1
 120 1477 l 1
 611 1477 l 1
EndSplineSet
EndChar

StartChar: lacute
Encoding: 314 314 195
Width: 1200
GlyphClass: 2
Flags: W
HStem: -23 140<649.931 971.784> 1344 133<120 443>
VStem: 443 168<159.896 1344>
AnchorPoint: "Anchor-1" 721 0 basechar 0
AnchorPoint: "Anchor-0" 530 1477 basechar 0
LayerCount: 2
Fore
SplineSet
697 2018 m 1
 775 1874 l 1
 357 1704 l 1
 304 1795 l 1
 697 2018 l 1
611 1477 m 1
 611 260 l 2
 611 156 683 117 785 117 c 0
 848 117 905 131 962 154 c 1
 1007 31 l 1
 950 3 863 -23 757 -23 c 0
 570 -23 443 86 443 269 c 2
 443 1344 l 1
 120 1344 l 1
 120 1477 l 1
 611 1477 l 1
EndSplineSet
EndChar

StartChar: lcaron
Encoding: 318 318 196
Width: 1200
GlyphClass: 2
Flags: W
HStem: -23 140<649.931 971.784> 1344 133<120 443> 1474 20G<760.278 916>
VStem: 443 168<159.896 1344>
AnchorPoint: "Anchor-1" 721 0 basechar 0
AnchorPoint: "Anchor-0" 530 1477 basechar 0
LayerCount: 2
Fore
SplineSet
763 1494 m 1xb0
 916 1476 l 1
 809 1120 l 1
 714 1134 l 1
 763 1494 l 1xb0
611 1477 m 1xd0
 611 260 l 2
 611 156 683 117 785 117 c 0
 848 117 905 131 962 154 c 1
 1007 31 l 1
 950 3 863 -23 757 -23 c 0
 570 -23 443 86 443 269 c 2
 443 1344 l 1
 120 1344 l 1
 120 1477 l 1
 611 1477 l 1xd0
EndSplineSet
EndChar

StartChar: uni013C
Encoding: 316 316 197
Width: 1200
GlyphClass: 2
Flags: W
HStem: -23 140<649.931 971.784> 1344 133<120 443>
VStem: 443 168<159.896 1344> 619 217<-337.006 -161.697>
AnchorPoint: "Anchor-1" 721 0 basechar 0
AnchorPoint: "Anchor-0" 530 1477 basechar 0
LayerCount: 2
Fore
SplineSet
611 1477 m 1
 611 260 l 2
 611 156 683 117 785 117 c 0
 848 117 905 131 962 154 c 1
 1007 31 l 1
 950 3 863 -23 757 -23 c 0
 570 -23 443 86 443 269 c 2
 443 1344 l 1
 120 1344 l 1
 120 1477 l 1
 611 1477 l 1
728 -141 m 0
 788 -141 836 -187 836 -248 c 0
 836 -283 827 -311 806 -358 c 2
 706 -572 l 1
 604 -572 l 1
 662 -338 l 1
 636 -317 619 -283 619 -248 c 0
 619 -187 667 -141 728 -141 c 0
EndSplineSet
EndChar

StartChar: ldot
Encoding: 320 320 198
Width: 1200
GlyphClass: 2
Flags: W
HStem: -23 140<649.931 971.784> 644 238<1025.96 1217.87> 1344 133<120 443>
VStem: 443 168<159.896 1344> 1000 244<670.845 855.323>
AnchorPoint: "Anchor-1" 721 0 basechar 0
AnchorPoint: "Anchor-0" 530 1477 basechar 0
LayerCount: 2
Fore
SplineSet
611 1477 m 1
 611 260 l 2
 611 156 683 117 785 117 c 0
 848 117 905 131 962 154 c 1
 1007 31 l 1
 950 3 863 -23 757 -23 c 0
 570 -23 443 86 443 269 c 2
 443 1344 l 1
 120 1344 l 1
 120 1477 l 1
 611 1477 l 1
1121 882 m 0
 1195 882 1244 830 1244 764 c 0
 1244 696 1195 644 1121 644 c 0
 1049 644 1000 696 1000 764 c 0
 1000 830 1049 882 1121 882 c 0
EndSplineSet
Ligature2: "Ligature Substitution lookup 25 subtable" l periodcentered
EndChar

StartChar: lslash
Encoding: 322 322 199
Width: 1200
GlyphClass: 2
Flags: W
HStem: -23 140<649.931 971.784> 1344 133<120 443>
VStem: 443 168<159.896 612 866 1344>
AnchorPoint: "Anchor-1" 721 0 basechar 0
AnchorPoint: "Anchor-0" 530 1477 basechar 0
LayerCount: 2
Fore
SplineSet
443 762 m 1
 443 1344 l 1
 120 1344 l 1
 120 1477 l 1
 611 1477 l 1
 611 866 l 1
 791 978 l 1
 862 869 l 1
 611 715 l 1
 611 260 l 2
 611 156 683 117 785 117 c 0
 848 117 905 131 962 154 c 1
 1007 31 l 1
 950 3 863 -23 757 -23 c 0
 570 -23 443 86 443 269 c 2
 443 612 l 1
 308 529 l 1
 237 638 l 1
 443 762 l 1
EndSplineSet
EndChar

StartChar: m
Encoding: 109 109 200
Width: 1200
GlyphClass: 2
Flags: W
HStem: 0 21G<101 256 521 678 943 1099> 944 131<338.142 506.738 753.321 928.889> 1033 20G<101 234.639>
VStem: 101 155<0 872.614> 101 132<931 1053> 521 157<0 872.614> 943 156<0 931.984>
AnchorPoint: "Anchor-1" 600 0 basechar 0
AnchorPoint: "Anchor-0" 600 1053 basechar 0
LayerCount: 2
Fore
SplineSet
895 1075 m 0xce
 995 1075 1099 1027 1099 784 c 2
 1099 0 l 1
 943 0 l 1
 943 757 l 2
 943 889 938 944 862 944 c 0
 799 944 736 908 678 818 c 1
 678 0 l 1
 521 0 l 1
 521 757 l 2
 521 889 516 944 440 944 c 0
 375 944 314 908 256 818 c 1
 256 0 l 1
 101 0 l 1xd6
 101 1053 l 1
 233 1053 l 1xae
 243 931 l 1
 300 1012 367 1075 472 1075 c 0
 552 1075 630 1045 663 936 c 1
 720 1019 787 1075 895 1075 c 0xce
EndSplineSet
EndChar

StartChar: n
Encoding: 110 110 201
Width: 1200
GlyphClass: 2
Flags: W
HStem: 0 21G<201 369 833 1001> 943 132<517.866 780.14> 1033 20G<201 345.781>
VStem: 201 168<0 821.426> 201 143<907 1053> 833 168<0 888.063>
AnchorPoint: "Anchor-1" 602 0 basechar 0
AnchorPoint: "Anchor-0" 600 1053 basechar 0
LayerCount: 2
Fore
SplineSet
201 0 m 1xd4
 201 1053 l 1
 344 1053 l 1xac
 357 907 l 1
 443 1015 583 1075 705 1075 c 0
 912 1075 1001 959 1001 765 c 2
 1001 0 l 1
 833 0 l 1
 833 641 l 2
 833 856 812 943 653 943 c 0
 529 943 424 849 369 767 c 1
 369 0 l 1
 201 0 l 1xd4
EndSplineSet
EndChar

StartChar: nacute
Encoding: 324 324 202
Width: 1200
GlyphClass: 2
Flags: W
HStem: 0 21G<201 369 833 1001> 943 132<517.866 780.14> 1033 20G<201 345.781>
VStem: 201 168<0 821.426> 201 143<907 1053> 833 168<0 888.063>
AnchorPoint: "Anchor-1" 602 0 basechar 0
AnchorPoint: "Anchor-0" 600 1053 basechar 0
LayerCount: 2
Fore
SplineSet
767 1594 m 1x84
 845 1450 l 1
 427 1280 l 1
 374 1370 l 1
 767 1594 l 1x84
201 0 m 1xd4
 201 1053 l 1
 344 1053 l 1xac
 357 907 l 1
 443 1015 583 1075 705 1075 c 0
 912 1075 1001 959 1001 765 c 2
 1001 0 l 1
 833 0 l 1
 833 641 l 2
 833 856 812 943 653 943 c 0
 529 943 424 849 369 767 c 1
 369 0 l 1
 201 0 l 1xd4
EndSplineSet
Substitution2: "'locl' Localized Forms in Latin lookup 22 subtable" nacute.loclPLK
Substitution2: "'aalt' Access All Alternates lookup 0 subtable" nacute.loclPLK
EndChar

StartChar: napostrophe
Encoding: 329 329 203
Width: 1200
GlyphClass: 2
Flags: W
HStem: 0 21G<218 386 851 1019> 943 132<535.006 797.331> 1033 20G<218 363.644> 1068 21G<1 110.48> 1483 20G<96.5 157.5>
VStem: 15 221<1308.43 1480.77> 218 168<0 821.426> 218 144<907 1053> 851 168<0 888.063>
AnchorPoint: "Anchor-1" 619 0 basechar 0
AnchorPoint: "Anchor-0" 617 1053 basechar 0
LayerCount: 2
Fore
SplineSet
127 1503 m 0x9c80
 188 1503 236 1457 236 1396 c 0
 236 1364 227 1333 183 1241 c 2
 101 1068 l 1
 1 1068 l 1
 61 1305 l 1
 35 1329 15 1360 15 1396 c 0
 15 1458 66 1503 127 1503 c 0x9c80
218 0 m 1xca80
 218 1053 l 1
 362 1053 l 1xa980
 374 907 l 1
 460 1015 600 1075 722 1075 c 0
 929 1075 1019 959 1019 765 c 2
 1019 0 l 1
 851 0 l 1
 851 641 l 2
 851 856 829 943 670 943 c 0
 546 943 442 849 386 767 c 1
 386 0 l 1
 218 0 l 1xca80
EndSplineSet
Ligature2: "'locl' Localized Forms in Latin lookup 28 subtable" quotesingle n
Ligature2: "'locl' Localized Forms in Latin lookup 28 subtable" quoteright n
EndChar

StartChar: ncaron
Encoding: 328 328 204
Width: 1200
GlyphClass: 2
Flags: W
HStem: 0 21G<201 369 833 1001> 943 132<517.866 780.14> 1033 20G<201 345.781>
VStem: 201 168<0 821.426> 201 143<907 1053> 833 168<0 888.063>
AnchorPoint: "Anchor-1" 602 0 basechar 0
AnchorPoint: "Anchor-0" 600 1053 basechar 0
LayerCount: 2
Fore
SplineSet
850 1579 m 1x84
 926 1495 l 1
 657 1258 l 1
 544 1258 l 1
 273 1495 l 1
 354 1579 l 1
 602 1397 l 1
 850 1579 l 1x84
201 0 m 1xd4
 201 1053 l 1
 344 1053 l 1xac
 357 907 l 1
 443 1015 583 1075 705 1075 c 0
 912 1075 1001 959 1001 765 c 2
 1001 0 l 1
 833 0 l 1
 833 641 l 2
 833 856 812 943 653 943 c 0
 529 943 424 849 369 767 c 1
 369 0 l 1
 201 0 l 1xd4
EndSplineSet
EndChar

StartChar: uni0146
Encoding: 326 326 205
Width: 1200
GlyphClass: 2
Flags: W
HStem: 0 21G<201 369 833 1001> 943 132<517.866 780.14> 1033 20G<201 345.781>
VStem: 201 168<0 821.426> 201 143<907 1053> 500 217<-337.006 -161.697> 833 168<0 888.063>
AnchorPoint: "Anchor-1" 602 0 basechar 0
AnchorPoint: "Anchor-0" 600 1053 basechar 0
LayerCount: 2
Fore
SplineSet
201 0 m 1xd6
 201 1053 l 1
 344 1053 l 1xae
 357 907 l 1
 443 1015 583 1075 705 1075 c 0
 912 1075 1001 959 1001 765 c 2
 1001 0 l 1
 833 0 l 1
 833 641 l 2
 833 856 812 943 653 943 c 0
 529 943 424 849 369 767 c 1
 369 0 l 1
 201 0 l 1xd6
609 -141 m 0
 669 -141 717 -187 717 -248 c 0
 717 -283 709 -311 687 -358 c 2
 588 -572 l 1
 485 -572 l 1
 544 -338 l 1
 517 -317 500 -283 500 -248 c 0
 500 -187 548 -141 609 -141 c 0
EndSplineSet
EndChar

StartChar: eng
Encoding: 331 331 206
Width: 1200
Flags: W
HStem: -421 21G<681.672 795.5> 0 21G<201 369> 943 132<517.7 784.322> 1033 20G<201 345.781>
VStem: 201 168<0 821.826> 201 143<907 1053> 833 168<-174.261 888.063>
LayerCount: 2
Fore
SplineSet
1001 57 m 2xe6
 1001 -241 899 -329 692 -421 c 1
 629 -299 l 1
 767 -235 833 -184 833 46 c 2
 833 641 l 2
 833 856 814 943 651 943 c 0
 531 943 424 850 369 767 c 1
 369 0 l 1
 201 0 l 1xea
 201 1053 l 1
 344 1053 l 1xd6
 357 907 l 1
 443 1015 581 1075 705 1075 c 0
 911 1075 1001 959 1001 765 c 2
 1001 57 l 2xe6
EndSplineSet
EndChar

StartChar: ntilde
Encoding: 241 241 207
Width: 1200
GlyphClass: 2
Flags: W
HStem: 0 21G<201 369 833 1001> 943 132<517.866 780.14> 1033 20G<201 345.781> 1317 130<621.785 790.866> 1414 129<408.841 580.571>
VStem: 201 168<0 821.426> 201 143<907 1053> 833 168<0 888.063>
AnchorPoint: "Anchor-1" 602 0 basechar 0
AnchorPoint: "Anchor-0" 600 1053 basechar 0
LayerCount: 2
Fore
SplineSet
716 1317 m 0x91
 611 1317 557 1414 484 1414 c 0
 438 1414 410 1381 378 1321 c 1
 271 1375 l 1
 316 1469 387 1543 485 1543 c 0x89
 595 1543 642 1447 717 1447 c 0
 756 1447 787 1475 823 1535 c 1
 929 1481 l 1
 877 1370 803 1317 716 1317 c 0x91
201 0 m 1xc5
 201 1053 l 1
 344 1053 l 1xa3
 357 907 l 1
 443 1015 583 1075 705 1075 c 0
 912 1075 1001 959 1001 765 c 2
 1001 0 l 1
 833 0 l 1
 833 641 l 2
 833 856 812 943 653 943 c 0
 529 943 424 849 369 767 c 1
 369 0 l 1
 201 0 l 1xc5
EndSplineSet
EndChar

StartChar: o
Encoding: 111 111 208
Width: 1200
GlyphClass: 2
Flags: W
HStem: -23 138<455.056 744.59> 938 137<456.725 746.169>
VStem: 147 180<264.129 786.14> 873 180<267.125 789.136>
AnchorPoint: "Anchor-1" 600 0 basechar 0
AnchorPoint: "Anchor-0" 600 1053 basechar 0
LayerCount: 2
Fore
SplineSet
602 1075 m 0
 899 1075 1053 861 1053 527 c 0
 1053 205 895 -23 600 -23 c 0
 303 -23 147 194 147 525 c 0
 147 850 305 1075 602 1075 c 0
602 938 m 0
 421 938 327 807 327 525 c 0
 327 247 419 115 600 115 c 0
 781 115 873 247 873 527 c 0
 873 807 781 938 602 938 c 0
EndSplineSet
Substitution2: "Single Substitution lookup 12 subtable" ordmasculine
Substitution2: "'aalt' Access All Alternates lookup 0 subtable" ordmasculine
EndChar

StartChar: oacute
Encoding: 243 243 209
Width: 1200
GlyphClass: 2
Flags: W
HStem: -23 138<455.056 744.59> 938 137<456.725 746.169>
VStem: 147 180<264.129 786.14> 873 180<267.125 789.136>
AnchorPoint: "Anchor-1" 600 0 basechar 0
AnchorPoint: "Anchor-0" 600 1053 basechar 0
LayerCount: 2
Fore
SplineSet
767 1594 m 1
 845 1450 l 1
 427 1280 l 1
 375 1370 l 1
 767 1594 l 1
602 1075 m 0
 899 1075 1053 861 1053 527 c 0
 1053 205 895 -23 600 -23 c 0
 303 -23 147 194 147 525 c 0
 147 850 305 1075 602 1075 c 0
602 938 m 0
 421 938 327 807 327 525 c 0
 327 247 419 115 600 115 c 0
 781 115 873 247 873 527 c 0
 873 807 781 938 602 938 c 0
EndSplineSet
Substitution2: "'locl' Localized Forms in Latin lookup 22 subtable" oacute.loclPLK
Substitution2: "'aalt' Access All Alternates lookup 0 subtable" oacute.loclPLK
EndChar

StartChar: obreve
Encoding: 335 335 210
Width: 1200
GlyphClass: 2
Flags: W
HStem: -23 138<455.056 744.59> 938 137<456.725 746.169> 1260 129<486.131 707.646>
VStem: 147 180<264.129 786.14> 301 116<1460.69 1534.14> 781 116<1466.59 1534.14> 873 180<267.125 789.136>
AnchorPoint: "Anchor-1" 600 0 basechar 0
AnchorPoint: "Anchor-0" 600 1053 basechar 0
LayerCount: 2
Fore
SplineSet
595 1260 m 0xec
 414 1260 317 1409 301 1531 c 1
 417 1557 l 1
 445 1457 501 1389 595 1389 c 0
 692 1389 753 1457 781 1557 c 1
 897 1531 l 1
 881 1409 780 1260 595 1260 c 0xec
602 1075 m 0
 899 1075 1053 861 1053 527 c 0
 1053 205 895 -23 600 -23 c 0
 303 -23 147 194 147 525 c 0xf2
 147 850 305 1075 602 1075 c 0
602 938 m 0
 421 938 327 807 327 525 c 0
 327 247 419 115 600 115 c 0
 781 115 873 247 873 527 c 0
 873 807 781 938 602 938 c 0
EndSplineSet
EndChar

StartChar: ocircumflex
Encoding: 244 244 211
Width: 1200
GlyphClass: 2
Flags: W
HStem: -23 138<455.056 744.59> 938 137<456.725 746.169>
VStem: 147 180<264.129 786.14> 873 180<267.125 789.136>
AnchorPoint: "Anchor-1" 600 0 basechar 0
AnchorPoint: "Anchor-0" 600 1053 basechar 0
LayerCount: 2
Fore
SplineSet
354 1258 m 1
 274 1341 l 1
 545 1579 l 1
 658 1579 l 1
 927 1341 l 1
 851 1258 l 1
 602 1439 l 1
 354 1258 l 1
602 1075 m 0
 899 1075 1053 861 1053 527 c 0
 1053 205 895 -23 600 -23 c 0
 303 -23 147 194 147 525 c 0
 147 850 305 1075 602 1075 c 0
602 938 m 0
 421 938 327 807 327 525 c 0
 327 247 419 115 600 115 c 0
 781 115 873 247 873 527 c 0
 873 807 781 938 602 938 c 0
EndSplineSet
EndChar

StartChar: odieresis
Encoding: 246 246 212
Width: 1200
GlyphClass: 2
Flags: W
HStem: -23 138<455.056 744.59> 938 137<456.725 746.169> 1297 214<303.898 479.648 718.058 893.808>
VStem: 147 180<264.129 786.14> 283 218<1317.34 1490.24> 697 218<1317.34 1490.24> 873 180<267.125 789.136>
AnchorPoint: "Anchor-1" 600 0 basechar 0
AnchorPoint: "Anchor-0" 600 1400 basechar 0
LayerCount: 2
Fore
SplineSet
393 1297 m 0xe8
 329 1297 283 1342 283 1403 c 0
 283 1465 329 1511 393 1511 c 0
 453 1511 501 1465 501 1403 c 0
 501 1342 453 1297 393 1297 c 0xe8
805 1297 m 0
 744 1297 697 1342 697 1403 c 0
 697 1465 744 1511 805 1511 c 0
 868 1511 915 1465 915 1403 c 0xe4
 915 1342 868 1297 805 1297 c 0
602 1075 m 0
 899 1075 1053 861 1053 527 c 0
 1053 205 895 -23 600 -23 c 0
 303 -23 147 194 147 525 c 0xf2
 147 850 305 1075 602 1075 c 0
602 938 m 0
 421 938 327 807 327 525 c 0
 327 247 419 115 600 115 c 0
 781 115 873 247 873 527 c 0
 873 807 781 938 602 938 c 0
EndSplineSet
EndChar

StartChar: ograve
Encoding: 242 242 213
Width: 1200
GlyphClass: 2
Flags: W
HStem: -23 138<455.056 744.59> 938 137<456.725 746.169>
VStem: 147 180<264.129 786.14> 873 180<267.125 789.136>
AnchorPoint: "Anchor-1" 600 0 basechar 0
AnchorPoint: "Anchor-0" 600 1053 basechar 0
LayerCount: 2
Fore
SplineSet
773 1244 m 1
 369 1430 l 1
 459 1573 l 1
 828 1337 l 1
 773 1244 l 1
602 1075 m 0
 899 1075 1053 861 1053 527 c 0
 1053 205 895 -23 600 -23 c 0
 303 -23 147 194 147 525 c 0
 147 850 305 1075 602 1075 c 0
602 938 m 0
 421 938 327 807 327 525 c 0
 327 247 419 115 600 115 c 0
 781 115 873 247 873 527 c 0
 873 807 781 938 602 938 c 0
EndSplineSet
EndChar

StartChar: ohungarumlaut
Encoding: 337 337 214
Width: 1200
GlyphClass: 2
Flags: W
HStem: -23 138<455.056 744.59> 938 137<456.725 746.169>
VStem: 147 180<264.129 786.14> 873 180<267.125 789.136>
AnchorPoint: "Anchor-1" 600 0 basechar 0
AnchorPoint: "Anchor-0" 600 1053 basechar 0
LayerCount: 2
Fore
SplineSet
354 1324 m 1
 510 1671 l 1
 658 1601 l 1
 464 1273 l 1
 354 1324 l 1
682 1324 m 1
 858 1671 l 1
 1004 1594 l 1
 788 1268 l 1
 682 1324 l 1
602 1075 m 0
 899 1075 1053 861 1053 527 c 0
 1053 205 895 -23 600 -23 c 0
 303 -23 147 194 147 525 c 0
 147 850 305 1075 602 1075 c 0
602 938 m 0
 421 938 327 807 327 525 c 0
 327 247 419 115 600 115 c 0
 781 115 873 247 873 527 c 0
 873 807 781 938 602 938 c 0
EndSplineSet
EndChar

StartChar: omacron
Encoding: 333 333 215
Width: 1200
GlyphClass: 2
Flags: W
HStem: -23 138<455.056 744.59> 938 137<456.725 746.169> 1352 128<330 868>
VStem: 147 180<264.129 786.14> 873 180<267.125 789.136>
AnchorPoint: "Anchor-1" 600 0 basechar 0
AnchorPoint: "Anchor-0" 600 1053 basechar 0
LayerCount: 2
Fore
SplineSet
868 1352 m 1
 330 1352 l 1
 330 1480 l 1
 868 1480 l 1
 868 1352 l 1
602 1075 m 0
 899 1075 1053 861 1053 527 c 0
 1053 205 895 -23 600 -23 c 0
 303 -23 147 194 147 525 c 0
 147 850 305 1075 602 1075 c 0
602 938 m 0
 421 938 327 807 327 525 c 0
 327 247 419 115 600 115 c 0
 781 115 873 247 873 527 c 0
 873 807 781 938 602 938 c 0
EndSplineSet
EndChar

StartChar: oslash
Encoding: 248 248 216
Width: 1200
GlyphClass: 2
Flags: W
HStem: -23 139<534 744.464> 937 138<456.852 668>
VStem: 147 181<266.013 785.753> 872 181<267.294 792.774>
AnchorPoint: "Anchor-0" 600 1053 basechar 0
LayerCount: 2
Fore
SplineSet
602 1075 m 0
 637 1075 669 1072 700 1066 c 1
 776 1308 l 1
 917 1267 l 1
 833 1015 l 1
 975 930 1053 757 1053 527 c 0
 1053 205 895 -23 600 -23 c 0
 565 -23 531 -20 499 -13 c 1
 426 -261 l 1
 286 -219 l 1
 370 36 l 1
 227 122 147 297 147 525 c 0
 147 850 305 1075 602 1075 c 0
602 937 m 0
 421 937 328 806 328 525 c 0
 328 342 363 229 432 169 c 1
 668 931 l 1
 647 935 626 937 602 937 c 0
872 527 m 0
 872 710 837 823 770 882 c 1
 534 122 l 1
 555 118 577 116 600 116 c 0
 781 116 872 247 872 527 c 0
EndSplineSet
EndChar

StartChar: oslashacute
Encoding: 511 511 217
Width: 1200
GlyphClass: 2
Flags: W
HStem: -23 139<534 744.464> 937 138<456.852 668>
VStem: 147 181<266.013 785.753> 872 181<267.294 792.774>
AnchorPoint: "Anchor-0" 600 1053 basechar 0
LayerCount: 2
Fore
SplineSet
767 1594 m 1
 845 1450 l 1
 427 1280 l 1
 375 1370 l 1
 767 1594 l 1
602 1075 m 0
 637 1075 669 1072 700 1066 c 1
 776 1308 l 1
 917 1267 l 1
 833 1015 l 1
 975 930 1053 757 1053 527 c 0
 1053 205 895 -23 600 -23 c 0
 565 -23 531 -20 499 -13 c 1
 426 -261 l 1
 286 -219 l 1
 370 36 l 1
 227 122 147 297 147 525 c 0
 147 850 305 1075 602 1075 c 0
602 937 m 0
 421 937 328 806 328 525 c 0
 328 342 363 229 432 169 c 1
 668 931 l 1
 647 935 626 937 602 937 c 0
872 527 m 0
 872 710 837 823 770 882 c 1
 534 122 l 1
 555 118 577 116 600 116 c 0
 781 116 872 247 872 527 c 0
EndSplineSet
EndChar

StartChar: otilde
Encoding: 245 245 218
Width: 1200
GlyphClass: 2
Flags: W
HStem: -23 138<455.056 744.59> 938 137<456.725 746.169> 1317 130<621.926 791.039> 1414 129<409.035 580.623>
VStem: 147 180<264.129 786.14> 873 180<267.125 789.136>
AnchorPoint: "Anchor-1" 600 0 basechar 0
AnchorPoint: "Anchor-0" 600 1053 basechar 0
LayerCount: 2
Fore
SplineSet
717 1317 m 0xec
 611 1317 557 1414 484 1414 c 0
 439 1414 410 1381 378 1321 c 1
 271 1375 l 1
 317 1469 387 1543 485 1543 c 0xdc
 595 1543 642 1447 717 1447 c 0
 756 1447 787 1475 823 1535 c 1
 929 1481 l 1
 877 1370 803 1317 717 1317 c 0xec
602 1075 m 0
 899 1075 1053 861 1053 527 c 0
 1053 205 895 -23 600 -23 c 0
 303 -23 147 194 147 525 c 0
 147 850 305 1075 602 1075 c 0
602 938 m 0
 421 938 327 807 327 525 c 0
 327 247 419 115 600 115 c 0
 781 115 873 247 873 527 c 0
 873 807 781 938 602 938 c 0
EndSplineSet
EndChar

StartChar: oe
Encoding: 339 339 219
Width: 1200
Flags: W
HStem: -23 138<251.904 460.204 803.089 1056.2> 465 132<700 1066> 936 139<251.33 459.463 783.089 997.714>
VStem: -5 179<214.545 834.172> 531 169<249.361 465 597 826.801> 1066 164<597 852.614>
LayerCount: 2
Fore
SplineSet
899 1075 m 0
 1131 1075 1230 879 1230 559 c 0
 1230 523 1228 491 1226 465 c 1
 700 465 l 1
 718 227 781 118 919 118 c 0
 995 118 1045 147 1112 197 c 1
 1189 82 l 1
 1109 19 1029 -23 917 -23 c 0
 770 -23 670 51 617 180 c 1
 567 59 491 -23 334 -23 c 0
 100 -23 -5 194 -5 525 c 0
 -5 850 96 1075 334 1075 c 0
 499 1075 573 993 619 869 c 1
 667 987 749 1075 899 1075 c 0
355 940 m 0
 225 940 174 805 174 525 c 0
 174 237 225 115 355 115 c 0
 486 115 531 227 531 527 c 0
 531 807 484 940 355 940 c 0
893 936 m 0
 773 936 717 847 700 597 c 1
 1066 597 l 1
 1061 819 1024 936 893 936 c 0
EndSplineSet
EndChar

StartChar: p
Encoding: 112 112 220
Width: 1200
GlyphClass: 2
Flags: W
HStem: -424 21G<201 361> -23 140<465.33 754.163> 940 135<500.205 759.412> 1033 20G<201 345.905>
VStem: 201 168<-403 99 196.849 825.769> 201 143<906 1053> 873 180<258.484 801.383>
AnchorPoint: "Anchor-1" 600 0 basechar 0
AnchorPoint: "Anchor-0" 600 1053 basechar 0
LayerCount: 2
Fore
SplineSet
672 1075 m 0xe6
 953 1075 1053 857 1053 527 c 0
 1053 208 921 -23 647 -23 c 0
 532 -23 439 17 369 99 c 1
 369 -403 l 1xea
 201 -424 l 1
 201 1053 l 1
 344 1053 l 1xd6
 358 906 l 1
 435 1014 545 1075 672 1075 c 0xe6
632 940 m 0
 515 940 426 856 369 771 c 1
 369 249 l 1
 424 167 510 117 610 117 c 0
 785 117 873 247 873 528 c 0
 873 803 797 940 632 940 c 0
EndSplineSet
EndChar

StartChar: thorn
Encoding: 254 254 221
Width: 1200
GlyphClass: 2
Flags: W
HStem: -424 21G<201 361> -23 140<465.33 754.163> 940 135<499.567 759.412> 1478 20G<209 369>
VStem: 201 168<-403 99 196.849 825.769 923 1477> 873 180<258.484 801.383>
AnchorPoint: "Anchor-1" 600 -399 basechar 0
AnchorPoint: "Anchor-0" 600 1477 basechar 0
LayerCount: 2
Fore
SplineSet
369 1498 m 1
 369 923 l 1
 446 1021 553 1075 672 1075 c 0
 953 1075 1053 857 1053 527 c 0
 1053 208 921 -23 647 -23 c 0
 532 -23 439 17 369 99 c 1
 369 -403 l 1
 201 -424 l 1
 201 1477 l 1
 369 1498 l 1
632 940 m 0
 515 940 426 856 369 771 c 1
 369 249 l 1
 424 167 510 117 610 117 c 0
 785 117 873 247 873 528 c 0
 873 803 797 940 632 940 c 0
EndSplineSet
EndChar

StartChar: q
Encoding: 113 113 222
Width: 1200
GlyphClass: 2
Flags: W
HStem: -424 21G<839 999> -23 140<436.519 706.277> 940 135<453.645 730.177> 1033 20G<853.565 999>
VStem: 147 180<252.307 793.65> 831 168<-403 133 224.689 858.805> 856 143<938 1053>
AnchorPoint: "Anchor-1" 600 0 basechar 0
AnchorPoint: "Anchor-0" 600 1053 basechar 0
LayerCount: 2
Fore
SplineSet
548 1075 m 0xec
 675 1075 771 1027 842 938 c 1
 856 1053 l 1
 999 1053 l 1
 999 -424 l 1xda
 831 -403 l 1
 831 133 l 1
 754 25 649 -23 535 -23 c 0
 251 -23 147 195 147 525 c 0
 147 842 287 1075 548 1075 c 0xec
590 940 m 0xec
 415 940 327 803 327 525 c 0
 327 252 407 117 570 117 c 0
 687 117 774 193 831 279 c 1
 831 805 l 1
 776 890 689 940 590 940 c 0xec
EndSplineSet
EndChar

StartChar: r
Encoding: 114 114 223
Width: 1200
GlyphClass: 2
Flags: W
HStem: 0 129<211 375 543 757> 921 155<739.073 899> 924 129<211 375>
VStem: 375 168<129 684.188> 899 138<697 904.667>
AnchorPoint: "Anchor-1" 459 0 basechar 0
AnchorPoint: "Anchor-0" 661 1053 basechar 0
LayerCount: 2
Fore
SplineSet
211 0 m 1xd8
 211 129 l 1
 375 129 l 1
 375 924 l 1
 211 924 l 1
 211 1053 l 1
 503 1053 l 1xb8
 534 804 l 1
 615 977 721 1076 912 1076 c 0xd8
 971 1076 1013 1067 1061 1053 c 1xb8
 1037 697 l 1
 899 697 l 1
 899 921 l 2
 896 921 893 921 890 921 c 0
 727 921 613 807 543 575 c 1
 543 129 l 1
 757 129 l 1
 757 0 l 1
 211 0 l 1xd8
EndSplineSet
Substitution2: "'ss01' Style Set 1 lookup 395 subtable" r.ss01
Substitution2: "'salt' Stylistic Alternatives lookup 394 subtable" r.ss01
Substitution2: "'aalt' Access All Alternates lookup 0 subtable" r.ss01
EndChar

StartChar: racute
Encoding: 341 341 224
Width: 1200
GlyphClass: 2
Flags: W
HStem: 0 129<211 375 543 757> 921 155<739.073 899> 924 129<211 375>
VStem: 375 168<129 684.188> 899 138<697 904.667>
AnchorPoint: "Anchor-1" 459 0 basechar 0
AnchorPoint: "Anchor-0" 661 1053 basechar 0
LayerCount: 2
Fore
SplineSet
828 1594 m 1x98
 906 1450 l 1
 488 1280 l 1
 435 1370 l 1
 828 1594 l 1x98
211 0 m 1
 211 129 l 1
 375 129 l 1
 375 924 l 1
 211 924 l 1
 211 1053 l 1
 503 1053 l 1xb8
 534 804 l 1
 615 977 721 1076 912 1076 c 0xd8
 971 1076 1013 1067 1061 1053 c 1xb8
 1037 697 l 1
 899 697 l 1
 899 921 l 2
 896 921 893 921 890 921 c 0xd8
 727 921 613 807 543 575 c 1
 543 129 l 1
 757 129 l 1
 757 0 l 1
 211 0 l 1
EndSplineSet
EndChar

StartChar: rcaron
Encoding: 345 345 225
Width: 1200
GlyphClass: 2
Flags: W
HStem: 0 129<211 375 543 757> 921 155<739.073 899> 924 129<211 375>
VStem: 375 168<129 684.188> 899 138<697 904.667>
AnchorPoint: "Anchor-1" 459 0 basechar 0
AnchorPoint: "Anchor-0" 661 1053 basechar 0
LayerCount: 2
Fore
SplineSet
911 1579 m 1x98
 987 1495 l 1
 718 1258 l 1
 605 1258 l 1
 335 1495 l 1
 415 1579 l 1
 663 1397 l 1
 911 1579 l 1x98
211 0 m 1
 211 129 l 1
 375 129 l 1
 375 924 l 1
 211 924 l 1
 211 1053 l 1
 503 1053 l 1xb8
 534 804 l 1
 615 977 721 1076 912 1076 c 0xd8
 971 1076 1013 1067 1061 1053 c 1xb8
 1037 697 l 1
 899 697 l 1
 899 921 l 2
 896 921 893 921 890 921 c 0xd8
 727 921 613 807 543 575 c 1
 543 129 l 1
 757 129 l 1
 757 0 l 1
 211 0 l 1
EndSplineSet
EndChar

StartChar: uni0157
Encoding: 343 343 226
Width: 1200
GlyphClass: 2
Flags: W
HStem: 0 129<211 375 543 757> 921 155<739.073 899> 924 129<211 375>
VStem: 357 217<-337.006 -161.697> 375 168<129 684.188> 899 138<697 904.667>
AnchorPoint: "Anchor-1" 459 0 basechar 0
AnchorPoint: "Anchor-0" 661 1053 basechar 0
LayerCount: 2
Fore
SplineSet
211 0 m 1xcc
 211 129 l 1
 375 129 l 1
 375 924 l 1
 211 924 l 1
 211 1053 l 1
 503 1053 l 1xac
 534 804 l 1
 615 977 721 1076 912 1076 c 0xcc
 971 1076 1013 1067 1061 1053 c 1xac
 1037 697 l 1
 899 697 l 1
 899 921 l 2
 896 921 893 921 890 921 c 0
 727 921 613 807 543 575 c 1
 543 129 l 1
 757 129 l 1
 757 0 l 1
 211 0 l 1xcc
466 -141 m 0
 526 -141 574 -187 574 -248 c 0
 574 -283 565 -311 544 -358 c 2
 444 -572 l 1
 342 -572 l 1
 400 -338 l 1
 374 -317 357 -283 357 -248 c 0x94
 357 -187 405 -141 466 -141 c 0
EndSplineSet
EndChar

StartChar: s
Encoding: 115 115 227
Width: 1200
GlyphClass: 2
Flags: W
HStem: -23 139<355.472 744.565> 939 136<426.165 823.025>
VStem: 207 174<709.266 893.672> 821 182<184.437 397.556>
AnchorPoint: "Anchor-1" 593 0 basechar 0
AnchorPoint: "Anchor-0" 615 1053 basechar 0
LayerCount: 2
Fore
SplineSet
559 116 m 0
 721 116 821 181 821 283 c 0
 821 378 789 429 566 485 c 0
 347 539 207 605 207 788 c 0
 207 965 369 1075 607 1075 c 0
 776 1075 901 1024 989 959 c 1
 915 845 l 1
 836 899 745 939 609 939 c 0
 443 939 381 882 381 801 c 0
 381 707 448 674 661 616 c 0
 867 560 1003 488 1003 291 c 0
 1003 66 784 -23 559 -23 c 0
 369 -23 237 41 147 119 c 1
 243 230 l 1
 325 161 435 116 559 116 c 0
EndSplineSet
EndChar

StartChar: sacute
Encoding: 347 347 228
Width: 1200
GlyphClass: 2
Flags: W
HStem: -23 139<355.472 744.565> 939 136<426.165 823.025>
VStem: 207 174<709.266 893.672> 821 182<184.437 397.556>
AnchorPoint: "Anchor-1" 593 0 basechar 0
AnchorPoint: "Anchor-0" 615 1053 basechar 0
LayerCount: 2
Fore
SplineSet
783 1594 m 1
 860 1450 l 1
 442 1280 l 1
 390 1370 l 1
 783 1594 l 1
559 116 m 0
 721 116 821 181 821 283 c 0
 821 378 789 429 566 485 c 0
 347 539 207 605 207 788 c 0
 207 965 369 1075 607 1075 c 0
 776 1075 901 1024 989 959 c 1
 915 845 l 1
 836 899 745 939 609 939 c 0
 443 939 381 882 381 801 c 0
 381 707 448 674 661 616 c 0
 867 560 1003 488 1003 291 c 0
 1003 66 784 -23 559 -23 c 0
 369 -23 237 41 147 119 c 1
 243 230 l 1
 325 161 435 116 559 116 c 0
EndSplineSet
Substitution2: "'locl' Localized Forms in Latin lookup 22 subtable" sacute.loclPLK
Substitution2: "'aalt' Access All Alternates lookup 0 subtable" sacute.loclPLK
EndChar

StartChar: scaron
Encoding: 353 353 229
Width: 1200
GlyphClass: 2
Flags: W
HStem: -23 139<355.472 744.565> 939 136<426.165 823.025>
VStem: 207 174<709.266 893.672> 821 182<184.437 397.556>
AnchorPoint: "Anchor-1" 593 0 basechar 0
AnchorPoint: "Anchor-0" 615 1053 basechar 0
LayerCount: 2
Fore
SplineSet
866 1579 m 1
 942 1495 l 1
 673 1258 l 1
 560 1258 l 1
 289 1495 l 1
 369 1579 l 1
 618 1397 l 1
 866 1579 l 1
559 116 m 0
 721 116 821 181 821 283 c 0
 821 378 789 429 566 485 c 0
 347 539 207 605 207 788 c 0
 207 965 369 1075 607 1075 c 0
 776 1075 901 1024 989 959 c 1
 915 845 l 1
 836 899 745 939 609 939 c 0
 443 939 381 882 381 801 c 0
 381 707 448 674 661 616 c 0
 867 560 1003 488 1003 291 c 0
 1003 66 784 -23 559 -23 c 0
 369 -23 237 41 147 119 c 1
 243 230 l 1
 325 161 435 116 559 116 c 0
EndSplineSet
EndChar

StartChar: scedilla
Encoding: 351 351 230
Width: 1200
GlyphClass: 2
Flags: W
HStem: -477 114<399.191 662.467> -22 138<359.017 513 632 746.449> 939 136<426.165 823.025>
VStem: 207 174<709.266 893.672> 673 145<-348.893 -212.301> 821 182<182.088 397.556>
AnchorPoint: "Anchor-1" 593 0 basechar 0
AnchorPoint: "Anchor-0" 615 1053 basechar 0
LayerCount: 2
Fore
SplineSet
559 116 m 0
 721 116 821 181 821 283 c 0
 821 378 789 429 566 485 c 0
 347 539 207 605 207 788 c 0
 207 965 369 1075 607 1075 c 0
 776 1075 901 1024 989 959 c 1
 915 845 l 1
 836 899 745 939 609 939 c 0
 443 939 381 882 381 801 c 0
 381 707 448 674 661 616 c 0
 867 560 1003 488 1003 291 c 0
 1003 91 830 -2 632 -20 c 1
 632 -114 l 1
 764 -125 818 -201 818 -281 c 0
 818 -412 702 -477 574 -477 c 0
 494 -477 417 -458 365 -428 c 1
 419 -331 l 1
 456 -351 510 -363 554 -363 c 0
 624 -363 673 -341 673 -281 c 0
 673 -209 607 -195 500 -195 c 1
 513 -22 l 1
 348 -13 230 47 147 119 c 1
 243 230 l 1
 325 161 435 116 559 116 c 0
EndSplineSet
Substitution2: "'locl' Localized Forms in Latin lookup 20 subtable" uni0219
Substitution2: "'locl' Localized Forms in Latin lookup 19 subtable" uni0219
Substitution2: "'aalt' Access All Alternates lookup 0 subtable" uni0219
EndChar

StartChar: scircumflex
Encoding: 349 349 231
Width: 1200
GlyphClass: 2
Flags: W
HStem: -23 139<355.472 744.565> 939 136<426.165 823.025>
VStem: 207 174<709.266 893.672> 821 182<184.437 397.556>
AnchorPoint: "Anchor-1" 593 0 basechar 0
AnchorPoint: "Anchor-0" 615 1053 basechar 0
LayerCount: 2
Fore
SplineSet
369 1258 m 1
 289 1341 l 1
 560 1579 l 1
 673 1579 l 1
 942 1341 l 1
 866 1258 l 1
 618 1439 l 1
 369 1258 l 1
559 116 m 0
 721 116 821 181 821 283 c 0
 821 378 789 429 566 485 c 0
 347 539 207 605 207 788 c 0
 207 965 369 1075 607 1075 c 0
 776 1075 901 1024 989 959 c 1
 915 845 l 1
 836 899 745 939 609 939 c 0
 443 939 381 882 381 801 c 0
 381 707 448 674 661 616 c 0
 867 560 1003 488 1003 291 c 0
 1003 66 784 -23 559 -23 c 0
 369 -23 237 41 147 119 c 1
 243 230 l 1
 325 161 435 116 559 116 c 0
EndSplineSet
EndChar

StartChar: uni0219
Encoding: 537 537 232
Width: 1200
GlyphClass: 2
Flags: W
HStem: -23 139<355.472 744.565> 939 136<426.165 823.025>
VStem: 207 174<709.266 893.672> 491 217<-337.006 -161.697> 821 182<184.437 397.556>
AnchorPoint: "Anchor-1" 593 0 basechar 0
AnchorPoint: "Anchor-0" 615 1053 basechar 0
LayerCount: 2
Fore
SplineSet
559 116 m 0
 721 116 821 181 821 283 c 0
 821 378 789 429 566 485 c 0
 347 539 207 605 207 788 c 0
 207 965 369 1075 607 1075 c 0
 776 1075 901 1024 989 959 c 1
 915 845 l 1
 836 899 745 939 609 939 c 0
 443 939 381 882 381 801 c 0
 381 707 448 674 661 616 c 0
 867 560 1003 488 1003 291 c 0
 1003 66 784 -23 559 -23 c 0
 369 -23 237 41 147 119 c 1
 243 230 l 1
 325 161 435 116 559 116 c 0
600 -141 m 0
 660 -141 708 -187 708 -248 c 0
 708 -283 699 -311 678 -358 c 2
 578 -572 l 1
 476 -572 l 1
 534 -338 l 1
 508 -317 491 -283 491 -248 c 0
 491 -187 539 -141 600 -141 c 0
EndSplineSet
EndChar

StartChar: germandbls
Encoding: 223 223 233
Width: 1200
Flags: W
HStem: -23 136<547.589 872.424> 0 21G<192 360> 1363 135<443.959 726.08>
VStem: 192 168<0 1273.46> 548 166<768.441 943.277> 781 160<1097.27 1308.03> 945 171<185.946 449.552>
LayerCount: 2
Fore
SplineSet
593 1498 m 0x7e
 799 1498 941 1380 941 1211 c 0
 941 1015 714 981 714 857 c 0
 714 683 1116 671 1116 334 c 0
 1116 102 944 -23 743 -23 c 0
 637 -23 555 1 485 46 c 1
 553 161 l 1
 602 133 669 113 727 113 c 0xbe
 862 113 945 182 945 325 c 0
 945 581 548 575 548 837 c 0
 548 1028 781 1046 781 1194 c 0
 781 1267 737 1363 592 1363 c 0
 443 1363 360 1285 360 1078 c 2
 360 0 l 1
 192 0 l 1
 192 1067 l 2
 192 1350 343 1498 593 1498 c 0x7e
EndSplineSet
EndChar

StartChar: t
Encoding: 116 116 234
Width: 1200
GlyphClass: 2
Flags: W
HStem: -23 140<619.823 958.952> 923 130<159 401 569 913>
VStem: 401 168<166.844 923 1053 1292>
AnchorPoint: "Anchor-1" 743 0 basechar 0
AnchorPoint: "Anchor-0" 485 1304 basechar 0
LayerCount: 2
Fore
SplineSet
1037 53 m 1
 965 6 853 -23 755 -23 c 0
 529 -23 401 109 401 295 c 2
 401 923 l 1
 159 923 l 1
 159 1053 l 1
 401 1053 l 1
 401 1292 l 1
 569 1312 l 1
 569 1053 l 1
 933 1053 l 1
 913 923 l 1
 569 923 l 1
 569 297 l 2
 569 180 626 117 770 117 c 0
 849 117 915 137 972 167 c 1
 1037 53 l 1
EndSplineSet
EndChar

StartChar: tbar
Encoding: 359 359 235
Width: 1200
GlyphClass: 2
Flags: W
HStem: -23 140<619.823 958.952> 575 129<181 401 569 915> 923 130<159 401 569 913>
VStem: 401 168<166.844 575 704 923 1053 1292>
AnchorPoint: "Anchor-1" 743 0 basechar 0
AnchorPoint: "Anchor-0" 485 1304 basechar 0
LayerCount: 2
Fore
SplineSet
1037 53 m 1
 965 6 853 -23 755 -23 c 0
 529 -23 401 109 401 295 c 2
 401 575 l 1
 181 575 l 1
 181 704 l 1
 401 704 l 1
 401 923 l 1
 159 923 l 1
 159 1053 l 1
 401 1053 l 1
 401 1292 l 1
 569 1312 l 1
 569 1053 l 1
 933 1053 l 1
 913 923 l 1
 569 923 l 1
 569 704 l 1
 915 704 l 1
 915 575 l 1
 569 575 l 1
 569 297 l 2
 569 180 626 117 770 117 c 0
 849 117 915 137 972 167 c 1
 1037 53 l 1
EndSplineSet
EndChar

StartChar: tcaron
Encoding: 357 357 236
Width: 1200
GlyphClass: 2
Flags: W
HStem: -23 140<619.823 958.952> 923 130<159 401 569 913>
VStem: 401 168<166.844 923 1053 1292>
AnchorPoint: "Anchor-1" 743 0 basechar 0
AnchorPoint: "Anchor-0" 485 1304 basechar 0
LayerCount: 2
Fore
SplineSet
726 1522 m 1
 879 1505 l 1
 772 1148 l 1
 678 1162 l 1
 726 1522 l 1
1037 53 m 1
 965 6 853 -23 755 -23 c 0
 529 -23 401 109 401 295 c 2
 401 923 l 1
 159 923 l 1
 159 1053 l 1
 401 1053 l 1
 401 1292 l 1
 569 1312 l 1
 569 1053 l 1
 933 1053 l 1
 913 923 l 1
 569 923 l 1
 569 297 l 2
 569 180 626 117 770 117 c 0
 849 117 915 137 972 167 c 1
 1037 53 l 1
EndSplineSet
EndChar

StartChar: uni0163
Encoding: 355 355 237
Width: 1200
GlyphClass: 2
Flags: W
HStem: -477 114<549.182 812.467> -15 132<626 664 782 958.474> 923 130<159 401 569 913>
VStem: 401 168<170.775 923 1053 1292> 823 145<-348.893 -212.301>
AnchorPoint: "Anchor-1" 743 0 basechar 0
AnchorPoint: "Anchor-0" 485 1304 basechar 0
LayerCount: 2
Fore
SplineSet
823 -281 m 0
 823 -209 757 -195 650 -195 c 1
 664 -15 l 1
 495 16 401 135 401 295 c 2
 401 923 l 1
 159 923 l 1
 159 1053 l 1
 401 1053 l 1
 401 1292 l 1
 569 1312 l 1
 569 1053 l 1
 933 1053 l 1
 913 923 l 1
 569 923 l 1
 569 297 l 2
 569 180 626 117 770 117 c 0
 849 117 915 137 972 167 c 1
 1037 53 l 1
 972 10 874 -18 782 -22 c 1
 782 -114 l 1
 914 -125 968 -201 968 -281 c 0
 968 -412 852 -477 724 -477 c 0
 643 -477 567 -458 515 -428 c 1
 569 -331 l 1
 606 -351 660 -363 704 -363 c 0
 774 -363 823 -341 823 -281 c 0
EndSplineSet
Substitution2: "'locl' Localized Forms in Latin lookup 20 subtable" uni021B
Substitution2: "'locl' Localized Forms in Latin lookup 19 subtable" uni021B
Substitution2: "'aalt' Access All Alternates lookup 0 subtable" uni021B
EndChar

StartChar: uni021B
Encoding: 539 539 238
Width: 1200
GlyphClass: 2
Flags: W
HStem: -23 140<619.823 958.952> 923 130<159 401 569 913>
VStem: 401 168<166.844 923 1053 1292> 641 217<-337.006 -161.697>
AnchorPoint: "Anchor-1" 743 0 basechar 0
AnchorPoint: "Anchor-0" 485 1304 basechar 0
LayerCount: 2
Fore
SplineSet
1037 53 m 1
 965 6 853 -23 755 -23 c 0
 529 -23 401 109 401 295 c 2
 401 923 l 1
 159 923 l 1
 159 1053 l 1
 401 1053 l 1
 401 1292 l 1
 569 1312 l 1
 569 1053 l 1
 933 1053 l 1
 913 923 l 1
 569 923 l 1
 569 297 l 2
 569 180 626 117 770 117 c 0
 849 117 915 137 972 167 c 1
 1037 53 l 1
750 -141 m 0
 810 -141 858 -187 858 -248 c 0
 858 -283 849 -311 828 -358 c 2
 728 -572 l 1
 626 -572 l 1
 684 -338 l 1
 658 -317 641 -283 641 -248 c 0
 641 -187 689 -141 750 -141 c 0
EndSplineSet
EndChar

StartChar: u
Encoding: 117 117 239
Width: 1200
GlyphClass: 2
Flags: W
HStem: -23 134<415.745 689.884> 0 21G<854.028 999> 1033 20G<201 369 831 999>
VStem: 201 168<157.25 1053> 831 168<225.302 1053> 856 143<0 142>
AnchorPoint: "Anchor-0" 600 1053 basechar 0
LayerCount: 2
Fore
SplineSet
369 1053 m 1xb4
 369 307 l 2
 369 169 424 111 546 111 c 0
 661 111 774 188 831 278 c 1
 831 1053 l 1
 999 1053 l 1xb8
 999 0 l 1
 856 0 l 1x74
 842 142 l 1
 759 35 628 -23 505 -23 c 0
 301 -23 201 92 201 287 c 2
 201 1053 l 1
 369 1053 l 1xb4
EndSplineSet
EndChar

StartChar: uacute
Encoding: 250 250 240
Width: 1200
GlyphClass: 2
Flags: W
HStem: -23 134<415.745 689.884> 0 21G<854.028 999> 1033 20G<201 369 831 999>
VStem: 201 168<157.25 1053> 831 168<225.302 1053> 856 143<0 142>
AnchorPoint: "Anchor-0" 600 1053 basechar 0
LayerCount: 2
Fore
SplineSet
767 1594 m 1x30
 845 1450 l 1
 427 1280 l 1
 375 1370 l 1
 767 1594 l 1x30
369 1053 m 1
 369 307 l 2
 369 169 424 111 546 111 c 0
 661 111 774 188 831 278 c 1
 831 1053 l 1
 999 1053 l 1xb8
 999 0 l 1
 856 0 l 1x74
 842 142 l 1
 759 35 628 -23 505 -23 c 0xb4
 301 -23 201 92 201 287 c 2
 201 1053 l 1
 369 1053 l 1
EndSplineSet
EndChar

StartChar: ubreve
Encoding: 365 365 241
Width: 1200
GlyphClass: 2
Flags: W
HStem: -23 134<415.745 689.884> 0 21G<854.028 999> 1033 20G<201 369 831 999> 1260 129<486.131 707.646>
VStem: 201 168<157.25 1053> 301 116<1460.69 1534.14> 781 116<1466.59 1534.14> 831 168<225.302 1053> 856 143<0 142>
AnchorPoint: "Anchor-0" 600 1053 basechar 0
LayerCount: 2
Fore
SplineSet
595 1260 m 0x36
 414 1260 317 1409 301 1531 c 1
 417 1557 l 1
 445 1457 501 1389 595 1389 c 0
 692 1389 753 1457 781 1557 c 1
 897 1531 l 1
 881 1409 780 1260 595 1260 c 0x36
369 1053 m 1xb880
 369 307 l 2
 369 169 424 111 546 111 c 0
 661 111 774 188 831 278 c 1
 831 1053 l 1
 999 1053 l 1xb9
 999 0 l 1
 856 0 l 1x7080
 842 142 l 1
 759 35 628 -23 505 -23 c 0
 301 -23 201 92 201 287 c 2
 201 1053 l 1
 369 1053 l 1xb880
EndSplineSet
EndChar

StartChar: ucircumflex
Encoding: 251 251 242
Width: 1200
GlyphClass: 2
Flags: W
HStem: -23 134<415.745 689.884> 0 21G<854.028 999> 1033 20G<201 369 831 999>
VStem: 201 168<157.25 1053> 831 168<225.302 1053> 856 143<0 142>
AnchorPoint: "Anchor-0" 600 1053 basechar 0
LayerCount: 2
Fore
SplineSet
354 1258 m 1x30
 274 1341 l 1
 545 1579 l 1
 658 1579 l 1
 927 1341 l 1
 851 1258 l 1
 602 1439 l 1
 354 1258 l 1x30
369 1053 m 1
 369 307 l 2
 369 169 424 111 546 111 c 0
 661 111 774 188 831 278 c 1
 831 1053 l 1
 999 1053 l 1xb8
 999 0 l 1
 856 0 l 1x74
 842 142 l 1
 759 35 628 -23 505 -23 c 0xb4
 301 -23 201 92 201 287 c 2
 201 1053 l 1
 369 1053 l 1
EndSplineSet
EndChar

StartChar: udieresis
Encoding: 252 252 243
Width: 1200
GlyphClass: 2
Flags: W
HStem: -23 134<415.745 689.884> 0 21G<854.028 999> 1033 20G<201 369 831 999> 1297 214<303.898 479.648 718.058 893.808>
VStem: 201 168<157.25 1053> 283 218<1317.34 1490.24> 697 218<1317.34 1490.24> 831 168<225.302 1053> 856 143<0 142>
AnchorPoint: "Anchor-0" 600 1400 basechar 0
LayerCount: 2
Fore
SplineSet
393 1297 m 0x34
 329 1297 283 1342 283 1403 c 0
 283 1465 329 1511 393 1511 c 0
 453 1511 501 1465 501 1403 c 0
 501 1342 453 1297 393 1297 c 0x34
805 1297 m 0
 744 1297 697 1342 697 1403 c 0
 697 1465 744 1511 805 1511 c 0
 868 1511 915 1465 915 1403 c 0x32
 915 1342 868 1297 805 1297 c 0
369 1053 m 1xb880
 369 307 l 2
 369 169 424 111 546 111 c 0
 661 111 774 188 831 278 c 1
 831 1053 l 1
 999 1053 l 1xb9
 999 0 l 1
 856 0 l 1x7080
 842 142 l 1
 759 35 628 -23 505 -23 c 0
 301 -23 201 92 201 287 c 2
 201 1053 l 1
 369 1053 l 1xb880
EndSplineSet
EndChar

StartChar: ugrave
Encoding: 249 249 244
Width: 1200
GlyphClass: 2
Flags: W
HStem: -23 134<415.745 689.884> 0 21G<854.028 999> 1033 20G<201 369 831 999>
VStem: 201 168<157.25 1053> 831 168<225.302 1053> 856 143<0 142>
AnchorPoint: "Anchor-0" 600 1053 basechar 0
LayerCount: 2
Fore
SplineSet
773 1244 m 1x30
 369 1430 l 1
 459 1573 l 1
 828 1337 l 1
 773 1244 l 1x30
369 1053 m 1
 369 307 l 2
 369 169 424 111 546 111 c 0
 661 111 774 188 831 278 c 1
 831 1053 l 1
 999 1053 l 1xb8
 999 0 l 1
 856 0 l 1x74
 842 142 l 1
 759 35 628 -23 505 -23 c 0xb4
 301 -23 201 92 201 287 c 2
 201 1053 l 1
 369 1053 l 1
EndSplineSet
EndChar

StartChar: uhungarumlaut
Encoding: 369 369 245
Width: 1200
GlyphClass: 2
Flags: W
HStem: -23 134<415.745 689.884> 0 21G<854.028 999> 1033 20G<201 369 831 999>
VStem: 201 168<157.25 1053> 831 168<225.302 1053> 856 143<0 142>
AnchorPoint: "Anchor-0" 600 1053 basechar 0
LayerCount: 2
Fore
SplineSet
354 1324 m 1x30
 510 1671 l 1
 658 1601 l 1
 464 1273 l 1
 354 1324 l 1x30
682 1324 m 1
 858 1671 l 1
 1004 1594 l 1
 788 1268 l 1
 682 1324 l 1
369 1053 m 1
 369 307 l 2
 369 169 424 111 546 111 c 0
 661 111 774 188 831 278 c 1
 831 1053 l 1
 999 1053 l 1xb8
 999 0 l 1
 856 0 l 1x74
 842 142 l 1
 759 35 628 -23 505 -23 c 0xb4
 301 -23 201 92 201 287 c 2
 201 1053 l 1
 369 1053 l 1
EndSplineSet
EndChar

StartChar: umacron
Encoding: 363 363 246
Width: 1200
GlyphClass: 2
Flags: W
HStem: -23 134<415.745 689.884> 0 21G<854.028 999> 1033 20G<201 369 831 999> 1352 128<330 868>
VStem: 201 168<157.25 1053> 831 168<225.302 1053> 856 143<0 142>
AnchorPoint: "Anchor-0" 600 1053 basechar 0
LayerCount: 2
Fore
SplineSet
868 1352 m 1x38
 330 1352 l 1
 330 1480 l 1
 868 1480 l 1
 868 1352 l 1x38
369 1053 m 1
 369 307 l 2
 369 169 424 111 546 111 c 0
 661 111 774 188 831 278 c 1
 831 1053 l 1
 999 1053 l 1xbc
 999 0 l 1
 856 0 l 1x7a
 842 142 l 1
 759 35 628 -23 505 -23 c 0xba
 301 -23 201 92 201 287 c 2
 201 1053 l 1
 369 1053 l 1
EndSplineSet
EndChar

StartChar: uogonek
Encoding: 371 371 247
Width: 1200
GlyphClass: 2
Flags: W
HStem: -459 134<763.051 969.166> -23 134<415.745 689.884> 1033 20G<201 369 831 999>
VStem: 201 168<157.25 1053> 599 152<-311.664 -125.949> 831 168<225.302 1053>
AnchorPoint: "Anchor-0" 600 1053 basechar 0
LayerCount: 2
Fore
SplineSet
369 1053 m 1
 369 307 l 2
 369 169 424 111 546 111 c 0
 661 111 774 188 831 278 c 1
 831 1053 l 1
 999 1053 l 1
 999 0 l 1
 793 -91 751 -158 751 -229 c 0
 751 -288 779 -325 863 -325 c 0
 905 -325 937 -321 987 -311 c 1
 969 -445 l 1
 929 -453 895 -459 843 -459 c 0
 691 -459 599 -373 599 -262 c 0
 599 -145 677 -52 854 21 c 1
 842 142 l 1
 759 35 628 -23 505 -23 c 0
 301 -23 201 92 201 287 c 2
 201 1053 l 1
 369 1053 l 1
EndSplineSet
EndChar

StartChar: uring
Encoding: 367 367 248
Width: 1200
GlyphClass: 2
Flags: W
HStem: -23 134<415.745 689.884> 0 21G<854.028 999> 1033 20G<201 369 831 999> 1238 90<511.386 688.908> 1555 92<513.923 688.908>
VStem: 201 168<157.25 1053> 378 114<1347.46 1535.85> 708 114<1347.46 1535.85> 831 168<225.302 1053> 856 143<0 142>
AnchorPoint: "Anchor-0" 600 1053 basechar 0
LayerCount: 2
Fore
SplineSet
600 1647 m 0x3f
 729 1647 822 1557 822 1441 c 0
 822 1328 729 1238 600 1238 c 0
 471 1238 378 1328 378 1441 c 0
 378 1557 471 1647 600 1647 c 0x3f
600 1555 m 0
 535 1555 492 1511 492 1441 c 0
 492 1371 535 1328 600 1328 c 0
 667 1328 708 1371 708 1441 c 0
 708 1511 667 1555 600 1555 c 0
369 1053 m 1
 369 307 l 2
 369 169 424 111 546 111 c 0
 661 111 774 188 831 278 c 1
 831 1053 l 1
 999 1053 l 1xbf80
 999 0 l 1
 856 0 l 1x7f40
 842 142 l 1
 759 35 628 -23 505 -23 c 0xbf40
 301 -23 201 92 201 287 c 2
 201 1053 l 1
 369 1053 l 1
EndSplineSet
EndChar

StartChar: utilde
Encoding: 361 361 249
Width: 1200
GlyphClass: 2
Flags: W
HStem: -23 134<415.745 689.884> 0 21G<854.028 999> 1033 20G<201 369 831 999> 1317 130<621.926 791.039> 1414 129<409.035 580.623>
VStem: 201 168<157.25 1053> 831 168<225.302 1053> 856 143<0 142>
AnchorPoint: "Anchor-0" 600 1053 basechar 0
LayerCount: 2
Fore
SplineSet
717 1317 m 0x34
 611 1317 557 1414 484 1414 c 0
 439 1414 410 1381 378 1321 c 1
 271 1375 l 1
 317 1469 387 1543 485 1543 c 0x2c
 595 1543 642 1447 717 1447 c 0
 756 1447 787 1475 823 1535 c 1
 929 1481 l 1
 877 1370 803 1317 717 1317 c 0x34
369 1053 m 1
 369 307 l 2
 369 169 424 111 546 111 c 0
 661 111 774 188 831 278 c 1
 831 1053 l 1
 999 1053 l 1xa6
 999 0 l 1
 856 0 l 1x65
 842 142 l 1
 759 35 628 -23 505 -23 c 0xa5
 301 -23 201 92 201 287 c 2
 201 1053 l 1
 369 1053 l 1
EndSplineSet
EndChar

StartChar: v
Encoding: 118 118 250
Width: 1200
GlyphClass: 2
Flags: W
HStem: 0 21G<493.783 703.274> 1033 20G<121 305.778 898.311 1079>
AnchorPoint: "Anchor-1" 600 0 basechar 0
AnchorPoint: "Anchor-0" 600 1053 basechar 0
LayerCount: 2
Fore
SplineSet
1079 1053 m 1
 696 0 l 1
 501 0 l 1
 121 1053 l 1
 299 1053 l 1
 604 153 l 1
 905 1053 l 1
 1079 1053 l 1
EndSplineSet
EndChar

StartChar: w
Encoding: 119 119 251
Width: 1200
GlyphClass: 2
Flags: W
HStem: 0 21G<223.353 462.829 739.481 984.495> 1033 20G<35 209.824 998.176 1165>
VStem: 35 172<976.219 1053> 1001 164<972.88 1053>
AnchorPoint: "Anchor-1" 600 0 basechar 0
AnchorPoint: "Anchor-0" 600 1053 basechar 0
LayerCount: 2
Fore
SplineSet
981 0 m 1
 743 0 l 1
 607 773 l 1
 459 0 l 1
 227 0 l 1
 35 1053 l 1
 207 1053 l 1
 341 104 l 1
 509 919 l 1
 708 919 l 1
 867 104 l 1
 1001 1053 l 1
 1165 1053 l 1
 981 0 l 1
EndSplineSet
Substitution2: "Single Substitution lookup 203 subtable" LIG
Substitution2: "Single Substitution lookup 202 subtable" LIG
Substitution2: "Single Substitution lookup 201 subtable" w_w_w.liga
AlternateSubs2: "'aalt' Access All Alternates lookup 1 subtable" w_w_w.liga LIG
EndChar

StartChar: wacute
Encoding: 7811 7811 252
Width: 1200
GlyphClass: 2
Flags: W
HStem: 0 21G<223.353 462.829 739.481 984.495> 1033 20G<35 209.824 998.176 1165>
VStem: 35 172<976.219 1053> 1001 164<972.88 1053>
AnchorPoint: "Anchor-1" 600 0 basechar 0
AnchorPoint: "Anchor-0" 600 1053 basechar 0
LayerCount: 2
Fore
SplineSet
767 1594 m 1
 845 1450 l 1
 427 1280 l 1
 375 1370 l 1
 767 1594 l 1
981 0 m 1
 743 0 l 1
 607 773 l 1
 459 0 l 1
 227 0 l 1
 35 1053 l 1
 207 1053 l 1
 341 104 l 1
 509 919 l 1
 708 919 l 1
 867 104 l 1
 1001 1053 l 1
 1165 1053 l 1
 981 0 l 1
EndSplineSet
EndChar

StartChar: wcircumflex
Encoding: 373 373 253
Width: 1200
GlyphClass: 2
Flags: W
HStem: 0 21G<223.353 462.829 739.481 984.495> 1033 20G<35 209.824 998.176 1165>
VStem: 35 172<976.219 1053> 1001 164<972.88 1053>
AnchorPoint: "Anchor-1" 600 0 basechar 0
AnchorPoint: "Anchor-0" 600 1053 basechar 0
LayerCount: 2
Fore
SplineSet
354 1258 m 1
 274 1341 l 1
 545 1579 l 1
 658 1579 l 1
 927 1341 l 1
 851 1258 l 1
 602 1439 l 1
 354 1258 l 1
981 0 m 1
 743 0 l 1
 607 773 l 1
 459 0 l 1
 227 0 l 1
 35 1053 l 1
 207 1053 l 1
 341 104 l 1
 509 919 l 1
 708 919 l 1
 867 104 l 1
 1001 1053 l 1
 1165 1053 l 1
 981 0 l 1
EndSplineSet
EndChar

StartChar: wdieresis
Encoding: 7813 7813 254
Width: 1200
GlyphClass: 2
Flags: W
HStem: 0 21G<223.353 462.829 739.481 984.495> 1033 20G<35 209.824 998.176 1165> 1297 214<303.898 479.648 718.058 893.808>
VStem: 35 172<976.219 1053> 283 218<1317.34 1490.24> 697 218<1317.34 1490.24> 1001 164<972.88 1053>
AnchorPoint: "Anchor-1" 600 0 basechar 0
AnchorPoint: "Anchor-0" 600 1400 basechar 0
LayerCount: 2
Fore
SplineSet
393 1297 m 0
 329 1297 283 1342 283 1403 c 0
 283 1465 329 1511 393 1511 c 0
 453 1511 501 1465 501 1403 c 0
 501 1342 453 1297 393 1297 c 0
805 1297 m 0
 744 1297 697 1342 697 1403 c 0
 697 1465 744 1511 805 1511 c 0
 868 1511 915 1465 915 1403 c 0
 915 1342 868 1297 805 1297 c 0
981 0 m 1
 743 0 l 1
 607 773 l 1
 459 0 l 1
 227 0 l 1
 35 1053 l 1
 207 1053 l 1
 341 104 l 1
 509 919 l 1
 708 919 l 1
 867 104 l 1
 1001 1053 l 1
 1165 1053 l 1
 981 0 l 1
EndSplineSet
EndChar

StartChar: wgrave
Encoding: 7809 7809 255
Width: 1200
GlyphClass: 2
Flags: W
HStem: 0 21G<223.353 462.829 739.481 984.495> 1033 20G<35 209.824 998.176 1165>
VStem: 35 172<976.219 1053> 1001 164<972.88 1053>
AnchorPoint: "Anchor-1" 600 0 basechar 0
AnchorPoint: "Anchor-0" 600 1053 basechar 0
LayerCount: 2
Fore
SplineSet
773 1244 m 1
 369 1430 l 1
 459 1573 l 1
 828 1337 l 1
 773 1244 l 1
981 0 m 1
 743 0 l 1
 607 773 l 1
 459 0 l 1
 227 0 l 1
 35 1053 l 1
 207 1053 l 1
 341 104 l 1
 509 919 l 1
 708 919 l 1
 867 104 l 1
 1001 1053 l 1
 1165 1053 l 1
 981 0 l 1
EndSplineSet
EndChar

StartChar: x
Encoding: 120 120 256
Width: 1200
GlyphClass: 2
Flags: W
HStem: 0 21G<111 315.92 870.257 1089> 1033 20G<159 370.449 836.398 1041>
AnchorPoint: "Anchor-1" 600 0 basechar 0
AnchorPoint: "Anchor-0" 600 1053 basechar 0
LayerCount: 2
Fore
SplineSet
303 0 m 1
 111 0 l 1
 500 556 l 1
 159 1053 l 1
 358 1053 l 1
 602 661 l 1
 849 1053 l 1
 1041 1053 l 1
 701 563 l 1
 1089 0 l 1
 883 0 l 1
 595 452 l 1
 303 0 l 1
EndSplineSet
Substitution2: "Single Substitution lookup 386 subtable" x.multiply
Substitution2: "Single Substitution lookup 385 subtable" x.multiply
Substitution2: "'aalt' Access All Alternates lookup 0 subtable" x.multiply
EndChar

StartChar: y
Encoding: 121 121 257
Width: 1200
GlyphClass: 2
Flags: W
HStem: -423 134<234.284 354.509> 1033 20G<123 309.53 896.557 1077>
AnchorPoint: "Anchor-0" 600 1053 basechar 0
LayerCount: 2
Fore
SplineSet
1077 1053 m 1
 707 -7 l 2
 633 -221 516 -395 237 -423 c 1
 211 -289 l 1
 429 -252 491 -163 547 0 c 1
 491 0 l 1
 123 1053 l 1
 303 1053 l 1
 605 128 l 1
 903 1053 l 1
 1077 1053 l 1
EndSplineSet
EndChar

StartChar: yacute
Encoding: 253 253 258
Width: 1200
GlyphClass: 2
Flags: W
HStem: -423 134<234.284 354.509> 1033 20G<123 309.53 896.557 1077>
AnchorPoint: "Anchor-0" 600 1053 basechar 0
LayerCount: 2
Fore
SplineSet
767 1594 m 1
 845 1450 l 1
 427 1280 l 1
 375 1370 l 1
 767 1594 l 1
1077 1053 m 1
 707 -7 l 2
 633 -221 516 -395 237 -423 c 1
 211 -289 l 1
 429 -252 491 -163 547 0 c 1
 491 0 l 1
 123 1053 l 1
 303 1053 l 1
 605 128 l 1
 903 1053 l 1
 1077 1053 l 1
EndSplineSet
EndChar

StartChar: ycircumflex
Encoding: 375 375 259
Width: 1200
GlyphClass: 2
Flags: W
HStem: -423 134<234.284 354.509> 1033 20G<123 309.53 896.557 1077>
AnchorPoint: "Anchor-0" 600 1053 basechar 0
LayerCount: 2
Fore
SplineSet
354 1258 m 1
 274 1341 l 1
 545 1579 l 1
 658 1579 l 1
 927 1341 l 1
 851 1258 l 1
 602 1439 l 1
 354 1258 l 1
1077 1053 m 1
 707 -7 l 2
 633 -221 516 -395 237 -423 c 1
 211 -289 l 1
 429 -252 491 -163 547 0 c 1
 491 0 l 1
 123 1053 l 1
 303 1053 l 1
 605 128 l 1
 903 1053 l 1
 1077 1053 l 1
EndSplineSet
EndChar

